<svg width="117" height="115" viewBox="0 0 117 115" fill="none" xmlns="http://www.w3.org/2000/svg">
<mask id="mask0_122_3800" style="mask-type:luminance" maskUnits="userSpaceOnUse" x="0" y="0" width="117" height="115">
<path d="M58.0424 115C90.0984 115 116.085 89.2563 116.085 57.5C116.085 25.7436 90.0984 0 58.0424 0C25.9865 0 0 25.7436 0 57.5C0 89.2563 25.9865 115 58.0424 115Z" fill="white"/>
</mask>
<g mask="url(#mask0_122_3800)">
<path d="M58.0424 115C90.0984 115 116.085 89.2563 116.085 57.5C116.085 25.7436 90.0984 0 58.0424 0C25.9865 0 0 25.7436 0 57.5C0 89.2563 25.9865 115 58.0424 115Z" fill="#8FC3D8"/>
</g>
<mask id="mask1_122_3800" style="mask-type:luminance" maskUnits="userSpaceOnUse" x="0" y="0" width="117" height="115">
<path d="M58.0424 115C90.0984 115 116.085 89.2563 116.085 57.5C116.085 25.7436 90.0984 0 58.0424 0C25.9865 0 0 25.7436 0 57.5C0 89.2563 25.9865 115 58.0424 115Z" fill="white"/>
</mask>
<g mask="url(#mask1_122_3800)">
<path d="M17.8223 115H98.2633C98.2633 115 102.023 95.4711 98.2633 90.6574C93.8384 84.9922 70.2603 83.4702 70.2603 83.4702H45.8239C45.8239 83.4702 22.2471 84.9922 17.821 90.6574C14.0627 95.4698 17.8223 115 17.8223 115Z" fill="#FC611F"/>
<path d="M58.042 83.4702H45.8239C45.8239 83.4702 45.9026 94.2913 58.042 103.19C70.1841 94.2913 70.259 83.4702 70.259 83.4702H58.042Z" fill="white"/>
<path d="M80.0623 49.6059C78.4066 48.5984 75.9751 50.5392 74.6343 53.9416C73.2923 57.344 73.5475 60.9187 75.2032 61.9262C76.8588 62.9325 79.2903 60.993 80.6311 57.5906C81.9731 54.1869 81.7167 50.6121 80.0623 49.6059Z" fill="#FEE69F"/>
<path d="M36.024 49.6059C37.6797 48.5984 40.1111 50.5392 41.4532 53.9416C42.794 57.344 42.5413 60.9187 40.8831 61.9262C39.2262 62.9325 36.7972 60.993 35.4552 57.5906C34.1131 54.1869 34.3671 50.6121 36.024 49.6059Z" fill="#FEE69F"/>
<path d="M68.1388 59.5438H47.9457L45.8241 83.4701C45.8241 86.1165 51.2939 88.2624 58.0423 88.2624C64.7907 88.2624 70.2592 86.1165 70.2592 83.4701L68.1388 59.5438Z" fill="#FEE69F"/>
<path d="M80.5391 43.5305C80.5391 59.2847 70.4667 77.074 58.0415 77.074C45.6164 77.074 35.5439 59.2847 35.5439 43.5305C35.5439 27.7775 45.6164 20.0231 58.0415 20.0231C70.4667 20.0231 80.5391 27.7775 80.5391 43.5305Z" fill="#FEE69F"/>
<path opacity="0.4" d="M58.0413 20.0231C45.6162 20.0231 35.545 27.7775 35.545 43.5305C35.545 59.2847 45.6175 77.074 58.0413 77.074V20.0231Z" fill="white"/>
<path opacity="0.1" d="M58.0431 77.0742C53.9623 77.0742 50.1393 75.1472 46.8393 72.0127L46.7225 73.3259C50.0491 76.5308 53.9115 78.5119 58.0431 78.5119C62.1708 78.5119 66.0357 76.5446 69.3623 73.3435L69.2442 72.014C65.9456 75.1485 62.1226 77.0742 58.0431 77.0742Z" fill="black"/>
<path d="M79.2952 34.5723C79.2952 34.5723 79.233 34.3647 79.1149 33.9748C78.9765 33.5912 78.8711 33 78.5575 32.3007C78.4115 31.946 78.2502 31.5535 78.075 31.1246C77.8655 30.7133 77.6383 30.2668 77.3958 29.7913C76.8828 28.8517 76.22 27.8304 75.3719 26.8065C74.5059 25.8015 73.494 24.7588 72.2637 23.8418C71.0638 22.8846 69.6456 22.0683 68.1118 21.3916C66.5818 20.6923 64.8982 20.2181 63.1727 19.8734C61.4345 19.525 59.6633 19.4206 57.8489 19.4017C56.1285 19.4168 54.2735 19.6294 52.562 19.9602C50.8365 20.3338 49.1833 20.8922 47.6521 21.5828C46.1412 22.3161 44.7394 23.1525 43.5611 24.1387C42.9492 24.6016 42.4324 25.1437 41.9017 25.6267C41.4306 26.1701 40.9266 26.6493 40.5355 27.1876C39.7051 28.2253 39.0703 29.2656 38.584 30.2177C38.3529 30.702 38.118 31.1422 37.9377 31.5674C37.7714 31.9963 37.6178 32.3912 37.4794 32.7472C37.1873 33.4528 37.0858 34.0515 36.9575 34.4364C36.8483 34.8276 36.7899 35.0377 36.7899 35.0377C36.9321 34.7622 37.0883 34.4968 37.2775 34.2629C37.6051 34.9911 38.1599 35.7949 38.9738 36.7056C39.1223 35.9018 39.4397 35.2503 39.8664 34.6868C40.2104 35.4087 40.7843 36.2024 41.6173 37.0955C41.7468 36.2892 42.049 35.6301 42.4641 35.0591C42.8235 35.7748 43.4113 36.5521 44.2633 37.4275C44.3763 36.6175 44.6645 35.9534 45.0657 35.371C45.4416 36.0792 46.0459 36.8439 46.9169 37.6992C47.0122 36.8892 47.2839 36.2163 47.6724 35.6264C48.0622 36.3244 48.6843 37.0779 49.5706 37.9143C49.6468 37.1005 49.9058 36.4225 50.2791 35.8251C50.6854 36.5156 51.3253 37.2552 52.2306 38.0716C52.2902 37.2565 52.5302 36.5735 52.8921 35.9685C53.3123 36.649 53.9688 37.3747 54.8918 38.1722C54.935 37.3596 55.1572 36.6666 55.5051 36.0527C55.9406 36.7232 56.6123 37.4364 57.5544 38.2112C57.5772 37.3961 57.7867 36.7018 58.1194 36.0804C58.5701 36.742 59.2583 37.4389 60.2169 38.1961C60.222 37.3798 60.415 36.6817 60.7349 36.054C61.2022 36.7056 61.9018 37.3898 62.8756 38.1231C62.8629 37.308 63.0432 36.6049 63.3505 35.9697C63.8292 36.6112 64.5465 37.2754 65.5369 37.9885C65.5064 37.1735 65.6702 36.4678 65.9622 35.8251C66.4574 36.4565 67.1887 37.1068 68.1956 37.7973C68.1461 36.9835 68.2946 36.2729 68.5714 35.6251C69.0806 36.2439 69.8259 36.8791 70.8493 37.5483C70.782 36.7345 70.9127 36.0226 71.1768 35.3698C71.6987 35.9773 72.4605 36.5974 73.4978 37.2439C73.4128 36.4313 73.5296 35.7169 73.7784 35.0578C74.313 35.6566 75.0875 36.2565 76.1388 36.8804C76.0359 36.0703 76.1375 35.3534 76.3724 34.6893C76.9209 35.2754 77.7094 35.859 78.7772 36.459C78.6553 35.6515 78.7391 34.9308 78.9613 34.2616C79.0616 34.3673 79.1784 34.4691 79.2952 34.5723Z" fill="#8F6C08"/>
</g>
</svg>
