<svg width="552" height="356" viewBox="0 0 552 356" fill="none" xmlns="http://www.w3.org/2000/svg">
<path d="M4.26953 294.499V327.588H52.6575H106.028V294.499H4.26953Z" fill="#F5F5F5"/>
<path d="M0 285.248V294.499H109.586V285.248H52.6576H0Z" fill="#E0E0E0"/>
<path d="M54.7923 327.588H106.028V294.499H109.586V285.248H52.6575V293.643L54.7923 327.588Z" fill="#E0E0E0"/>
<path d="M39.1377 299.835H18.5015V304.816H39.1377V299.835Z" fill="#E0E0E0"/>
<path d="M42.3439 311.043H15.8455V321.561H42.3439V311.043Z" fill="white"/>
<path d="M19.925 252.203V285.292H68.313H121.682V252.203H19.925Z" fill="#F5F5F5"/>
<path d="M15.6555 242.952V252.203H125.241V242.952H68.3131H15.6555Z" fill="#E0E0E0"/>
<path d="M70.448 285.292H121.683V252.203H125.241V242.952H68.3132V251.347L70.448 285.292Z" fill="#E0E0E0"/>
<path d="M54.7932 257.539H34.157V262.52H54.7932V257.539Z" fill="#E0E0E0"/>
<path d="M57.9987 268.747H31.501V279.265H57.9987V268.747Z" fill="white"/>
<path d="M82.4965 0.163086H7.15674V109.364H82.4965V0.163086Z" fill="#E0E0E0"/>
<path d="M78.7213 0.163086H3.38232V109.364H78.7213V0.163086Z" fill="#F5F5F5"/>
<path d="M69.361 11.9901H12.7424V97.5369H69.361V11.9901Z" fill="white"/>
<path d="M69.3612 97.5369C69.3612 97.5369 69.3539 97.3923 69.3498 97.1183C69.3474 96.8355 69.3434 96.4331 69.3385 95.9055C69.3337 94.8308 69.3256 93.2568 69.3159 91.2133C69.3038 87.1133 69.2868 81.1388 69.265 73.591C69.2424 58.5059 69.21 37.1448 69.1721 11.9901L69.3595 12.1784C52.0613 12.1832 32.894 12.1897 12.7474 12.1953H12.741L12.9454 11.9901C12.9301 44.262 12.9155 74.0168 12.9042 97.5369L12.741 97.3737C29.9835 97.4092 44.1167 97.4391 53.952 97.4593C58.8713 97.4771 62.7135 97.4916 65.338 97.5005C66.6421 97.5086 67.6417 97.5143 68.3269 97.5191C69.0048 97.5256 69.3612 97.5369 69.3612 97.5369C69.3612 97.5369 69.0282 97.549 68.3624 97.5547C67.6845 97.5587 66.6955 97.5652 65.4042 97.5732C62.7886 97.5829 58.9586 97.5967 54.0555 97.6145C44.1959 97.6347 30.0279 97.6646 12.7426 97.7001H12.5794V97.5361C12.5681 74.016 12.5535 44.2611 12.5374 11.9893V11.7841H12.7426H12.7491C32.8948 11.7897 52.0629 11.7962 69.3612 11.801H69.5494V11.9893C69.5114 37.1949 69.4799 58.5988 69.4573 73.7138C69.4355 81.243 69.4185 87.203 69.4064 91.2933C69.3967 93.3206 69.3886 94.8817 69.3838 95.9475C69.3789 96.4654 69.3749 96.8622 69.3725 97.1393C69.3684 97.4068 69.3612 97.5369 69.3612 97.5369Z" fill="#E0E0E0"/>
<path d="M78.9331 0.163066C78.9767 0.197003 78.4652 0.943619 77.5901 2.11445C76.715 3.28448 75.4723 4.8771 74.055 6.5982C72.6369 8.32011 71.3117 9.84405 70.3308 10.9276C69.3498 12.0112 68.7155 12.656 68.6735 12.6196C68.6299 12.5817 69.1874 11.8698 70.1118 10.7393C71.1219 9.51357 72.3646 8.00579 73.7391 6.33883C75.1119 4.67105 76.3538 3.16246 77.3631 1.93588C78.2955 0.811102 78.8878 0.127512 78.9331 0.163066Z" fill="#E0E0E0"/>
<path d="M69.6497 97.2614C72.4616 101.733 75.7818 105.885 79.5246 109.612L69.6497 97.2614Z" fill="white"/>
<path d="M79.5253 109.612C79.4881 109.65 78.8158 109.067 77.8034 108.046C76.7909 107.026 75.4496 105.558 74.0783 103.844C72.7079 102.129 71.571 100.498 70.7986 99.2855C70.0261 98.0735 69.6043 97.2897 69.6495 97.2614C69.7004 97.2291 70.2079 97.9579 71.0385 99.1231C71.8692 100.289 73.036 101.883 74.3983 103.588C75.7615 105.292 77.06 106.781 78.0143 107.847C78.9685 108.914 79.5673 109.569 79.5253 109.612Z" fill="#E0E0E0"/>
<path d="M3.37109 109.278C6.66058 105.219 9.95006 101.161 13.2395 97.1022L3.37109 109.278Z" fill="white"/>
<path d="M13.2395 97.1021C13.3276 97.1732 11.1895 99.9569 8.46485 103.318C5.73937 106.681 3.45911 109.349 3.37103 109.277C3.28296 109.206 5.421 106.424 8.14648 103.061C10.8712 99.6991 13.1522 97.031 13.2395 97.1021Z" fill="#E0E0E0"/>
<path d="M3.38249 0.163033C3.47137 0.0927344 5.61588 2.65661 8.17248 5.88872C10.7299 9.12164 12.7298 11.7995 12.6409 11.8697C12.552 11.94 10.4075 9.37617 7.85089 6.14325C5.29428 2.91033 3.29361 0.233331 3.38249 0.163033Z" fill="#E0E0E0"/>
<path d="M51.7209 29.3595H32.7629V83.1871H51.7209V29.3595Z" fill="#E0E0E0"/>
<path d="M488.99 316.021C487.208 314.493 483.232 309.652 486.298 304.02C487.422 301.955 489.808 300.934 491.969 300.024C494.129 299.114 496.4 298.324 498.187 296.803C501.558 293.935 502.489 289.17 504.727 285.344C507.296 280.951 512.091 277.661 517.157 277.891C522.959 278.155 527.798 282.894 529.991 288.296C532.184 293.699 532.26 299.698 532.306 305.532C532.331 308.758 532.188 312.395 529.818 314.573C527.635 316.582 524.347 316.607 521.388 316.516C510.819 316.191 500.251 315.866 489.683 315.542" fill="#F5F5F5"/>
<path d="M549.628 228.84H466.25L481.27 318.396C481.927 322.308 484.756 325.323 488.389 326.369C488.485 326.399 488.583 326.422 488.68 326.449C488.928 326.512 489.168 326.596 489.423 326.641C489.972 326.754 490.541 326.812 491.119 326.835C491.123 326.863 491.128 326.893 491.133 326.921L491.539 326.856C491.54 326.856 491.541 326.856 491.542 326.856H528.701C529.4 326.856 530.082 326.784 530.743 326.653C535.131 325.974 538.644 322.452 539.178 317.899L546.418 256.193L546.744 253.74H546.706L549.573 229.303L549.628 228.84ZM533.899 285.965H525.343L526.206 259.974H536.12L533.899 285.965ZM536.95 259.974H545.142L542.093 285.965H534.73L536.95 259.974ZM512.505 314.778L511.985 292.198H524.306L523.556 314.778H512.505ZM499.184 292.198H511.156L511.676 314.778H500.938L499.184 292.198ZM500.109 314.778H490.071C489.117 308.682 487.875 300.759 486.532 292.198H498.354L500.109 314.778ZM498.699 285.965L496.679 259.974H510.414L511.013 285.965H498.699ZM511.842 285.965L511.243 259.974H525.378L524.514 285.965H511.842ZM511.099 253.741L510.545 229.671H526.384L525.585 253.741H511.099ZM510.272 253.741H496.196L494.325 229.671H509.717L510.272 253.741ZM495.366 253.741H480.473C479.946 250.417 479.446 247.269 478.994 244.439C477.441 234.707 476.856 231.048 476.533 229.671H493.495L495.366 253.741ZM495.85 259.974L497.87 285.965H485.553C485.139 283.328 484.719 280.66 484.3 277.991C483.334 271.855 482.368 265.722 481.46 259.974H495.85ZM484.716 285.965H476.671L472.311 259.974H480.621C481.891 268.007 483.299 276.947 484.716 285.965ZM485.695 292.198C486.921 300.012 488.128 307.716 489.233 314.778H481.503L477.715 292.198H485.695ZM524.385 314.778L525.135 292.198H533.367L531.437 314.778H524.385ZM526.413 253.741L527.213 229.671H538.709L536.652 253.741H526.413ZM475.744 229.671C476.074 231.411 477.596 240.882 479.634 253.741H471.266L467.229 229.671H475.744ZM538.712 314.778H532.268L534.197 292.198H541.361L538.712 314.778ZM545.873 253.741H537.483L539.539 229.671H548.697L545.873 253.741Z" fill="#E0E0E0"/>
<path d="M551.484 6.01636V79.3425H446.168L442.374 6.52865L551.484 6.01636Z" fill="#E0E0E0"/>
<path d="M442.374 6.52929V79.188H547.69V6.52929H442.374Z" fill="white"/>
<path d="M548.19 79.6876H441.874V6.0293H548.19V79.6876ZM442.874 78.688H547.191V7.02802H442.874V78.688Z" fill="#E0E0E0"/>
<path d="M536.283 15.5559H453.781V70.16H536.283V15.5559Z" fill="white"/>
<path d="M536.284 15.5559C536.284 15.5559 536.141 15.5656 535.876 15.5696C535.597 15.5728 535.209 15.5777 534.703 15.5833C533.658 15.5898 532.14 15.5995 530.172 15.6124C526.209 15.627 520.448 15.6488 513.171 15.6763C498.621 15.7054 478.028 15.7458 453.781 15.7934L454.019 15.5551C454.025 32.2384 454.033 50.7237 454.041 70.1527V70.1592L453.781 69.899C484.903 69.9192 513.597 69.937 536.284 69.9515L536.077 70.1584C536.122 53.5413 536.16 39.9171 536.186 30.4293C536.208 25.6869 536.226 21.9821 536.238 19.4433C536.248 18.1884 536.256 17.2253 536.262 16.5562C536.269 15.9033 536.284 15.5559 536.284 15.5559C536.284 15.5559 536.298 15.8734 536.306 16.5142C536.312 17.1744 536.319 18.1246 536.33 19.3625C536.342 21.8916 536.36 25.5803 536.382 30.3024C536.408 39.821 536.445 53.4896 536.491 70.1608L536.492 70.3685H536.284C513.598 70.383 484.903 70.4016 453.781 70.421H453.521V70.1608V70.1544C453.529 50.7253 453.536 32.24 453.543 15.5567V15.3175L453.781 15.3183C478.093 15.366 498.741 15.4072 513.328 15.4355C520.582 15.4629 526.325 15.4848 530.276 15.4993C532.223 15.5114 533.725 15.5219 534.76 15.5284C535.253 15.5341 535.632 15.5389 535.906 15.5421C536.161 15.547 536.284 15.5559 536.284 15.5559Z" fill="#E0E0E0"/>
<path d="M442.374 6.32494C442.417 6.26838 443.106 6.72007 444.184 7.49739C445.262 8.27552 446.729 9.37848 448.313 10.6463C449.897 11.9149 451.29 13.114 452.271 14.0125C453.252 14.9111 453.826 15.5033 453.78 15.5559C453.682 15.6666 451.15 13.5778 447.987 11.0527C444.824 8.53005 442.282 6.44372 442.374 6.32494Z" fill="#E0E0E0"/>
<path d="M547.69 6.52859C547.779 6.64091 545.298 8.7539 542.149 11.2459C538.998 13.7394 536.373 15.6682 536.284 15.5559C536.195 15.4436 538.676 13.3314 541.827 10.8378C544.975 8.34585 547.601 6.41627 547.69 6.52859Z" fill="#E0E0E0"/>
<path d="M547.607 79.1987C543.692 76.0264 539.778 72.8541 535.864 69.6818L547.607 79.1987Z" fill="white"/>
<path d="M535.864 69.6809C535.955 69.5694 538.657 71.6096 541.899 74.2373C545.143 76.8659 547.698 79.0863 547.607 79.1986C547.517 79.3102 544.816 77.2707 541.572 74.6422C538.329 72.0136 535.774 69.7924 535.864 69.6809Z" fill="#E0E0E0"/>
<path d="M442.374 79.1881C442.285 79.075 444.74 76.9847 447.857 74.5194C450.975 72.0533 453.575 70.1463 453.664 70.2586C453.752 70.3709 451.298 72.4613 448.179 74.9274C445.063 77.3927 442.463 79.3005 442.374 79.1881Z" fill="#E0E0E0"/>
<path d="M470.532 32.5685V50.8525H522.444V32.5685H470.532Z" fill="#E0E0E0"/>
<path d="M478.578 324.713H79.3121C72.8115 324.713 67.5415 319.443 67.5415 312.943V51.379C67.5415 47.9198 70.3454 45.116 73.8045 45.116H484.902C487.909 45.116 490.348 47.5546 490.348 50.5621V312.943C490.348 319.443 485.078 324.713 478.578 324.713Z" fill="#455A64"/>
<path d="M496.852 328.499H60.948C54.8248 328.499 49.8611 323.535 49.8611 317.412V304.035H507.94V317.412C507.94 323.535 502.975 328.499 496.852 328.499Z" fill="#455A64"/>
<path d="M477.816 56.2249H78.8911V292.34H477.816V56.2249Z" fill="#F5F5F5"/>
<path d="M237.265 304.035L242.949 313.077H322.935L328.214 304.035H237.265Z" fill="#263238"/>
<path d="M490.416 303.952H67.6094V305.3H490.416V303.952Z" fill="#263238"/>
<path d="M191.841 45.116H147.918V29.6495C147.918 18.7298 156.764 9.49402 167.683 9.49402L191.841 9.87783V45.116Z" fill="#E0E0E0"/>
<path d="M166.741 9.47229C166.741 9.47229 191.738 7.20334 191.738 39.8024C191.738 72.4015 191.738 293.408 191.738 293.408H387.924V30.557C387.924 18.6418 378.249 8.9907 366.335 9.01898L166.741 9.47229Z" fill="white"/>
<path d="M166.741 9.47224C167.903 9.4682 222.249 9.29286 311.885 9.00358C323.08 8.97126 334.808 8.93732 347.028 8.90177C353.139 8.88561 359.372 8.86864 365.724 8.85248C368.911 8.8145 372.187 9.34457 375.159 10.7109C378.138 12.041 380.838 14.0554 382.993 16.5829C385.141 19.1169 386.676 22.193 387.477 25.4696C387.727 26.2792 387.786 27.1301 387.933 27.964C388.051 28.8027 388.04 29.6568 388.1 30.5052C388.102 32.194 388.103 33.8892 388.104 35.5918C388.106 42.4002 388.107 49.3169 388.109 56.3355C388.111 70.3725 388.115 84.8201 388.118 99.6353C388.123 158.897 388.128 224.048 388.135 292.434C388.135 292.761 388.135 293.087 388.135 293.408V293.618H387.925C318.114 293.611 251.703 293.606 191.739 293.601H191.546V293.408C191.577 205.6 191.603 131.043 191.622 78.435C191.631 65.2844 191.64 53.5049 191.648 43.2325C191.649 40.6646 191.679 38.1904 191.505 35.8237C191.387 33.4505 190.997 31.2001 190.566 29.0677C190.066 26.9475 189.433 24.9613 188.646 23.1449C187.829 21.343 186.881 19.7132 185.828 18.283C183.682 15.4476 181.149 13.4655 178.748 12.2098C176.351 10.9259 174.117 10.3021 172.315 9.93282C170.504 9.57728 169.099 9.48355 168.16 9.46093C167.22 9.43749 166.741 9.47224 166.741 9.47224C166.741 9.47224 167.218 9.41568 168.16 9.4278C169.101 9.43911 170.509 9.52314 172.327 9.86898C174.136 10.2294 176.38 10.8451 178.792 12.125C181.209 13.3766 183.762 15.3611 185.928 18.207C186.991 19.6421 187.948 21.2775 188.773 23.0867C189.568 24.9104 190.209 26.9038 190.716 29.0322C191.152 31.1727 191.548 33.4311 191.672 35.8107C191.85 38.1863 191.824 40.6654 191.828 43.2317C191.836 53.5033 191.845 65.2828 191.855 78.4342C191.874 131.043 191.9 205.6 191.931 293.407L191.738 293.214C251.703 293.208 318.114 293.203 387.924 293.197L387.714 293.407C387.714 293.086 387.714 292.76 387.714 292.433C387.72 224.047 387.725 158.896 387.731 99.6345C387.734 84.8193 387.737 70.3725 387.74 56.3347C387.741 49.3161 387.743 42.3994 387.745 35.591C387.693 32.19 387.989 28.7801 387.133 25.5512C386.347 22.328 384.839 19.3011 382.726 16.8067C380.607 14.3188 377.95 12.3343 375.021 11.0237C372.092 9.67667 368.884 9.15388 365.725 9.18862C359.362 9.20074 353.117 9.21205 346.996 9.22417C334.752 9.24437 323.001 9.26377 311.784 9.28235C222.21 9.39952 167.902 9.47062 166.741 9.47224Z" fill="#263238"/>
<path d="M275.713 86.433C275.713 86.5494 263.783 86.6431 249.069 86.6431C234.351 86.6431 222.423 86.5485 222.423 86.433C222.423 86.3166 234.351 86.2229 249.069 86.2229C263.783 86.2221 275.713 86.3166 275.713 86.433Z" fill="#263238"/>
<path d="M287.659 92.8051C287.659 92.9214 273.055 93.0152 255.043 93.0152C237.025 93.0152 222.424 92.9206 222.424 92.8051C222.424 92.6887 237.025 92.595 255.043 92.595C273.054 92.5942 287.659 92.6887 287.659 92.8051Z" fill="#263238"/>
<path d="M291.94 117.89C291.94 118.007 276.86 118.1 258.262 118.1C239.658 118.1 224.581 118.006 224.581 117.89C224.581 117.774 239.658 117.68 258.262 117.68C276.861 117.68 291.94 117.775 291.94 117.89Z" fill="#263238"/>
<path d="M335.942 142.339C335.942 142.455 310.731 142.549 279.638 142.549C248.535 142.549 223.329 142.454 223.329 142.339C223.329 142.223 248.535 142.129 279.638 142.129C310.731 142.129 335.942 142.223 335.942 142.339Z" fill="#263238"/>
<path d="M335.942 149.634C335.942 149.751 310.731 149.844 279.638 149.844C248.535 149.844 223.329 149.75 223.329 149.634C223.329 149.519 248.535 149.424 279.638 149.424C310.731 149.424 335.942 149.518 335.942 149.634Z" fill="#263238"/>
<path d="M335.942 156.929C335.942 157.046 310.731 157.14 279.638 157.14C248.535 157.14 223.329 157.045 223.329 156.929C223.329 156.813 248.535 156.719 279.638 156.719C310.731 156.719 335.942 156.813 335.942 156.929Z" fill="#263238"/>
<path d="M335.942 164.224C335.942 164.341 310.731 164.434 279.638 164.434C248.535 164.434 223.329 164.34 223.329 164.224C223.329 164.108 248.535 164.014 279.638 164.014C310.731 164.014 335.942 164.109 335.942 164.224Z" fill="#263238"/>
<path d="M335.942 171.52C335.942 171.636 310.731 171.73 279.638 171.73C248.535 171.73 223.329 171.636 223.329 171.52C223.329 171.404 248.535 171.31 279.638 171.31C310.731 171.309 335.942 171.404 335.942 171.52Z" fill="#263238"/>
<path d="M266.033 178.815C266.033 178.931 256.472 179.025 244.682 179.025C232.887 179.025 223.329 178.93 223.329 178.815C223.329 178.699 232.887 178.605 244.682 178.605C256.473 178.604 266.033 178.698 266.033 178.815Z" fill="#263238"/>
<path d="M356.075 141.319L336.041 187.868C335.619 188.851 336.619 189.842 337.598 189.41L353.039 182.594C353.673 182.314 354.411 182.641 354.631 183.299L359.84 198.936C360.191 199.988 361.669 200.016 362.058 198.978L380.887 148.768L356.075 141.319Z" fill="#FF725E"/>
<path d="M382.18 149.066L391.775 198.826C391.978 199.875 393.362 200.133 393.928 199.226L402.868 184.91C403.236 184.322 404.03 184.177 404.581 184.598L417.679 194.604C418.56 195.277 419.798 194.469 419.536 193.391L406.886 141.28L382.18 149.066Z" fill="#FF725E"/>
<g opacity="0.3">
<path d="M356.075 141.319L336.041 187.868C335.619 188.851 336.619 189.842 337.598 189.41L353.039 182.594C353.673 182.314 354.411 182.641 354.631 183.299L359.84 198.936C360.191 199.988 361.669 200.016 362.058 198.978L380.887 148.768L356.075 141.319Z" fill="black"/>
</g>
<g opacity="0.3">
<path d="M382.18 149.066L391.775 198.826C391.978 199.875 393.362 200.133 393.928 199.226L402.868 184.91C403.236 184.322 404.03 184.177 404.581 184.598L417.679 194.604C418.56 195.277 419.798 194.469 419.536 193.391L406.886 141.28L382.18 149.066Z" fill="black"/>
</g>
<path d="M383.156 59.7211L389.732 54.8875L394.901 61.2046L402.473 58.1583L405.907 65.5623L413.998 64.4949L415.484 72.5202L423.587 73.4988L423.03 81.6421L430.635 84.6051L428.07 92.3533L434.699 97.1142L430.288 103.982L435.525 110.241L429.545 115.796L433.06 123.162L425.887 127.055L427.46 135.063L419.544 137.049L419.076 145.198L410.914 145.153L408.435 152.93L400.541 150.856L396.205 157.771L389.075 153.801L383.156 159.42L377.236 153.801L370.106 157.771L365.77 150.856L357.877 152.93L355.397 145.153L347.235 145.198L346.767 137.049L338.851 135.063L340.424 127.055L333.25 123.162L336.766 115.796L330.786 110.241L336.023 103.982L331.612 97.1142L338.241 92.3533L335.676 84.6051L343.281 81.6421L342.725 73.4988L350.827 72.5202L352.313 64.4949L360.404 65.5623L363.839 58.1583L371.411 61.2046L376.578 54.8875L383.156 59.7211Z" fill="#FF725E"/>
<path d="M409.29 133.293C423.725 118.858 423.725 95.4535 409.29 81.0182C394.854 66.583 371.45 66.583 357.015 81.0182C342.58 95.4535 342.58 118.858 357.015 133.293C371.45 147.728 394.854 147.728 409.29 133.293Z" fill="white"/>
<path d="M391.22 98.3982L401.14 99.851C402.77 100.089 403.418 102.093 402.237 103.242L395.05 110.232C394.581 110.688 394.366 111.345 394.476 111.99L396.16 121.874C396.436 123.497 394.731 124.733 393.275 123.966L384.406 119.291C383.827 118.985 383.135 118.985 382.556 119.288L373.677 123.944C372.218 124.708 370.516 123.469 370.796 121.846L372.502 111.966C372.613 111.321 372.4 110.663 371.932 110.206L364.76 103.2C363.582 102.049 364.235 100.047 365.866 99.8114L375.789 98.3804C376.436 98.2875 376.996 97.8811 377.286 97.2952L381.734 88.3092C382.464 86.8329 384.571 86.8353 385.298 88.3132L389.725 97.309C390.013 97.8956 390.573 98.3029 391.22 98.3982Z" fill="#FF725E"/>
<path d="M241.089 48.7457C241.089 46.0776 243.13 44.1852 245.912 44.1852C247.528 44.1852 248.83 44.7742 249.682 45.8392L248.104 47.267C247.552 46.6028 246.876 46.24 246.036 46.24C244.597 46.24 243.595 47.242 243.595 48.7457C243.595 50.2486 244.597 51.2514 246.036 51.2514C246.876 51.2514 247.552 50.8878 248.104 50.2236L249.682 51.6522C248.83 52.7163 247.528 53.3054 245.912 53.3054C243.13 53.3054 241.089 51.4138 241.089 48.7457Z" fill="#263238"/>
<path d="M257.826 51.2134V53.1301H250.785V44.3613H257.663V46.278H253.241V47.7559H257.137V49.6095H253.241V51.2126L257.826 51.2134Z" fill="#263238"/>
<path d="M263.038 50.7997H261.685V53.1301H259.205V44.3613H263.213C265.606 44.3613 267.109 45.6017 267.109 47.6056C267.109 48.896 266.483 49.8478 265.393 50.3739L267.285 53.1301H264.629L263.038 50.7997ZM263.063 46.3159H261.685V48.8839H263.063C264.09 48.8839 264.603 48.4079 264.603 47.6064C264.603 46.7911 264.09 46.3159 263.063 46.3159Z" fill="#263238"/>
<path d="M270.217 46.3281H267.523V44.3613H275.378V46.3281H272.698V53.1301H270.218V46.3281H270.217Z" fill="#263238"/>
<path d="M276.306 44.3613H278.787V53.1301H276.306V44.3613Z" fill="#263238"/>
<path d="M283.034 46.278V48.2067H286.905V50.1234H283.034V53.1301H280.554V44.3613H287.432V46.278H283.034Z" fill="#263238"/>
<path d="M288.597 44.3613H291.078V53.1301H288.597V44.3613Z" fill="#263238"/>
<path d="M292.393 48.7457C292.393 46.0776 294.434 44.1852 297.216 44.1852C298.831 44.1852 300.135 44.7742 300.986 45.8392L299.408 47.267C298.856 46.6028 298.18 46.24 297.341 46.24C295.901 46.24 294.899 47.242 294.899 48.7457C294.899 50.2486 295.901 51.2514 297.341 51.2514C298.18 51.2514 298.856 50.8878 299.408 50.2236L300.986 51.6522C300.135 52.7163 298.831 53.3054 297.216 53.3054C294.434 53.3054 292.393 51.4138 292.393 48.7457Z" fill="#263238"/>
<path d="M307.815 51.4267H304.107L303.417 53.1301H300.887L304.758 44.3613H307.2L311.084 53.1301H308.504L307.815 51.4267ZM307.088 49.5973L305.96 46.7911L304.832 49.5973H307.088Z" fill="#263238"/>
<path d="M313.215 46.3281H310.522V44.3613H318.376V46.3281H315.696V53.1301H313.216V46.3281H313.215Z" fill="#263238"/>
<path d="M319.305 44.3613H321.785V53.1301H319.305V44.3613Z" fill="#263238"/>
<path d="M323.101 48.7457C323.101 46.1148 325.168 44.1852 327.973 44.1852C330.78 44.1852 332.846 46.1148 332.846 48.7457C332.846 51.3758 330.779 53.3054 327.973 53.3054C325.167 53.3054 323.101 51.3766 323.101 48.7457ZM330.342 48.7457C330.342 47.2298 329.302 46.24 327.973 46.24C326.645 46.24 325.606 47.2298 325.606 48.7457C325.606 50.2607 326.645 51.2514 327.973 51.2514C329.302 51.2514 330.342 50.2616 330.342 48.7457Z" fill="#263238"/>
<path d="M342.494 44.3613V53.1301H340.452L336.581 48.4572V53.1301H334.151V44.3613H336.193L340.063 49.0342V44.3613H342.494Z" fill="#263238"/>
<path d="M352.437 209.611C352.437 209.727 341.256 209.821 327.467 209.821C313.673 209.821 302.495 209.727 302.495 209.611C302.495 209.496 313.673 209.401 327.467 209.401C341.256 209.4 352.437 209.495 352.437 209.611Z" fill="#263238"/>
<path d="M352.437 216.658C352.437 216.774 341.256 216.868 327.467 216.868C313.673 216.868 302.495 216.774 302.495 216.658C302.495 216.542 313.673 216.448 327.467 216.448C341.256 216.447 352.437 216.542 352.437 216.658Z" fill="#263238"/>
<path d="M349.117 247.271C349.11 247.271 349.097 247.152 349.078 246.92C349.06 246.67 349.036 246.33 349.005 245.893C348.991 245.665 348.974 245.413 348.957 245.137C348.926 244.86 348.866 244.56 348.816 244.234C348.711 243.582 348.611 242.825 348.36 242.003C347.976 240.334 347.19 238.363 345.956 236.274C344.71 234.194 342.917 232.021 340.476 230.178C338.043 228.353 334.973 226.8 331.43 226.173C327.911 225.569 323.939 225.679 320.157 227.116C319.195 227.425 318.29 227.901 317.36 228.347C316.479 228.879 315.55 229.371 314.73 230.038C313.858 230.637 313.096 231.386 312.298 232.107C311.577 232.905 310.819 233.686 310.197 234.593C308.921 236.366 307.807 238.335 307.132 240.501C306.433 242.653 306.057 244.939 306.026 247.265C306.057 249.592 306.433 251.879 307.131 254.033C307.805 256.199 308.92 258.169 310.196 259.943C310.818 260.849 311.576 261.631 312.296 262.43C313.095 263.151 313.858 263.9 314.729 264.499C315.55 265.166 316.478 265.658 317.36 266.19C318.29 266.637 319.195 267.113 320.158 267.422C323.941 268.859 327.913 268.969 331.432 268.365C334.975 267.738 338.045 266.185 340.478 264.359C342.919 262.516 344.713 260.343 345.957 258.263C347.192 256.175 347.977 254.203 348.362 252.534C348.613 251.712 348.713 250.956 348.818 250.304C348.867 249.977 348.928 249.677 348.958 249.401C348.976 249.125 348.992 248.873 349.007 248.645C349.037 248.21 349.062 247.869 349.079 247.618C349.097 247.39 349.11 247.271 349.117 247.271C349.125 247.271 349.126 247.39 349.122 247.622C349.114 247.873 349.104 248.215 349.09 248.653C349.082 248.881 349.072 249.135 349.062 249.413C349.038 249.692 348.984 249.994 348.941 250.323C348.848 250.981 348.76 251.744 348.52 252.576C348.156 254.264 347.387 256.262 346.158 258.385C344.919 260.5 343.12 262.713 340.657 264.598C338.203 266.464 335.093 268.057 331.495 268.709C327.922 269.339 323.881 269.241 320.024 267.787C319.043 267.475 318.121 266.993 317.172 266.54C316.273 266 315.327 265.5 314.489 264.823C313.601 264.214 312.822 263.453 312.007 262.719C311.27 261.907 310.498 261.11 309.862 260.187C308.558 258.382 307.422 256.374 306.732 254.165C306.018 251.971 305.634 249.638 305.604 247.265C305.634 244.894 306.019 242.563 306.733 240.368C307.422 238.16 308.559 236.153 309.863 234.348C310.499 233.425 311.271 232.63 312.008 231.817C312.822 231.083 313.601 230.323 314.489 229.714C315.327 229.037 316.273 228.538 317.171 227.998C318.119 227.545 319.043 227.063 320.023 226.751C323.879 225.298 327.919 225.2 331.492 225.829C335.09 226.481 338.199 228.074 340.654 229.94C343.117 231.823 344.917 234.037 346.156 236.152C347.386 238.275 348.154 240.274 348.518 241.962C348.759 242.794 348.847 243.557 348.939 244.215C348.983 244.544 349.036 244.846 349.06 245.126C349.071 245.404 349.08 245.657 349.088 245.887C349.101 246.325 349.112 246.667 349.12 246.919C349.126 247.152 349.125 247.271 349.117 247.271Z" fill="#FF725E"/>
<path d="M341.007 250.52C342.786 243.043 338.167 235.539 330.69 233.759C323.212 231.98 315.708 236.599 313.929 244.076C312.15 251.554 316.769 259.058 324.246 260.837C331.723 262.616 339.227 257.997 341.007 250.52Z" fill="#FF725E"/>
<path d="M358.414 235.288C358.414 235.288 358.219 235.407 357.828 235.616C357.423 235.83 356.845 236.136 356.09 236.536C354.546 237.341 352.294 238.515 349.406 240.021C346.499 241.524 342.953 243.356 338.849 245.476C337.806 245.975 336.669 246.448 335.409 246.575C334.163 246.74 332.775 246.367 331.763 245.464C331.265 245.013 330.84 244.424 330.684 243.726C330.512 243.056 330.624 242.223 331.147 241.682C331.634 241.128 332.348 240.797 333.092 240.741C333.826 240.643 334.705 241.034 334.997 241.809L335.008 241.836L335.009 241.864C335.052 244.095 334.232 246.415 332.671 248.228C331.148 250.061 328.791 251.354 326.233 251.465C323.699 251.597 321.011 250.73 319.051 248.87C318.08 247.959 317.24 246.789 316.981 245.39C316.861 244.701 316.915 243.94 317.254 243.289C317.582 242.645 318.125 242.094 318.824 241.82C319.522 241.532 320.376 241.657 320.98 242.113C321.593 242.566 321.965 243.241 322.202 243.924C322.444 244.613 322.531 245.347 322.534 246.067C322.562 246.429 322.541 246.79 322.507 247.152C322.489 247.516 322.449 247.877 322.368 248.233C321.847 251.104 320.211 253.793 317.864 255.674C315.541 257.564 312.388 258.63 309.297 258.136C306.218 257.672 303.384 255.874 301.463 253.368C300.371 251.935 299.551 250.279 299.212 248.517C298.892 246.768 298.88 244.911 299.611 243.251C299.972 242.435 300.554 241.68 301.341 241.216C302.113 240.749 303.053 240.53 303.955 240.718C304.874 240.888 305.612 241.58 306.029 242.346C306.464 243.119 306.682 243.956 306.879 244.777C307.639 248.083 307.426 251.549 306.281 254.609C305.17 257.68 303.042 260.317 300.346 261.91C297.672 263.529 294.528 264.185 291.589 263.819C290.12 263.632 288.703 263.183 287.445 262.476C286.187 261.771 285.104 260.822 284.229 259.742C282.477 257.584 281.52 254.908 281.557 252.32C281.57 251.025 281.852 249.769 282.331 248.623C282.833 247.505 283.651 246.436 284.84 246.047C285.424 245.876 286.047 245.834 286.628 245.998C287.203 246.171 287.698 246.507 288.114 246.894C288.939 247.691 289.458 248.691 289.816 249.688C290.179 250.687 290.35 251.727 290.358 252.722C290.37 253.219 290.384 253.708 290.356 254.189C290.346 254.67 290.318 255.142 290.266 255.604C289.908 259.316 288.761 262.375 287.542 264.677C286.313 266.989 285.006 268.567 284.083 269.579C283.623 270.091 283.241 270.449 282.982 270.688C282.725 270.928 282.587 271.044 282.587 271.044C282.587 271.044 282.706 270.907 282.952 270.657C283.201 270.409 283.572 270.041 284.02 269.522C284.92 268.497 286.199 266.909 287.397 264.601C288.586 262.302 289.701 259.26 290.032 255.583C290.081 255.125 290.106 254.657 290.113 254.181C290.139 253.705 290.122 253.221 290.107 252.73C290.093 251.751 289.923 250.75 289.564 249.778C289.213 248.81 288.7 247.846 287.919 247.099C287.526 246.736 287.067 246.431 286.548 246.276C286.024 246.131 285.464 246.172 284.933 246.328C283.864 246.679 283.092 247.672 282.614 248.749C282.159 249.851 281.888 251.07 281.881 252.322C281.852 254.828 282.79 257.43 284.498 259.521C285.35 260.566 286.403 261.484 287.62 262.161C288.835 262.839 290.21 263.272 291.634 263.449C294.484 263.798 297.547 263.155 300.145 261.576C302.761 260.023 304.821 257.465 305.903 254.467C307.017 251.484 307.22 248.094 306.475 244.87C306.283 244.066 306.067 243.254 305.667 242.549C305.278 241.845 304.653 241.27 303.868 241.124C303.093 240.961 302.248 241.152 301.555 241.572C300.854 241.986 300.33 242.661 299.992 243.421C299.31 244.956 299.313 246.756 299.623 248.432C299.948 250.125 300.739 251.724 301.795 253.111C303.653 255.536 306.4 257.274 309.357 257.72C312.321 258.195 315.348 257.177 317.602 255.35C319.877 253.532 321.464 250.923 321.966 248.16C322.045 247.816 322.083 247.469 322.101 247.119C322.136 246.771 322.157 246.423 322.129 246.076C322.127 245.379 322.045 244.694 321.821 244.052C321.602 243.417 321.258 242.812 320.743 242.433C320.232 242.051 319.549 241.949 318.964 242.187C318.374 242.414 317.889 242.899 317.602 243.464C317.306 244.028 317.256 244.689 317.363 245.322C317.593 246.594 318.38 247.718 319.312 248.591C321.182 250.375 323.775 251.22 326.212 251.098C328.67 250.995 330.927 249.766 332.407 248C333.92 246.254 334.717 244.013 334.683 241.869L334.693 241.923C334.456 241.305 333.775 240.979 333.112 241.056C332.455 241.1 331.801 241.403 331.378 241.885C330.925 242.352 330.83 243.041 330.977 243.657C331.113 244.279 331.497 244.821 331.958 245.244C332.908 246.09 334.184 246.449 335.382 246.297C336.587 246.182 337.702 245.728 338.736 245.24C342.85 243.148 346.406 241.34 349.321 239.857C352.227 238.385 354.491 237.237 356.045 236.45C356.808 236.069 357.394 235.776 357.804 235.572C358.204 235.378 358.414 235.288 358.414 235.288Z" fill="#263238"/>
<path d="M286.028 35.9618C286.028 36.0782 268.935 36.1719 247.854 36.1719C226.766 36.1719 209.676 36.0774 209.676 35.9618C209.676 35.8463 226.766 35.7517 247.854 35.7517C268.935 35.7509 286.028 35.8454 286.028 35.9618Z" fill="#E0E0E0"/>
<path d="M298.754 35.9618C298.754 36.0782 297.567 36.1719 296.103 36.1719C294.639 36.1719 293.452 36.0774 293.452 35.9618C293.452 35.8463 294.639 35.7517 296.103 35.7517C297.567 35.7509 298.754 35.8454 298.754 35.9618Z" fill="#E0E0E0"/>
<path d="M374.752 35.9618C374.752 36.0782 359.162 36.1719 339.936 36.1719C320.703 36.1719 305.116 36.0774 305.116 35.9618C305.116 35.8463 320.703 35.7517 339.936 35.7517C359.163 35.7509 374.752 35.8454 374.752 35.9618Z" fill="#E0E0E0"/>
<path d="M286.028 57.2041C286.028 57.3205 268.935 57.4142 247.854 57.4142C226.766 57.4142 209.676 57.3197 209.676 57.2041C209.676 57.0886 226.766 56.994 247.854 56.994C268.935 56.9932 286.028 57.0878 286.028 57.2041Z" fill="#E0E0E0"/>
<path d="M298.754 57.2041C298.754 57.3205 297.567 57.4142 296.103 57.4142C294.639 57.4142 293.452 57.3197 293.452 57.2041C293.452 57.0886 294.639 56.994 296.103 56.994C297.567 56.9932 298.754 57.0878 298.754 57.2041Z" fill="#E0E0E0"/>
<path d="M374.752 57.2041C374.752 57.3205 359.162 57.4142 339.936 57.4142C320.703 57.4142 305.116 57.3197 305.116 57.2041C305.116 57.0886 320.703 56.994 339.936 56.994C359.163 56.9932 374.752 57.0878 374.752 57.2041Z" fill="#E0E0E0"/>
<path d="M526.771 136.518C526.771 136.518 517.137 175.975 474.015 166.935C474.015 166.935 486.513 126.978 526.771 136.518Z" fill="#263238"/>
<path d="M505.937 196.271C505.937 196.271 486.141 225.786 453.437 205.376C453.437 205.376 475.736 176.312 505.937 196.271Z" fill="#263238"/>
<path d="M474.396 241.298C474.396 241.298 445.513 265.86 417.854 235.422C417.854 235.422 449.176 212.049 474.396 241.298Z" fill="#263238"/>
<path d="M443.81 145.835C443.81 145.835 475.843 161.226 460.297 196.504C460.297 196.504 428.355 178.57 443.81 145.835Z" fill="#263238"/>
<path d="M436.858 188.366C436.858 188.366 452.833 209.934 429.027 228.464C429.027 228.464 414.069 205.203 436.858 188.366Z" fill="#263238"/>
<path d="M510.948 90.3752C510.948 90.3752 514.622 122.357 480.079 127.48C480.079 127.48 478.397 94.3394 510.948 90.3752Z" fill="#263238"/>
<path d="M461.405 58.017C461.405 58.017 489.347 69.6865 477.211 102.431C477.211 102.431 449.213 88.4578 461.405 58.017Z" fill="#263238"/>
<path d="M444.542 104.744C444.542 104.744 481.537 108.966 478.279 149.226C478.279 149.226 440.499 142.457 444.542 104.744Z" fill="#263238"/>
<path d="M391.899 245.282C391.899 245.282 392.056 245.228 392.367 245.143C392.695 245.056 393.154 244.933 393.752 244.775C394.97 244.453 396.778 244.028 399.051 243.283C403.615 241.884 410.152 239.509 417.674 235.445C425.199 231.411 433.616 225.542 441.803 217.756C445.896 213.865 449.909 209.483 453.726 204.664C454.643 203.432 455.567 202.189 456.5 200.936C456.965 200.309 457.432 199.679 457.902 199.047C458.354 198.404 458.769 197.73 459.207 197.068C460.073 195.739 460.945 194.4 461.822 193.052C462.621 191.656 463.424 190.25 464.233 188.836C464.634 188.127 465.035 187.421 465.435 186.717C465.794 185.991 466.151 185.267 466.507 184.545C467.215 183.101 467.939 181.674 468.62 180.242C469.24 178.781 469.855 177.33 470.465 175.892C470.766 175.171 471.085 174.46 471.366 173.739C471.627 173.009 471.887 172.283 472.146 171.559C472.664 170.113 473.178 168.68 473.687 167.259C474.115 165.813 474.538 164.38 474.958 162.963C475.167 162.254 475.376 161.549 475.583 160.847C475.794 160.147 475.929 159.431 476.104 158.73C476.435 157.322 476.763 155.931 477.087 154.556C479.512 143.511 480.047 133.271 479.838 124.741C479.642 116.184 478.399 109.349 477.59 104.645C477.088 102.309 476.64 100.506 476.37 99.2765C476.235 98.6729 476.132 98.2083 476.057 97.8778C475.989 97.5619 475.964 97.3978 475.964 97.3978C475.964 97.3978 476.017 97.5546 476.098 97.8673C476.182 98.1954 476.299 98.6567 476.452 99.2563C476.748 100.48 477.222 102.279 477.75 104.614C478.61 109.315 479.9 116.156 480.135 124.733C480.383 133.282 479.877 143.555 477.466 154.639C477.143 156.018 476.818 157.414 476.488 158.827C476.313 159.531 476.178 160.25 475.968 160.953C475.762 161.656 475.553 162.364 475.344 163.075C474.925 164.498 474.502 165.936 474.075 167.388C473.566 168.813 473.052 170.252 472.534 171.703C472.275 172.429 472.015 173.159 471.753 173.891C471.471 174.615 471.151 175.328 470.85 176.052C470.239 177.496 469.623 178.951 469.002 180.418C468.32 181.856 467.593 183.287 466.883 184.737C466.525 185.461 466.167 186.187 465.807 186.916C465.406 187.623 465.003 188.332 464.6 189.043C463.789 190.462 462.982 191.873 462.181 193.274C461.299 194.626 460.424 195.969 459.554 197.303C459.115 197.967 458.698 198.643 458.243 199.288C457.772 199.922 457.302 200.554 456.835 201.183C455.899 202.44 454.969 203.687 454.047 204.923C450.216 209.753 446.183 214.143 442.07 218.039C433.842 225.835 425.379 231.697 417.815 235.709C410.252 239.751 403.684 242.089 399.098 243.443C396.814 244.165 394.997 244.565 393.772 244.86C393.169 245.001 392.706 245.109 392.376 245.187C392.063 245.257 391.899 245.282 391.899 245.282Z" fill="#263238"/>
<path d="M433.399 205.755C433.428 205.758 433.416 206.08 433.369 206.659C433.324 207.239 433.237 208.074 433.111 209.104C432.86 211.165 432.433 214.003 431.827 217.113C431.218 220.223 430.544 223.013 430.001 225.017C429.73 226.019 429.497 226.826 429.32 227.379C429.146 227.932 429.036 228.235 429.007 228.227C428.979 228.22 429.036 227.902 429.162 227.337C429.312 226.683 429.495 225.885 429.712 224.945C430.181 222.927 430.806 220.135 431.413 217.033C432.018 213.932 432.489 211.11 432.815 209.063C432.968 208.111 433.098 207.302 433.205 206.64C433.303 206.066 433.37 205.751 433.399 205.755Z" fill="#455A64"/>
<path d="M441.267 237.787C441.261 237.815 440.938 237.785 440.357 237.704C439.688 237.606 438.869 237.487 437.903 237.345C435.832 237.037 432.97 236.63 429.799 236.258C426.627 235.887 423.748 235.622 421.662 235.443C420.69 235.357 419.865 235.285 419.191 235.225C418.607 235.169 418.285 235.125 418.287 235.096C418.288 235.066 418.613 235.056 419.2 235.062C419.786 235.066 420.635 235.094 421.682 235.146C423.776 235.25 426.667 235.469 429.848 235.841C433.027 236.214 435.89 236.669 437.951 237.053C438.983 237.244 439.814 237.412 440.386 237.544C440.959 237.673 441.272 237.758 441.267 237.787Z" fill="#455A64"/>
<path d="M480.197 198.637C480.202 198.666 479.821 198.756 479.13 198.895C478.359 199.047 477.377 199.241 476.204 199.472C473.733 199.96 470.328 200.671 466.595 201.575C462.861 202.48 459.509 203.407 457.089 204.104C455.94 204.435 454.978 204.712 454.223 204.93C453.545 205.123 453.166 205.217 453.156 205.19C453.147 205.162 453.509 205.016 454.173 204.774C454.835 204.531 455.802 204.204 457.003 203.819C459.405 203.048 462.754 202.074 466.497 201.166C470.239 200.26 473.662 199.593 476.15 199.18C477.395 198.972 478.404 198.821 479.104 198.734C479.803 198.644 480.192 198.608 480.197 198.637Z" fill="#455A64"/>
<path d="M451.923 168.394C451.948 168.38 452.181 168.729 452.581 169.374C452.986 170.015 453.528 170.973 454.152 172.179C455.405 174.589 456.905 178.05 458.058 182.04C459.202 186.034 459.769 189.764 459.987 192.471C460.099 193.825 460.149 194.924 460.146 195.683C460.15 196.443 460.138 196.862 460.108 196.862C460.079 196.863 460.036 196.444 459.982 195.69C459.936 194.934 459.84 193.843 459.692 192.5C459.398 189.815 458.789 186.121 457.654 182.157C456.51 178.196 455.065 174.744 453.887 172.312C453.299 171.095 452.801 170.12 452.439 169.455C452.083 168.786 451.898 168.409 451.923 168.394Z" fill="#455A64"/>
<path d="M494.829 149.991C494.844 150.016 494.54 150.228 493.978 150.591C493.348 151.002 492.553 151.521 491.608 152.138C489.617 153.457 486.919 155.358 484.088 157.648C481.259 159.944 478.839 162.19 477.136 163.864C476.336 164.661 475.665 165.33 475.132 165.861C474.661 166.336 474.39 166.589 474.369 166.57C474.347 166.551 474.577 166.26 475.013 165.751C475.445 165.238 476.097 164.521 476.926 163.655C478.581 161.922 480.981 159.63 483.824 157.323C486.669 155.02 489.409 153.148 491.448 151.888C492.467 151.257 493.304 150.768 493.895 150.451C494.483 150.131 494.815 149.966 494.829 149.991Z" fill="#455A64"/>
<path d="M454.435 120.787C454.445 120.777 454.549 120.857 454.739 121.02C454.962 121.219 455.23 121.459 455.554 121.746C456.257 122.381 457.252 123.327 458.46 124.515C460.878 126.891 464.115 130.283 467.474 134.221C470.829 138.162 473.664 141.898 475.627 144.662C476.608 146.044 477.383 147.176 477.899 147.971C478.132 148.335 478.326 148.638 478.487 148.89C478.618 149.103 478.68 149.219 478.668 149.227C478.656 149.235 478.57 149.136 478.417 148.939C478.238 148.7 478.023 148.411 477.764 148.064C477.162 147.248 476.36 146.158 475.386 144.837C473.366 142.122 470.501 138.425 467.153 134.494C463.803 130.566 460.608 127.151 458.248 124.725C457.099 123.555 456.15 122.588 455.439 121.865C455.137 121.555 454.887 121.296 454.679 121.082C454.51 120.899 454.426 120.798 454.435 120.787Z" fill="#455A64"/>
<path d="M498.992 100.77C499.013 100.79 498.728 101.145 498.196 101.769C497.619 102.452 496.864 103.345 495.954 104.42C494.073 106.668 491.546 109.832 488.944 113.466C486.345 117.105 484.169 120.521 482.65 123.028C481.927 124.236 481.326 125.239 480.868 126.007C480.449 126.712 480.206 127.096 480.18 127.082C480.154 127.069 480.35 126.658 480.725 125.928C481.096 125.196 481.665 124.152 482.395 122.877C483.851 120.326 485.994 116.872 488.602 113.221C491.212 109.575 493.786 106.429 495.729 104.226C496.699 103.124 497.503 102.248 498.076 101.659C498.645 101.068 498.97 100.751 498.992 100.77Z" fill="#455A64"/>
<path d="M465.542 70.4081C465.569 70.3967 465.775 70.8145 466.124 71.5805C466.475 72.3457 466.962 73.4608 467.548 74.8466C468.721 77.6165 470.273 81.4732 471.867 85.7784C473.46 90.0852 474.793 94.0235 475.706 96.8896C476.162 98.323 476.52 99.4866 476.751 100.295C476.985 101.103 477.101 101.555 477.073 101.563C477.046 101.572 476.877 101.138 476.596 100.346C476.295 99.4825 475.9 98.3497 475.424 96.9833C474.44 94.1431 473.064 90.2258 471.473 85.9238C469.88 81.6243 468.375 77.7555 467.272 74.9589C466.744 73.6119 466.307 72.4952 465.973 71.6443C465.671 70.8581 465.516 70.4194 465.542 70.4081Z" fill="#455A64"/>
<path d="M42.9321 127.734C42.9321 127.734 52.0362 165.02 92.7851 156.478C92.7851 156.478 80.9749 118.719 42.9321 127.734Z" fill="#263238"/>
<path d="M62.6206 184.2C62.6206 184.2 81.3273 212.091 112.233 192.803C112.233 192.803 91.1602 165.338 62.6206 184.2Z" fill="#263238"/>
<path d="M92.4255 226.75C92.4255 226.75 119.719 249.962 145.856 221.197C145.856 221.197 116.258 199.109 92.4255 226.75Z" fill="#263238"/>
<path d="M121.329 136.539C121.329 136.539 91.0583 151.083 105.749 184.42C105.749 184.42 135.934 167.472 121.329 136.539Z" fill="#263238"/>
<path d="M127.899 176.729C127.899 176.729 112.803 197.111 135.299 214.622C135.299 214.622 149.435 192.64 127.899 176.729Z" fill="#263238"/>
<path d="M57.8849 84.1293C57.8849 84.1293 54.4128 114.352 87.0556 119.193C87.0556 119.193 88.6458 87.8753 57.8849 84.1293Z" fill="#263238"/>
<path d="M104.701 53.5518C104.701 53.5518 78.297 64.5789 89.7646 95.5224C89.7646 95.5224 116.223 82.3184 104.701 53.5518Z" fill="#263238"/>
<path d="M120.637 97.7081C120.637 97.7081 85.6762 101.697 88.7556 139.743C88.7556 139.743 124.458 133.347 120.637 97.7081Z" fill="#263238"/>
<path d="M178.047 233.104C178.047 233.104 177.885 233.079 177.573 233.012C177.247 232.939 176.788 232.836 176.192 232.702C174.981 232.42 173.183 232.042 170.916 231.37C166.366 230.11 159.829 227.99 152.189 224.349C148.354 222.565 144.29 220.325 140.072 217.693C135.838 215.082 131.54 211.932 127.248 208.348C122.964 204.755 118.72 200.672 114.716 196.084C113.744 194.913 112.763 193.732 111.774 192.541C110.822 191.321 109.913 190.052 108.969 188.795C108.5 188.164 108.03 187.531 107.558 186.896C107.126 186.233 106.691 185.567 106.256 184.9C105.396 183.559 104.485 182.235 103.652 180.853C102.065 178.042 100.414 175.308 99.0933 172.45C97.6315 169.662 96.4866 166.78 95.2939 163.979C93.1146 158.299 91.2707 152.706 90.0708 147.239C87.515 136.341 86.7433 126.216 86.9599 117.767C87.1724 109.302 88.3061 102.529 89.1957 97.8915C89.6813 95.5797 90.175 93.8093 90.4603 92.5989C90.6106 92.0074 90.7269 91.5517 90.8094 91.2276C90.8902 90.9198 90.9419 90.7646 90.9419 90.7646C90.9419 90.7646 90.9176 90.9271 90.8506 91.239C90.7778 91.5654 90.6752 92.0236 90.5427 92.6199C90.2841 93.836 89.8171 95.6104 89.3565 97.9238C88.517 102.563 87.4318 109.33 87.2573 117.772C87.0795 126.2 87.8794 136.293 90.4482 147.15C91.6537 152.596 93.5009 158.167 95.6769 163.826C96.8679 166.616 98.0105 169.487 99.4682 172.263C100.784 175.11 102.431 177.833 104.013 180.634C104.843 182.01 105.75 183.328 106.606 184.666C107.04 185.331 107.473 185.993 107.903 186.654C108.373 187.288 108.841 187.919 109.308 188.547C110.247 189.8 111.152 191.065 112.1 192.28C113.084 193.467 114.06 194.646 115.028 195.812C119.012 200.387 123.236 204.461 127.498 208.05C131.768 211.63 136.044 214.781 140.258 217.397C144.456 220.034 148.501 222.283 152.318 224.08C159.922 227.746 166.431 229.906 170.961 231.212C173.218 231.907 175.008 232.309 176.211 232.619C176.803 232.77 177.258 232.887 177.582 232.97C177.891 233.052 178.047 233.104 178.047 233.104Z" fill="#263238"/>
<path d="M131.167 193.162C131.196 193.159 131.261 193.456 131.353 193.997C131.456 194.63 131.58 195.393 131.726 196.286C132.036 198.219 132.482 200.885 133.054 203.816C133.628 206.747 134.218 209.386 134.658 211.293C134.859 212.176 135.032 212.93 135.174 213.555C135.292 214.091 135.344 214.391 135.316 214.398C135.287 214.406 135.182 214.121 135.016 213.597C134.848 213.074 134.627 212.312 134.369 211.365C133.853 209.473 133.216 206.836 132.64 203.897C132.067 200.958 131.666 198.275 131.431 196.328C131.313 195.354 131.231 194.565 131.19 194.017C131.148 193.469 131.138 193.165 131.167 193.162Z" fill="#455A64"/>
<path d="M123.733 223.432C123.727 223.403 124.023 223.321 124.564 223.197C125.105 223.071 125.89 222.91 126.864 222.729C128.813 222.364 131.518 221.933 134.523 221.58C137.529 221.229 140.261 221.024 142.24 220.928C143.23 220.879 144.032 220.854 144.586 220.852C145.14 220.848 145.447 220.859 145.449 220.888C145.451 220.917 145.146 220.961 144.595 221.015C143.951 221.073 143.173 221.143 142.261 221.224C140.29 221.395 137.569 221.648 134.571 221.998C131.575 222.35 128.87 222.734 126.913 223.022C126.006 223.153 125.233 223.265 124.593 223.357C124.044 223.432 123.737 223.46 123.733 223.432Z" fill="#455A64"/>
<path d="M86.9439 186.435C86.9487 186.407 87.3164 186.439 87.9782 186.522C88.6399 186.603 89.5942 186.745 90.7699 186.94C93.1221 187.328 96.3574 187.958 99.8942 188.813C103.432 189.671 106.596 190.593 108.865 191.325C109.999 191.69 110.913 192 111.539 192.231C112.165 192.461 112.507 192.6 112.498 192.628C112.489 192.656 112.129 192.568 111.489 192.387C110.767 192.18 109.86 191.919 108.779 191.61C106.492 190.953 103.323 190.079 99.7956 189.223C96.2685 188.37 93.051 187.697 90.7174 187.233C89.6144 187.014 88.6884 186.83 87.9523 186.683C87.2986 186.551 86.9398 186.464 86.9439 186.435Z" fill="#455A64"/>
<path d="M113.662 157.856C113.687 157.872 113.513 158.229 113.179 158.861C112.839 159.489 112.368 160.412 111.814 161.562C110.703 163.86 109.338 167.123 108.258 170.865C107.186 174.61 106.608 178.099 106.329 180.637C106.188 181.906 106.097 182.937 106.05 183.65C105.998 184.364 105.955 184.759 105.927 184.758C105.898 184.757 105.885 184.361 105.887 183.644C105.883 182.926 105.929 181.888 106.034 180.608C106.238 178.05 106.773 174.523 107.854 170.748C108.942 166.977 110.362 163.705 111.548 161.429C112.14 160.29 112.652 159.386 113.037 158.78C113.416 158.17 113.637 157.842 113.662 157.856Z" fill="#455A64"/>
<path d="M73.116 140.466C73.1306 140.441 73.4449 140.595 74.0024 140.896C74.5616 141.195 75.3534 141.656 76.3166 142.252C78.2446 143.44 80.8351 145.209 83.5242 147.385C86.2117 149.565 88.479 151.733 90.0418 153.372C90.8239 154.192 91.4397 154.87 91.8469 155.355C92.2574 155.838 92.4731 156.113 92.4521 156.133C92.4303 156.153 92.1734 155.914 91.7273 155.467C91.2175 154.96 90.5832 154.33 89.8309 153.582C88.2205 152.001 85.933 149.881 83.26 147.712C80.5854 145.547 78.0361 143.75 76.1566 142.502C75.2694 141.921 74.5204 141.431 73.9192 141.037C73.3883 140.694 73.1015 140.491 73.116 140.466Z" fill="#455A64"/>
<path d="M111.288 112.868C111.309 112.889 110.97 113.252 110.342 113.89C109.667 114.579 108.772 115.491 107.69 116.596C105.462 118.89 102.444 122.117 99.2786 125.828C96.1152 129.544 93.4075 133.036 91.4965 135.601C90.5778 136.844 89.819 137.872 89.2462 138.649C88.7161 139.37 88.4123 139.761 88.388 139.745C88.3638 139.729 88.6232 139.306 89.1112 138.556C89.5977 137.803 90.3281 136.733 91.2557 135.426C93.1085 132.812 95.7863 129.282 98.9579 125.556C102.132 121.835 105.193 118.63 107.479 116.387C108.621 115.263 109.562 114.372 110.228 113.773C110.892 113.17 111.268 112.847 111.288 112.868Z" fill="#455A64"/>
<path d="M69.1835 93.9532C69.2045 93.9338 69.5132 94.2319 70.053 94.7903C70.5952 95.3462 71.3555 96.1728 72.2734 97.2136C74.1109 99.2942 76.5447 102.265 79.0116 105.712C81.4761 109.163 83.501 112.427 84.8746 114.839C85.5631 116.045 86.0996 117.031 86.4495 117.725C86.8026 118.415 86.9852 118.804 86.9601 118.818C86.9343 118.832 86.7032 118.47 86.3064 117.804C85.8677 117.073 85.3005 116.127 84.6185 114.99C83.1818 112.623 81.1246 109.395 78.669 105.957C76.2101 102.522 73.8224 99.5326 72.0472 97.4075C71.1923 96.3942 70.4804 95.5514 69.931 94.9002C69.43 94.3087 69.1625 93.9726 69.1835 93.9532Z" fill="#455A64"/>
<path d="M100.792 65.261C100.819 65.2723 100.674 65.6884 100.389 66.4302C100.072 67.2415 99.6598 68.2951 99.1637 69.5637C98.1245 72.2068 96.7024 75.8639 95.1979 79.9267C93.6941 83.9919 92.3932 87.6935 91.4607 90.3761C91.0115 91.6617 90.6373 92.7299 90.3505 93.5517C90.0839 94.2999 89.923 94.7104 89.8956 94.7015C89.8681 94.6926 89.9756 94.266 90.1954 93.5016C90.4135 92.7372 90.7489 91.6366 91.1795 90.2816C92.0401 87.5723 93.299 83.8505 94.8044 79.7796C96.3105 75.7112 97.7787 72.067 98.8889 69.4506C99.4441 68.1416 99.9054 67.0879 100.238 66.3656C100.57 65.644 100.765 65.2497 100.792 65.261Z" fill="#455A64"/>
<path d="M178.009 103.301C183.898 104.064 184.775 110.106 186.957 115.167C189.138 120.228 193.315 124.744 196.526 129.277C198.224 131.673 200.538 133.825 201.151 136.671C201.793 139.647 200.436 142.724 199.799 145.757C199.16 148.791 199.606 152.495 202.515 153.832C201.889 154.585 200.843 155.026 199.847 154.957C199.869 156.352 198.5 157.563 197.032 157.96C195.564 158.359 194.025 158.139 192.545 157.917C192.942 158.845 192.099 159.963 191.058 160.329C190.016 160.696 188.878 160.518 187.819 160.3C186.759 160.083 185.66 159.832 184.581 160.066C182.187 160.587 180.739 163.287 178.317 163.636C174.991 164.115 172.593 159.86 169.312 160.603C167.768 160.953 166.736 162.302 165.468 163.221C164.201 164.139 162.062 163.905 161.462 162.587C159.701 164.807 156.975 166.959 154.107 167.551C154.526 166.561 154.302 165.39 153.551 164.641C152.011 165.907 150.079 166.755 148.078 167.043C149.32 165.889 150.006 164.246 149.906 162.665C148.59 163.723 146.706 164.129 145.09 163.703C148.053 162.02 148.342 158.086 147.291 155.14C146.241 152.193 144.238 149.548 143.845 146.44C143.418 143.057 147.397 138.774 146.62 135.449C145.422 130.328 145.517 127.208 145.723 122.428C145.858 119.298 147.239 116.521 148.614 113.603C150.354 109.914 152.723 107.218 156.452 105.114C159.578 103.351 164.086 101.737 167.672 101.658C174.049 101.519 176.65 101.317 181.699 104.695" fill="#263238"/>
<path d="M158.338 145.018C156.357 140.894 154.388 136.735 153.146 132.331C151.904 127.928 151.412 123.23 152.42 118.767C152.573 118.091 154.034 113.494 154.727 113.469C155.222 113.452 154.506 117.653 154.811 118.045C157.715 121.779 159.012 126.566 159.263 131.291C159.514 136.015 159.106 140.35 158.338 145.018Z" fill="#263238"/>
<path d="M186.248 183.723C179.199 184.519 162.229 177.115 161.279 170.085L155.565 127.777C153.668 116.46 158.673 105.923 170.038 104.34L171.097 104.256C181.756 103.4 191.282 110.872 192.991 121.429C194.581 131.244 196.21 142.108 196.57 147.414C197.315 158.4 186.474 160.987 186.474 160.987C186.45 160.99 186.753 163.524 187.15 166.731C188.044 173.934 186.9 181.835 186.248 183.723Z" fill="#FFBE9D"/>
<path d="M186.475 160.987C186.475 160.987 179.59 161.948 171.847 157.909C171.847 157.909 175.947 165.884 186.819 164.017L186.475 160.987Z" fill="#EB996E"/>
<path d="M188.904 130.979C189 131.804 188.38 132.566 187.52 132.681C186.662 132.797 185.887 132.223 185.791 131.397C185.695 130.572 186.314 129.809 187.173 129.694C188.034 129.578 188.809 130.153 188.904 130.979Z" fill="#263238"/>
<path d="M191.046 126.454C190.869 126.674 189.611 125.891 187.924 126.031C186.238 126.147 185.069 127.113 184.871 126.921C184.774 126.837 184.942 126.452 185.449 126.016C185.949 125.583 186.823 125.131 187.874 125.051C188.925 124.972 189.84 125.288 190.38 125.643C190.929 126 191.134 126.355 191.046 126.454Z" fill="#263238"/>
<path d="M173.049 132.22C173.144 133.045 172.525 133.807 171.664 133.922C170.806 134.038 170.031 133.465 169.935 132.639C169.84 131.814 170.459 131.051 171.318 130.936C172.178 130.819 172.953 131.395 173.049 132.22Z" fill="#263238"/>
<path d="M174.545 128.172C174.366 128.392 173.107 127.609 171.422 127.749C169.736 127.864 168.568 128.831 168.367 128.639C168.27 128.555 168.437 128.171 168.947 127.735C169.446 127.302 170.32 126.85 171.371 126.769C172.422 126.69 173.337 127.006 173.876 127.361C174.426 127.717 174.633 128.073 174.545 128.172Z" fill="#263238"/>
<path d="M181.634 140.647C181.619 140.551 182.653 140.286 184.334 139.932C184.762 139.853 185.162 139.735 185.211 139.435C185.288 139.116 185.07 138.666 184.82 138.182C184.332 137.173 183.82 136.114 183.284 135.005C181.14 130.478 179.552 126.741 179.735 126.656C179.918 126.572 181.804 130.172 183.947 134.7C184.465 135.817 184.96 136.882 185.431 137.901C185.633 138.378 185.958 138.91 185.79 139.574C185.7 139.905 185.403 140.164 185.132 140.26C184.863 140.367 184.621 140.391 184.409 140.421C182.708 140.649 181.649 140.742 181.634 140.647Z" fill="#263238"/>
<path d="M173.889 121.88C173.694 122.33 172.021 122.008 170.025 122.125C168.027 122.202 166.393 122.683 166.156 122.256C166.051 122.052 166.356 121.637 167.029 121.231C167.697 120.827 168.745 120.468 169.942 120.409C171.14 120.352 172.218 120.608 172.921 120.946C173.629 121.284 173.973 121.667 173.889 121.88Z" fill="#263238"/>
<path d="M190.331 122.544C190.018 122.96 188.608 122.693 186.957 122.831C185.303 122.921 183.936 123.378 183.576 123.009C183.417 122.829 183.599 122.424 184.176 122.004C184.742 121.585 185.72 121.195 186.856 121.116C187.992 121.038 189.007 121.291 189.618 121.629C190.239 121.966 190.468 122.342 190.331 122.544Z" fill="#263238"/>
<path d="M157.114 135.832C156.92 135.766 149.394 134.207 150.235 141.691C151.077 149.175 158.417 146.787 158.406 146.57C158.396 146.354 157.114 135.832 157.114 135.832Z" fill="#FFBE9D"/>
<path d="M155.802 143.992C155.766 143.972 155.681 144.098 155.473 144.224C155.269 144.347 154.907 144.456 154.501 144.353C153.677 144.152 152.871 142.971 152.683 141.627C152.587 140.948 152.657 140.283 152.838 139.719C153.005 139.145 153.316 138.724 153.706 138.608C154.092 138.472 154.401 138.678 154.516 138.879C154.64 139.077 154.609 139.231 154.65 139.24C154.673 139.256 154.796 139.096 154.702 138.794C154.654 138.648 154.547 138.482 154.354 138.358C154.159 138.232 153.886 138.188 153.612 138.249C153.039 138.354 152.579 138.943 152.38 139.562C152.15 140.188 152.056 140.937 152.163 141.7C152.38 143.202 153.311 144.527 154.428 144.718C154.97 144.796 155.391 144.587 155.598 144.385C155.808 144.174 155.829 144.002 155.802 143.992Z" fill="#EB996E"/>
<path d="M186.651 109.622C187.779 108.808 183.673 105.33 180.535 104.342C175.794 102.849 168.779 102.426 164.778 104.104C159.961 106.124 156.118 109.11 154.165 113.954C152.212 118.798 151.912 124.203 152.687 129.369C152.923 130.945 153.287 132.574 154.295 133.809C155.54 135.335 157.67 136.133 157.859 138.424C157.928 139.261 158.268 140.074 158.913 140.612C160.457 141.902 161.965 140.331 162.567 138.867C163.855 135.739 163.614 132.221 163.351 128.848C163.164 126.451 162.966 124.004 162.015 121.795C161.498 120.593 160.768 119.487 160.319 118.258C159.869 117.029 159.733 115.59 160.395 114.461C160.503 114.277 160.689 114.04 160.928 113.772C162.819 111.659 165.716 110.745 168.485 111.361C172.875 112.34 180.335 113.692 182.039 112.035C184.492 109.652 184.975 108.233 184.975 108.233L186.651 109.622Z" fill="#263238"/>
<path d="M177.13 142.111C177.03 142.138 177.019 142.553 177.241 143.181C177.45 143.804 177.998 144.642 178.858 145.212C179.707 145.792 180.574 146.061 181.193 146.209C181.817 146.353 182.216 146.37 182.25 146.268C182.285 146.162 181.942 145.955 181.382 145.681C180.824 145.404 180.045 145.066 179.309 144.56C177.807 143.577 177.364 142.028 177.13 142.111Z" fill="#263238"/>
<path d="M157.356 136.807C157.418 136.938 157.479 137.075 157.54 137.227C157.54 137.227 157.471 137.078 157.356 136.807Z" fill="#FF725E"/>
<path d="M154.793 135.659C154.793 135.659 156.049 134.004 157.357 136.807C155.798 133.136 145.428 106.611 173.857 103.111C173.857 103.111 163.59 101.299 157.394 106.406C157.394 106.406 144.81 113.935 154.793 135.659Z" fill="#455A64"/>
<path d="M209.154 269.58L143.077 270.48C143.077 270.48 124.598 262.748 119.521 262.539C114.444 262.331 104.368 262.977 99.706 270.48C94.8877 278.235 94.2147 291.916 109.063 301.86C123.522 311.541 189.644 320.489 198.708 319.665L215.416 297.238C215.416 297.238 215.592 278.857 215.416 277.982C215.241 277.106 212.441 269.229 212.441 269.229L209.154 269.58Z" fill="#263238"/>
<path d="M169.599 300.608L135.363 313.325L150.966 356C154.952 354.26 155.064 329.19 155.064 329.19L177.334 321.942L169.599 300.608Z" fill="#FF725E"/>
<g opacity="0.6">
<path d="M152.088 315.317C151.559 314.574 150.423 314.343 149.658 314.84C148.894 315.337 148.649 316.491 149.164 317.244C149.678 317.996 151.035 318.315 151.74 317.737C152.443 317.157 152.657 315.786 151.977 315.179" fill="white"/>
</g>
<path d="M135.363 313.325L138.818 312.042L152.515 353.523C152.515 353.523 152.384 355.726 150.966 356L135.363 313.325Z" fill="#263238"/>
<path d="M155.533 329.801C155.322 329.871 154.847 328.863 153.802 328.083C152.777 327.275 151.681 327.077 151.694 326.854C151.664 326.648 153.024 326.503 154.273 327.47C155.529 328.426 155.742 329.777 155.533 329.801Z" fill="#263238"/>
<path d="M155.319 334.954C155.135 335.075 154.45 334.303 153.31 333.917C152.182 333.498 151.163 333.668 151.096 333.458C150.992 333.273 152.16 332.684 153.568 333.189C154.981 333.683 155.516 334.877 155.319 334.954Z" fill="#263238"/>
<path d="M150.891 339.456C150.777 339.283 151.713 338.612 153.049 338.73C154.388 338.838 155.197 339.656 155.056 339.808C154.927 339.988 154.084 339.579 152.985 339.499C151.888 339.393 150.988 339.655 150.891 339.456Z" fill="#263238"/>
<path d="M160.426 327.586C160.205 327.569 160.142 326.508 159.632 325.359C159.144 324.199 158.414 323.428 158.553 323.254C158.66 323.078 159.758 323.691 160.34 325.052C160.933 326.409 160.627 327.629 160.426 327.586Z" fill="#263238"/>
<path d="M165.117 324.719C165.032 324.753 164.602 323.976 164.346 322.577C164.22 321.881 164.153 321.031 164.216 320.09C164.248 319.62 164.313 319.128 164.418 318.625C164.472 318.382 164.515 318.103 164.684 317.796C164.818 317.485 165.322 317.152 165.758 317.295C166.166 317.393 166.449 317.728 166.569 318.033C166.694 318.344 166.724 318.622 166.751 318.875C166.81 319.392 166.815 319.896 166.781 320.371C166.708 321.322 166.481 322.156 166.207 322.814C165.653 324.139 164.998 324.762 164.931 324.706C164.828 324.636 165.304 323.916 165.693 322.632C165.885 321.992 166.04 321.207 166.07 320.333C166.082 319.896 166.063 319.437 166 318.967C165.954 318.472 165.815 318.086 165.572 318.044C165.48 318.029 165.448 318.036 165.35 318.178C165.264 318.32 165.211 318.547 165.156 318.786C165.048 319.254 164.973 319.712 164.923 320.151C164.826 321.031 164.834 321.835 164.887 322.507C164.994 323.856 165.231 324.682 165.117 324.719Z" fill="#263238"/>
<path d="M164.72 324.557C164.661 324.495 165.256 323.809 166.578 323.238C167.234 322.959 168.072 322.731 169.025 322.674C169.501 322.649 170.005 322.667 170.521 322.745C171.035 322.841 171.711 322.939 172.099 323.714C172.269 324.13 172.067 324.602 171.829 324.824C171.591 325.07 171.355 325.189 171.126 325.33C170.656 325.591 170.164 325.759 169.687 325.857C168.729 326.055 167.838 325.96 167.146 325.751C165.735 325.322 165.167 324.543 165.232 324.5C165.311 324.392 165.979 324.972 167.275 325.221C167.914 325.343 168.707 325.371 169.53 325.162C169.94 325.06 170.357 324.901 170.751 324.672C171.18 324.439 171.484 324.135 171.376 323.983C171.301 323.769 170.828 323.533 170.403 323.491C169.94 323.412 169.485 323.381 169.05 323.385C168.181 323.4 167.4 323.554 166.766 323.752C165.491 324.151 164.793 324.659 164.72 324.557Z" fill="#263238"/>
<path d="M197.839 295.335L230.97 310.702L212.061 352.019C208.226 349.971 210.083 324.969 210.083 324.969L188.452 315.994L197.839 295.335Z" fill="#FF725E"/>
<g opacity="0.6">
<path d="M214.14 311.374C214.725 310.675 215.876 310.534 216.599 311.089C217.322 311.644 217.476 312.814 216.904 313.524C216.332 314.234 214.954 314.445 214.298 313.813C213.642 313.18 213.537 311.796 214.262 311.244" fill="white"/>
</g>
<path d="M230.97 310.702L227.626 309.15L210.713 349.427C210.713 349.427 210.672 351.633 212.062 352.019L230.97 310.702Z" fill="#263238"/>
<path d="M209.566 325.543C209.771 325.629 210.324 324.661 211.427 323.966C212.512 323.241 213.62 323.129 213.625 322.907C213.671 322.703 212.327 322.452 211.006 323.318C209.679 324.172 209.361 325.502 209.566 325.543Z" fill="#263238"/>
<path d="M209.376 330.697C209.55 330.833 210.293 330.116 211.459 329.821C212.617 329.492 213.619 329.741 213.703 329.537C213.821 329.362 212.703 328.681 211.259 329.076C209.813 329.456 209.185 330.604 209.376 330.697Z" fill="#263238"/>
<path d="M213.436 335.532C213.563 335.368 212.684 334.626 211.342 334.639C209.999 334.642 209.128 335.394 209.257 335.556C209.371 335.746 210.243 335.405 211.346 335.411C212.447 335.392 213.324 335.723 213.436 335.532Z" fill="#263238"/>
<path d="M204.864 322.951C205.086 322.95 205.231 321.897 205.831 320.792C206.408 319.675 207.196 318.963 207.072 318.779C206.98 318.595 205.836 319.12 205.149 320.431C204.451 321.737 204.66 322.977 204.864 322.951Z" fill="#263238"/>
<path d="M200.412 319.723C200.495 319.764 200.984 319.024 201.349 317.649C201.529 316.965 201.664 316.123 201.674 315.18C201.679 314.709 201.653 314.213 201.588 313.703C201.552 313.456 201.533 313.174 201.387 312.855C201.278 312.535 200.802 312.163 200.356 312.272C199.941 312.338 199.633 312.649 199.489 312.944C199.34 313.245 199.288 313.519 199.241 313.769C199.142 314.28 199.098 314.781 199.094 315.257C199.091 316.211 199.252 317.06 199.473 317.739C199.922 319.104 200.526 319.776 200.596 319.725C200.705 319.664 200.287 318.909 200 317.597C199.858 316.944 199.766 316.15 199.805 315.276C199.827 314.839 199.882 314.383 199.982 313.92C200.067 313.43 200.234 313.056 200.481 313.033C200.574 313.026 200.605 313.035 200.692 313.184C200.767 313.333 200.801 313.563 200.837 313.806C200.908 314.281 200.947 314.744 200.962 315.185C200.989 316.07 200.918 316.871 200.813 317.537C200.602 318.873 200.301 319.677 200.412 319.723Z" fill="#263238"/>
<path d="M200.821 319.593C200.885 319.536 200.345 318.805 199.072 318.133C198.44 317.803 197.624 317.51 196.677 317.378C196.205 317.315 195.701 317.294 195.18 317.331C194.661 317.387 193.979 317.432 193.531 318.173C193.329 318.574 193.492 319.06 193.713 319.301C193.93 319.566 194.157 319.702 194.375 319.861C194.822 320.157 195.3 320.365 195.768 320.5C196.707 320.772 197.603 320.747 198.31 320.594C199.75 320.277 200.377 319.546 200.315 319.497C200.245 319.383 199.534 319.908 198.222 320.055C197.576 320.128 196.783 320.093 195.979 319.82C195.577 319.685 195.174 319.494 194.8 319.235C194.391 318.969 194.112 318.643 194.232 318.499C194.323 318.292 194.814 318.094 195.242 318.085C195.709 318.043 196.165 318.048 196.598 318.086C197.464 318.169 198.23 318.383 198.846 318.631C200.083 319.127 200.74 319.689 200.821 319.593Z" fill="#263238"/>
<path d="M212.44 269.23C212.44 269.23 240.974 258.573 251.477 259.952C257.35 260.723 266.531 265.203 267.232 272.731C267.933 280.258 266.095 290.327 255.942 295.229C245.789 300.13 205.267 318.315 195.638 321.116C186.011 323.916 162.006 330.475 162.006 330.475L152.885 304.487C152.885 304.487 202.638 287.26 205.264 285.335C207.89 283.409 214.541 280.783 214.541 280.783L212.44 269.23Z" fill="#263238"/>
<path d="M113.25 272.763C113.252 272.768 113.319 272.751 113.448 272.712C113.593 272.668 113.782 272.611 114.021 272.538C114.524 272.386 115.269 272.169 116.241 271.937C117.212 271.71 118.409 271.452 119.817 271.315C121.224 271.176 122.843 271.169 124.618 271.322C126.391 271.478 128.328 271.798 130.329 272.41C131.327 272.717 132.345 273.091 133.34 273.585C134.348 274.076 135.384 274.582 136.446 275.101C140.715 277.141 145.481 279.23 150.559 281.236C160.727 285.31 170.487 287.243 177.445 288.824C180.936 289.597 183.759 290.232 185.704 290.695C186.662 290.922 187.413 291.1 187.944 291.226C188.188 291.281 188.381 291.325 188.528 291.358C188.66 291.386 188.729 291.397 188.73 291.392C188.732 291.388 188.666 291.365 188.536 291.327C188.391 291.286 188.2 291.232 187.96 291.165C187.451 291.03 186.702 290.82 185.733 290.579C183.795 290.08 180.979 289.412 177.493 288.612C170.544 286.976 160.81 285.012 150.672 280.949C145.601 278.946 140.837 276.868 136.568 274.845C135.505 274.331 134.467 273.829 133.46 273.343C132.446 272.844 131.413 272.471 130.402 272.166C128.377 271.559 126.423 271.249 124.636 271.105C122.847 270.965 121.217 270.987 119.799 271.145C118.379 271.299 117.181 271.575 116.211 271.822C115.241 272.072 114.5 272.309 114.002 272.48C113.766 272.565 113.58 272.632 113.438 272.683C113.311 272.731 113.248 272.758 113.25 272.763Z" fill="#455A64"/>
<path d="M114.751 269.002C114.76 269.051 115.619 268.896 117.016 268.746C118.413 268.594 120.353 268.48 122.493 268.587C124.633 268.7 126.552 269.012 127.925 269.306C129.3 269.6 130.138 269.842 130.153 269.794C130.16 269.774 129.956 269.693 129.583 269.563C129.209 269.431 128.661 269.268 127.975 269.094C126.604 268.743 124.67 268.393 122.508 268.279C120.348 268.17 118.387 268.321 116.989 268.53C116.289 268.633 115.726 268.738 115.341 268.832C114.957 268.921 114.747 268.981 114.751 269.002Z" fill="#455A64"/>
<path d="M224.444 276.777C224.477 276.82 225.268 276.207 226.635 275.36C228 274.512 229.971 273.471 232.282 272.652C234.597 271.839 236.786 271.411 238.38 271.216C239.976 271.017 240.975 270.998 240.974 270.944C240.974 270.923 240.724 270.91 240.271 270.906C239.819 270.898 239.163 270.927 238.356 270.999C236.743 271.142 234.521 271.539 232.18 272.362C229.842 273.19 227.863 274.275 226.517 275.177C225.843 275.627 225.315 276.016 224.967 276.307C224.617 276.594 224.431 276.761 224.444 276.777Z" fill="#455A64"/>
<path d="M210.125 315.539C210.125 315.539 210.048 315.564 209.902 315.624C209.748 315.688 209.533 315.778 209.254 315.895C208.679 316.127 207.849 316.521 206.733 316.95C204.51 317.832 201.226 319.04 197.014 320.426C188.585 323.18 176.469 326.689 161.971 330.34L162.135 330.428C159.433 322.927 156.451 314.651 153.314 305.943L153.228 306.137C156.727 304.7 160.411 303.188 164.153 301.652C188.233 291.742 209.873 282.835 224.6 276.774L224.62 276.766L224.634 276.75C227.094 274.145 229.358 271.851 231.481 269.998C233.604 268.147 235.555 266.718 237.219 265.674C238.876 264.614 240.243 263.945 241.157 263.478C241.617 263.263 241.968 263.099 242.215 262.984C242.452 262.872 242.57 262.807 242.57 262.807C242.57 262.807 242.444 262.853 242.203 262.956C241.954 263.065 241.597 263.221 241.132 263.424C240.209 263.876 238.83 264.53 237.16 265.578C235.481 266.609 233.513 268.031 231.374 269.876C229.235 271.721 226.955 274.012 224.485 276.607L224.52 276.583C209.784 282.621 188.13 291.494 164.035 301.366C160.293 302.903 156.611 304.416 153.112 305.853L152.977 305.909L153.026 306.046C156.172 314.75 159.162 323.024 161.872 330.522L161.915 330.641L162.036 330.61C176.536 326.933 188.645 323.386 197.064 320.583C201.272 319.174 204.551 317.94 206.764 317.031C207.876 316.59 208.702 316.182 209.271 315.936C209.547 315.81 209.758 315.713 209.91 315.644C210.054 315.578 210.125 315.539 210.125 315.539Z" fill="#455A64"/>
<path d="M139.598 178.293C139.598 178.293 131.383 183.025 129.718 188.586C128.707 191.962 121.043 235.155 119.831 243.673C118.607 252.272 121.176 258.499 124.808 261.324C128.44 264.149 139.451 267.914 139.451 267.914L154.94 272.931L159.38 261.631L144.635 240.45L146.062 226.181L139.598 178.293Z" fill="#FF725E"/>
<path d="M155.748 170.83L160.87 167.051C160.87 167.051 167.546 173.883 175.214 173.076C182.881 172.269 187.423 166.4 187.423 166.4L210.289 171.057C211.823 171.365 214.621 172.334 217.297 176.156C220.282 180.422 234.431 199.335 234.431 199.335H244.341C247.072 199.335 249.581 200.845 250.851 203.262C252.543 206.482 254.573 210.79 254.376 212.575C254.04 215.591 254.622 223.875 250.576 226.462C249.293 227.282 244.701 229.742 241.138 229.575C235.881 229.328 229.776 226.589 226.258 224.13C223.279 222.047 216.351 214.846 213.686 212.036L213.689 212.08L211.978 272.067L152.024 270.359L139.599 178.294C139.598 178.293 155.142 170.83 155.748 170.83Z" fill="#FF725E"/>
<path d="M213.898 186.903C213.813 186.902 213.657 194.338 213.548 203.508C213.44 212.682 213.421 220.118 213.506 220.119C213.591 220.12 213.748 212.686 213.856 203.512C213.964 194.342 213.983 186.905 213.898 186.903Z" fill="#263238"/>
<path d="M132.34 235.396C132.337 235.427 132.848 235.478 133.755 235.65C134.662 235.815 135.957 236.174 137.467 236.832C138.98 237.483 140.676 238.496 142.41 239.818C144.143 241.144 145.898 242.79 147.617 244.633C149.334 246.484 150.897 248.316 152.369 249.942C153.838 251.57 155.217 252.992 156.453 254.102C157.686 255.215 158.753 256.039 159.523 256.558C159.899 256.83 160.215 257.007 160.42 257.139C160.628 257.267 160.74 257.329 160.746 257.32C160.752 257.311 160.651 257.231 160.454 257.088C160.26 256.939 159.957 256.747 159.593 256.461C158.848 255.914 157.809 255.069 156.601 253.942C155.39 252.817 154.035 251.387 152.58 249.752C151.123 248.12 149.565 246.281 147.843 244.423C146.114 242.57 144.34 240.917 142.582 239.592C140.823 238.27 139.096 237.266 137.553 236.632C136.014 235.992 134.697 235.663 133.776 235.533C133.319 235.442 132.955 235.44 132.713 235.411C132.468 235.39 132.341 235.385 132.34 235.396Z" fill="#263238"/>
<path d="M130.983 231.332C130.975 231.388 131.891 231.514 133.319 231.91C134.747 232.303 136.677 233.024 138.621 234.177C140.562 235.337 142.114 236.691 143.139 237.76C144.168 238.827 144.714 239.572 144.759 239.539C144.776 239.527 144.653 239.332 144.412 238.989C144.177 238.644 143.798 238.169 143.298 237.612C142.304 236.493 140.748 235.091 138.778 233.913C136.805 232.742 134.831 232.042 133.374 231.7C132.645 231.527 132.048 231.42 131.632 231.377C131.216 231.328 130.986 231.311 130.983 231.332Z" fill="#263238"/>
<g opacity="0.3">
<path d="M242.568 220.803C239.395 221.668 235.583 217.102 232.7 214.244C231.201 212.758 229.642 211.172 229.09 209.134C228.633 207.451 228.932 205.634 229.589 204.018C230.245 202.402 230.71 201.355 231.699 199.919C231.433 202.383 230.827 206.158 231.656 209.255C232.347 211.837 233.983 213.893 235.719 215.842C237.556 217.905 239.729 220.07 242.568 220.803Z" fill="black"/>
</g>
<path d="M229 218.191C229.059 218.172 228.691 217.145 228.394 215.424C228.238 214.565 228.137 213.529 228.103 212.378C228.088 211.226 228.154 209.959 228.354 208.644C228.569 207.331 228.897 206.105 229.265 205.013C229.653 203.928 230.069 202.975 230.482 202.205C231.294 200.659 231.961 199.796 231.91 199.76C231.893 199.747 231.721 199.957 231.422 200.349C231.269 200.543 231.092 200.786 230.907 201.084C230.721 201.38 230.492 201.709 230.289 202.101C229.848 202.866 229.405 203.823 228.997 204.918C228.609 206.019 228.267 207.263 228.049 208.595C227.845 209.929 227.788 211.217 227.817 212.385C227.868 213.553 227.994 214.6 228.178 215.463C228.25 215.898 228.366 216.281 228.453 216.621C228.535 216.961 228.63 217.248 228.715 217.479C228.88 217.945 228.979 218.197 229 218.191Z" fill="#263238"/>
<path d="M184.925 168.718C184.884 168.798 185.587 169.206 186.322 169.867C187.063 170.521 187.55 171.171 187.625 171.121C187.695 171.082 187.304 170.324 186.527 169.636C185.754 168.945 184.956 168.643 184.925 168.718Z" fill="#263238"/>
<path d="M178.686 172.342C178.621 172.407 179.225 173.055 179.71 174.012C180.205 174.963 180.38 175.831 180.471 175.816C180.549 175.813 180.506 174.877 179.984 173.871C179.47 172.861 178.734 172.28 178.686 172.342Z" fill="#263238"/>
<path d="M168.005 176.104C168.09 176.122 168.333 175.302 168.691 174.316C169.045 173.327 169.381 172.54 169.303 172.5C169.231 172.461 168.764 173.201 168.402 174.211C168.036 175.22 167.924 176.088 168.005 176.104Z" fill="#263238"/>
<path d="M161.131 172.854C161.222 172.874 161.457 171.828 162.133 170.724C162.797 169.611 163.616 168.919 163.555 168.848C163.516 168.781 162.57 169.395 161.869 170.565C161.16 171.727 161.054 172.851 161.131 172.854Z" fill="#263238"/>
<path d="M141.391 192.281C141.307 192.292 142.321 200.485 143.657 210.579C144.994 220.676 146.145 228.85 146.229 228.84C146.313 228.828 145.298 220.637 143.962 210.539C142.626 200.445 141.475 192.269 141.391 192.281Z" fill="#263238"/>
<path d="M231.234 205.547C231.213 205.548 231.221 205.848 231.252 206.394C231.257 206.669 231.305 206.999 231.375 207.381C231.408 207.575 231.443 207.779 231.479 207.994C231.524 208.209 231.591 208.433 231.65 208.67C231.872 209.624 232.3 210.711 232.832 211.89C233.41 213.045 234.123 214.281 235.034 215.467C235.957 216.642 236.954 217.669 237.963 218.483C238.992 219.267 239.984 219.904 240.903 220.257C241.13 220.35 241.342 220.448 241.55 220.523C241.76 220.582 241.961 220.637 242.151 220.691C242.335 220.741 242.51 220.788 242.674 220.833C242.836 220.868 242.99 220.876 243.125 220.896C243.669 220.96 243.968 220.984 243.97 220.963C243.985 220.88 242.749 220.857 240.991 220.058C240.102 219.688 239.142 219.044 238.142 218.263C237.16 217.451 236.188 216.436 235.279 215.28C234.382 214.113 233.673 212.899 233.088 211.767C232.551 210.612 232.106 209.547 231.861 208.613C231.321 206.755 231.305 205.541 231.234 205.547Z" fill="#263238"/>
<g opacity="0.3">
<path d="M143.319 274.117C140.777 272.888 140.199 269.591 139.939 266.779C139.179 258.539 138.419 250.298 137.659 242.058C137.302 238.184 137.127 233.76 139.86 230.991C142.355 228.461 146.32 228.31 149.873 228.32C171.813 228.384 191.187 229.024 213.126 229.088L212.009 267.465L143.319 274.117Z" fill="black"/>
</g>
<path d="M222.583 235.033L220.247 279.544C220.157 281.26 218.723 282.605 216.985 282.604L146.082 282.728C144.34 282.727 142.905 281.375 142.82 279.656L140.114 235.901C140.024 234.084 141.317 231.666 143.158 231.63L219.255 231.638C221.151 231.6 222.681 233.161 222.583 235.033Z" fill="#E0E0E0"/>
<path d="M222.583 235.033C222.583 235.033 222.589 234.977 222.591 234.867C222.6 234.755 222.589 234.59 222.564 234.371C222.501 233.945 222.317 233.273 221.724 232.637C221.43 232.324 221.036 232.023 220.538 231.83C220.044 231.621 219.445 231.575 218.825 231.592C217.576 231.588 216.135 231.583 214.514 231.577C208.021 231.565 198.636 231.547 187.042 231.525C175.442 231.515 161.632 231.503 146.298 231.488C145.339 231.487 144.375 231.487 143.405 231.487C142.921 231.465 142.367 231.584 141.94 231.861C141.501 232.13 141.144 232.507 140.858 232.923C140.295 233.762 139.961 234.761 139.968 235.794C140.027 236.786 140.086 237.784 140.145 238.787C140.391 242.793 140.642 246.884 140.899 251.047C141.413 259.375 141.946 267.997 142.49 276.828L142.593 278.482C142.639 279.037 142.632 279.57 142.729 280.149C142.94 281.29 143.794 282.262 144.868 282.659C145.397 282.871 146.002 282.9 146.532 282.881L148.163 282.878C149.248 282.876 150.329 282.874 151.407 282.872C155.717 282.863 159.963 282.855 164.137 282.847C172.482 282.829 180.532 282.813 188.2 282.796C195.869 282.778 203.155 282.761 209.976 282.744C211.681 282.74 213.357 282.735 215.002 282.731C215.413 282.73 215.823 282.728 216.23 282.728C216.637 282.72 217.041 282.745 217.462 282.689C218.291 282.577 219.062 282.144 219.588 281.514C220.123 280.892 220.386 280.056 220.379 279.274C220.418 278.5 220.458 277.734 220.497 276.976C220.574 275.46 220.651 273.978 220.725 272.53C221.313 260.951 221.788 251.58 222.116 245.095C222.273 241.861 222.395 239.348 222.479 237.636C222.517 236.787 222.546 236.139 222.565 235.696C222.581 235.257 222.583 235.033 222.583 235.033C222.583 235.033 222.56 235.256 222.533 235.693C222.506 236.137 222.467 236.784 222.416 237.632C222.319 239.343 222.177 241.855 221.995 245.088C221.644 251.571 221.135 260.941 220.507 272.517C220.429 273.965 220.35 275.447 220.269 276.962C220.228 277.72 220.187 278.486 220.146 279.26C220.149 280.028 219.905 280.774 219.406 281.36C218.916 281.944 218.199 282.345 217.428 282.447C217.048 282.498 216.637 282.476 216.229 282.482C215.822 282.482 215.412 282.483 215.001 282.483C213.356 282.484 211.68 282.486 209.975 282.487C203.155 282.494 195.868 282.502 188.2 282.511C180.531 282.522 172.481 282.533 164.136 282.544C159.963 282.551 155.716 282.557 151.406 282.564C150.329 282.566 149.247 282.568 148.162 282.57L146.531 282.573C145.976 282.589 145.47 282.562 144.975 282.37C143.998 282.009 143.22 281.124 143.03 280.089C142.942 279.584 142.944 279.008 142.899 278.465L142.797 276.81C142.249 267.98 141.715 259.357 141.199 251.03C140.94 246.866 140.686 242.776 140.437 238.77C140.377 237.771 140.318 236.775 140.258 235.786C140.25 234.833 140.566 233.871 141.095 233.086C141.62 232.299 142.452 231.701 143.407 231.773C144.377 231.773 145.341 231.773 146.299 231.773C161.632 231.761 175.442 231.752 187.043 231.743C198.637 231.724 208.021 231.708 214.513 231.697C216.134 231.693 217.574 231.688 218.824 231.684C219.449 231.663 220.02 231.702 220.508 231.903C220.997 232.087 221.385 232.378 221.677 232.681C222.266 233.297 222.458 233.956 222.531 234.377C222.599 234.807 222.567 235.033 222.583 235.033Z" fill="#263238"/>
<path d="M176.646 256.742C176.646 259.049 178.516 260.919 180.823 260.919C183.129 260.919 184.999 259.049 184.999 256.742C184.999 254.436 183.129 252.567 180.823 252.567C178.516 252.566 176.646 254.435 176.646 256.742Z" fill="white"/>
<path d="M176.646 256.742C176.68 256.745 176.665 256.37 176.835 255.737C177.003 255.117 177.427 254.208 178.363 253.509C178.826 253.168 179.407 252.88 180.076 252.766C180.74 252.656 181.487 252.68 182.198 252.953C182.908 253.21 183.584 253.694 184.065 254.363C184.559 255.023 184.837 255.87 184.845 256.742C184.837 257.615 184.559 258.462 184.065 259.122C183.584 259.791 182.907 260.275 182.198 260.532C181.488 260.805 180.74 260.829 180.076 260.719C179.407 260.606 178.826 260.317 178.362 259.975C177.426 259.276 177.003 258.368 176.835 257.748C176.665 257.114 176.68 256.741 176.646 256.742C176.636 256.742 176.63 256.834 176.629 257.011C176.624 257.187 176.646 257.449 176.718 257.777C176.856 258.424 177.261 259.389 178.229 260.148C178.708 260.519 179.319 260.837 180.028 260.97C180.732 261.098 181.53 261.082 182.294 260.798C183.057 260.53 183.787 260.016 184.307 259.3C184.841 258.594 185.145 257.68 185.152 256.742C185.144 255.803 184.841 254.89 184.307 254.184C183.787 253.468 183.056 252.954 182.294 252.686C181.53 252.402 180.733 252.385 180.029 252.514C179.32 252.646 178.709 252.965 178.23 253.336C177.262 254.095 176.856 255.06 176.719 255.707C176.646 256.035 176.625 256.297 176.629 256.473C176.63 256.651 176.636 256.742 176.646 256.742Z" fill="#263238"/>
<path d="M220.194 239.96C220.109 239.956 219.76 247.436 219.414 256.664C219.068 265.895 218.856 273.379 218.941 273.382C219.026 273.385 219.376 265.907 219.722 256.676C220.067 247.448 220.279 239.963 220.194 239.96Z" fill="#263238"/>
<path d="M241.505 181.885C241.92 181.534 240.104 174.543 240.104 174.543C240.104 174.543 244.914 166.695 245.04 164.163C245.167 161.632 243.142 156.442 243.142 156.442L229.344 152.898C229.344 152.898 224.912 161.126 224.027 164.037C223.142 166.949 225.547 176.822 225.547 176.822L227.884 181.885C227.884 181.885 234.933 187.455 241.505 181.885Z" fill="#FFBE9D"/>
<path d="M245.014 165.678C245.014 165.678 245.612 164.64 246.467 162.614C247.341 160.542 248.414 158.51 246.467 157.352C245.322 156.671 244.388 157.024 244.388 157.024C244.388 157.024 244.687 155.28 243.645 154.625C242.603 153.971 241.599 154.448 241.599 154.448C241.599 154.448 241.928 151.988 240.428 150.945C238.547 149.637 236.607 150.836 236.607 150.836C236.607 150.836 237.795 140.069 237.897 139.498C238.275 137.405 237.501 135.553 235.417 136.069C234.655 136.258 234.23 137.063 233.335 140.569C232.44 144.075 231.002 150.059 231.002 150.059C231.002 150.059 228.578 154.27 227.434 156.553C226.29 158.837 224.027 164.037 223.838 165.414C223.351 168.976 225.437 173.692 225.437 173.692L240.103 174.543C240.103 174.543 244.455 166.699 245.014 165.678Z" fill="#FFBE9D"/>
<path d="M244.099 157.488C244.063 157.466 243.632 158.072 242.964 159.073C242.617 159.6 242.228 160.193 241.803 160.838C241.588 161.17 241.352 161.525 241.173 161.941C240.995 162.348 240.884 162.848 241 163.339C241.098 163.822 241.443 164.289 241.927 164.425C242.406 164.575 242.872 164.432 243.241 164.264C243.617 164.09 243.935 163.864 244.221 163.658C244.509 163.451 244.774 163.252 245.011 163.065C245.486 162.694 245.856 162.375 246.105 162.147C246.353 161.918 246.481 161.781 246.468 161.765C246.438 161.73 245.858 162.195 244.882 162.89C244.388 163.22 243.815 163.681 243.126 164.003C242.782 164.155 242.381 164.257 242.021 164.137C241.655 164.03 241.391 163.68 241.302 163.271C241.205 162.859 241.292 162.438 241.453 162.057C241.613 161.675 241.836 161.327 242.045 160.989C242.448 160.332 242.819 159.727 243.15 159.189C243.769 158.159 244.135 157.511 244.099 157.488Z" fill="#EB996E"/>
<path d="M232.071 158.767C232.15 158.771 232.223 157.716 231.917 156.462C231.617 155.206 231.071 154.301 231.003 154.341C230.921 154.381 231.329 155.319 231.618 156.535C231.915 157.748 231.98 158.768 232.071 158.767Z" fill="#EB996E"/>
<path d="M226.257 161.914C227.568 160.578 229.335 159.75 231.163 159.353C232.992 158.956 234.887 158.968 236.75 159.138C238.242 159.274 239.946 159.659 240.625 160.995C241.325 162.369 240.483 164.141 239.16 164.931C237.836 165.722 236.199 165.753 234.664 165.613C233.129 165.473 231.58 165.187 230.056 165.425" fill="#FFBE9D"/>
<path d="M230.055 165.425C230.059 165.451 230.469 165.386 231.213 165.394C231.958 165.395 233.025 165.531 234.356 165.693C235.022 165.767 235.761 165.828 236.558 165.786C237.349 165.741 238.217 165.593 239.029 165.165C239.843 164.745 240.541 163.986 240.864 163.031C241.031 162.556 241.075 162.023 240.969 161.504C240.847 160.989 240.565 160.502 240.16 160.148C239.341 159.425 238.292 159.193 237.341 159.053C236.373 158.936 235.446 158.889 234.554 158.885C232.774 158.879 231.165 159.142 229.891 159.592C228.612 160.035 227.676 160.629 227.092 161.102C226.798 161.337 226.587 161.541 226.451 161.683C226.316 161.828 226.25 161.907 226.257 161.915C226.277 161.936 226.563 161.633 227.165 161.197C227.763 160.76 228.698 160.206 229.96 159.798C231.218 159.385 232.796 159.148 234.552 159.17C235.428 159.18 236.357 159.235 237.299 159.353C238.225 159.491 239.223 159.727 239.952 160.377C240.317 160.694 240.561 161.123 240.669 161.571C240.762 162.026 240.729 162.503 240.578 162.936C240.286 163.81 239.646 164.521 238.895 164.915C238.139 165.323 237.311 165.476 236.541 165.531C235.767 165.583 235.04 165.536 234.378 165.476C233.052 165.343 231.965 165.238 231.212 165.274C230.835 165.287 230.545 165.325 230.35 165.354C230.155 165.39 230.054 165.414 230.055 165.425Z" fill="#EB996E"/>
<path d="M243.993 157.656C242.449 159.999 241.088 162.575 239.787 165.061C239.409 165.784 239.008 166.55 238.314 166.977C237.757 167.32 236.377 166.697 235.759 166.486L239.996 156.844" fill="#FFBE9D"/>
<path d="M239.995 156.845C239.977 156.837 239.845 157.092 239.619 157.564C239.376 158.086 239.061 158.763 238.68 159.583C237.896 161.302 236.82 163.705 235.618 166.425L235.552 166.576L235.709 166.631C236.166 166.795 236.657 167.001 237.187 167.134C237.397 167.185 237.61 167.226 237.835 167.231C237.948 167.232 238.063 167.228 238.183 167.194C238.303 167.168 238.422 167.092 238.502 167.036C238.859 166.789 239.132 166.459 239.355 166.123C239.791 165.439 240.098 164.753 240.443 164.116C241.109 162.834 241.719 161.685 242.248 160.731C242.776 159.775 243.221 159.012 243.53 158.486C243.84 157.96 244.012 157.669 243.992 157.656C243.976 157.645 243.77 157.914 243.428 158.423C243.087 158.931 242.612 159.679 242.058 160.624C241.503 161.567 240.872 162.708 240.191 163.984C239.842 164.614 239.518 165.315 239.104 165.956C238.892 166.273 238.641 166.568 238.327 166.784C238.061 167.001 237.649 166.921 237.262 166.834C236.76 166.709 236.284 166.51 235.808 166.342L235.898 166.548C237.09 163.823 238.133 161.406 238.868 159.665C239.214 158.831 239.501 158.141 239.721 157.609C239.915 157.122 240.013 156.853 239.995 156.845Z" fill="#EB996E"/>
<path d="M241.138 153.981C239.775 157.396 238.414 160.812 237.051 164.227C236.762 164.952 236.464 165.692 235.952 166.282C235.441 166.872 234.668 167.294 233.895 167.178C232.831 167.02 232.134 165.89 232.08 164.816C232.026 163.741 232.452 162.707 232.846 161.706C234.068 158.592 235.048 155.383 235.775 152.117" fill="#FFBE9D"/>
<path d="M235.776 152.116C235.766 152.114 235.731 152.222 235.674 152.428C235.61 152.668 235.529 152.968 235.431 153.334C235.221 154.12 234.913 155.256 234.48 156.645C234.05 158.033 233.492 159.672 232.789 161.461C232.448 162.351 232.006 163.299 231.933 164.392C231.894 164.931 231.988 165.511 232.242 166.019C232.491 166.526 232.901 166.999 233.47 167.223C234.041 167.45 234.686 167.353 235.187 167.084C235.697 166.82 236.101 166.402 236.393 165.948C236.972 165.025 237.254 164.048 237.629 163.163C238.327 161.38 238.958 159.768 239.493 158.399C240.002 157.069 240.419 155.979 240.726 155.177C240.855 154.821 240.961 154.529 241.046 154.296C241.117 154.093 241.148 153.985 241.139 153.981C241.129 153.977 241.077 154.078 240.988 154.273C240.889 154.501 240.765 154.786 240.614 155.134C240.285 155.926 239.838 157.004 239.291 158.319C238.738 159.68 238.087 161.284 237.366 163.059C236.986 163.94 236.686 164.928 236.141 165.783C235.866 166.207 235.501 166.578 235.046 166.813C234.598 167.051 234.057 167.126 233.583 166.937C233.107 166.752 232.742 166.343 232.518 165.886C232.288 165.424 232.202 164.916 232.236 164.411C232.297 163.396 232.716 162.464 233.054 161.566C233.747 159.764 234.284 158.11 234.69 156.709C235.096 155.308 235.372 154.16 235.549 153.364C235.634 152.966 235.698 152.655 235.735 152.444C235.772 152.231 235.787 152.119 235.776 152.116Z" fill="#EB996E"/>
<path d="M250.535 206.936C250.166 205.582 240.809 178.004 240.809 178.004L225.391 176.155L231.698 199.918C231.698 199.918 230.713 205.951 231.698 209.521C232.683 213.091 240.562 222.817 244.625 220.478C248.688 218.14 250.904 208.291 250.535 206.936Z" fill="#FFBE9D"/>
<path d="M231.698 173.718C231.702 173.752 232.047 173.756 232.579 173.602C233.108 173.45 233.813 173.105 234.44 172.532C235.065 171.956 235.47 171.285 235.667 170.77C235.868 170.254 235.893 169.909 235.859 169.903C235.77 169.866 235.445 171.215 234.232 172.305C233.041 173.419 231.669 173.625 231.698 173.718Z" fill="#EB996E"/>
</svg>
