<svg width="587" height="334" viewBox="0 0 587 334" fill="none" xmlns="http://www.w3.org/2000/svg">
<path d="M468.425 130.745H561.958H587L567.684 144.683V172.105C567.684 175.268 565.12 177.831 561.958 177.831H468.425C465.263 177.831 462.699 175.268 462.699 172.105V136.471C462.699 133.308 465.263 130.745 468.425 130.745Z" fill="#F5F5F5"/>
<path d="M473.372 150.124C473.372 150.239 491.255 150.331 513.31 150.331C535.373 150.331 553.253 150.239 553.253 150.124C553.253 150.01 535.373 149.917 513.31 149.917C491.255 149.918 473.372 150.01 473.372 150.124Z" fill="#E0E0E0"/>
<path d="M473.372 160.653C473.372 160.767 491.255 160.861 513.31 160.861C535.373 160.861 553.253 160.768 553.253 160.653C553.253 160.539 535.373 160.446 513.31 160.446C491.255 160.446 473.372 160.539 473.372 160.653Z" fill="#E0E0E0"/>
<path d="M288.34 29.557H282.791V48.1446H288.34V29.557Z" fill="#E0E0E0"/>
<path d="M241.992 26.8634H236.444V48.1438H241.992V26.8634Z" fill="#E0E0E0"/>
<path d="M253.579 22.428H248.03V48.1436H253.579V22.428Z" fill="#E0E0E0"/>
<path d="M265.166 23.8385H259.617V48.1437H265.166V23.8385Z" fill="#E0E0E0"/>
<path d="M276.753 15.6162H271.205V48.1438H276.753V15.6162Z" fill="#E0E0E0"/>
<path d="M299.927 15.7742H294.378V48.1436H299.927V15.7742Z" fill="#E0E0E0"/>
<path d="M311.514 26.4056H305.966V48.1437H311.514V26.4056Z" fill="#E0E0E0"/>
<path d="M323.101 17.2006H317.552V48.1437H323.101V17.2006Z" fill="#E0E0E0"/>
<path d="M334.688 10.2297H329.139V48.1438H334.688V10.2297Z" fill="#E0E0E0"/>
<path d="M346.276 17.0425H340.727V48.1446H346.276V17.0425Z" fill="#E0E0E0"/>
<path d="M492.483 46.4204L538.372 39.4087C542.218 64.5827 524.669 88.4626 499.495 92.3096C474.321 96.1558 450.441 78.6068 446.594 53.4328C442.748 28.2589 460.297 4.37891 485.471 0.532756C489.479 -0.0797 493.55 -0.16458 497.58 0.280616L492.483 46.4204Z" fill="#EBEBEB"/>
<path d="M507.372 0.42627L501.801 35.9978L536.718 29.4405C536.718 29.4405 531.583 9.50576 507.372 0.42627Z" fill="#E0E0E0"/>
<path d="M23.9214 132.713C23.7201 120.11 33.7623 109.692 46.3069 109.49C58.8514 109.288 69.2216 119.376 69.4229 131.979C69.6243 144.581 59.582 154.999 47.0375 155.201C34.493 155.403 24.1228 145.315 23.9214 132.713ZM57.5499 132.17C57.4534 126.145 52.4955 121.321 46.4974 121.417C40.4994 121.514 35.6979 126.495 35.7944 132.52C35.891 138.546 40.8489 143.37 46.8469 143.273C52.845 143.177 57.6465 138.196 57.5499 132.17Z" fill="#F5F5F5"/>
<path d="M23.9214 132.713C23.7201 120.11 33.7623 109.692 46.306 109.49L46.4966 121.417C40.4985 121.514 35.6971 126.496 35.7936 132.521C35.8901 138.547 40.848 143.371 46.8461 143.274L47.0367 155.201C34.493 155.404 24.1228 145.316 23.9214 132.713Z" fill="#E0E0E0"/>
<path d="M44.2637 107.655C58.9402 107.418 70.6475 118.808 70.883 133.552L56.9929 133.776C56.8806 126.726 51.5158 122.288 44.4992 122.402L44.2637 107.655Z" fill="#EBEBEB"/>
<path d="M171.742 212.965H142.821V247.348H171.742V212.965Z" fill="#F5F5F5"/>
<path d="M143.818 210.723H13.1167V249.509H143.818V210.723Z" fill="#E0E0E0"/>
<path d="M172.618 213.985H140.314V210.723H172.618C173.519 210.723 174.249 211.454 174.249 212.354C174.249 213.255 173.519 213.985 172.618 213.985Z" fill="#E0E0E0"/>
<path d="M172.618 249.509H140.314V246.247H172.618C173.519 246.247 174.249 246.977 174.249 247.878C174.249 248.78 173.519 249.509 172.618 249.509Z" fill="#E0E0E0"/>
<path d="M133.541 210.723H118.1V249.509H133.541V210.723Z" fill="#EBEBEB"/>
<path d="M40.9884 211.153H25.5464V249.939H40.9884V211.153Z" fill="#EBEBEB"/>
<path d="M171.742 218.652C171.742 218.747 165.483 218.824 157.763 218.824C150.041 218.824 143.783 218.747 143.783 218.652C143.783 218.557 150.041 218.481 157.763 218.481C165.483 218.481 171.742 218.557 171.742 218.652Z" fill="#E0E0E0"/>
<path d="M171.742 223.808C171.742 223.903 165.483 223.98 157.763 223.98C150.041 223.98 143.783 223.904 143.783 223.808C143.783 223.713 150.041 223.636 157.763 223.636C165.483 223.636 171.742 223.713 171.742 223.808Z" fill="#E0E0E0"/>
<path d="M171.742 230.156C171.742 230.251 165.483 230.328 157.763 230.328C150.041 230.328 143.783 230.251 143.783 230.156C143.783 230.062 150.041 229.984 157.763 229.984C165.483 229.984 171.742 230.062 171.742 230.156Z" fill="#E0E0E0"/>
<path d="M171.742 236.505C171.742 236.6 165.483 236.676 157.763 236.676C150.041 236.676 143.783 236.6 143.783 236.505C143.783 236.41 150.041 236.334 157.763 236.334C165.483 236.333 171.742 236.41 171.742 236.505Z" fill="#E0E0E0"/>
<path d="M171.742 242.853C171.742 242.948 165.483 243.025 157.763 243.025C150.041 243.025 143.783 242.948 143.783 242.853C143.783 242.758 150.041 242.682 157.763 242.682C165.483 242.681 171.742 242.758 171.742 242.853Z" fill="#E0E0E0"/>
<path d="M109.798 226.664H50.9976V233.648H109.798V226.664Z" fill="#EBEBEB"/>
<path d="M171.448 250.27H142.084V271.22H171.448V250.27Z" fill="#FAFAFA"/>
<path d="M142.412 249.51H17.4438V271.98H142.412V249.51Z" fill="#F5F5F5"/>
<path d="M141.504 251.03H173.066C173.486 251.03 173.826 250.689 173.826 250.269C173.826 249.85 173.485 249.51 173.066 249.51H141.504V251.03Z" fill="#F5F5F5"/>
<path d="M141.504 271.98H173.477C173.67 271.98 173.826 271.823 173.826 271.631V270.808C173.826 270.616 173.669 270.459 173.477 270.459H141.504V271.98Z" fill="#F5F5F5"/>
<path d="M171.448 254.25C171.448 254.344 164.948 254.422 156.931 254.422C148.911 254.422 142.412 254.345 142.412 254.25C142.412 254.155 148.911 254.078 156.931 254.078C164.948 254.078 171.448 254.155 171.448 254.25Z" fill="#E0E0E0"/>
<path d="M171.448 258.213C171.448 258.308 164.948 258.385 156.931 258.385C148.911 258.385 142.412 258.309 142.412 258.213C142.412 258.118 148.911 258.042 156.931 258.042C164.948 258.042 171.448 258.118 171.448 258.213Z" fill="#E0E0E0"/>
<path d="M171.448 262.177C171.448 262.271 164.948 262.349 156.931 262.349C148.911 262.349 142.412 262.272 142.412 262.177C142.412 262.082 148.911 262.005 156.931 262.005C164.948 262.005 171.448 262.082 171.448 262.177Z" fill="#E0E0E0"/>
<path d="M171.448 266.14C171.448 266.235 164.948 266.311 156.931 266.311C148.911 266.311 142.412 266.235 142.412 266.14C142.412 266.045 148.911 265.969 156.931 265.969C164.948 265.969 171.448 266.045 171.448 266.14Z" fill="#E0E0E0"/>
<path d="M175.902 273.976H145.93V330.767H175.902V273.976Z" fill="#EBEBEB"/>
<path d="M145.93 271.98H5.23975V333.557H145.93V271.98Z" fill="#E0E0E0"/>
<path d="M178.249 333.557H142.084V329.563H178.249C179.351 329.563 180.246 330.457 180.246 331.56C180.245 332.662 179.351 333.557 178.249 333.557Z" fill="#E0E0E0"/>
<path d="M179.329 275.973H142.084V271.98H179.329C179.835 271.98 180.245 272.39 180.245 272.896V275.057C180.245 275.563 179.835 275.973 179.329 275.973Z" fill="#E0E0E0"/>
<path d="M175.903 281.589C175.903 281.684 169.192 281.761 160.918 281.761C152.639 281.761 145.931 281.684 145.931 281.589C145.931 281.495 152.639 281.418 160.918 281.418C169.192 281.418 175.903 281.495 175.903 281.589Z" fill="#E0E0E0"/>
<path d="M175.903 288.873C175.903 288.968 169.192 289.045 160.918 289.045C152.639 289.045 145.931 288.968 145.931 288.873C145.931 288.778 152.639 288.702 160.918 288.702C169.192 288.702 175.903 288.778 175.903 288.873Z" fill="#E0E0E0"/>
<path d="M175.903 296.157C175.903 296.252 169.192 296.328 160.918 296.328C152.639 296.328 145.931 296.252 145.931 296.157C145.931 296.062 152.639 295.986 160.918 295.986C169.192 295.986 175.903 296.062 175.903 296.157Z" fill="#E0E0E0"/>
<path d="M175.903 303.441C175.903 303.536 169.192 303.613 160.918 303.613C152.639 303.613 145.931 303.536 145.931 303.441C145.931 303.346 152.639 303.269 160.918 303.269C169.192 303.269 175.903 303.346 175.903 303.441Z" fill="#E0E0E0"/>
<path d="M175.903 310.724C175.903 310.819 169.192 310.896 160.918 310.896C152.639 310.896 145.931 310.819 145.931 310.724C145.931 310.63 152.639 310.553 160.918 310.553C169.192 310.553 175.903 310.63 175.903 310.724Z" fill="#E0E0E0"/>
<path d="M175.903 318.009C175.903 318.104 169.192 318.18 160.918 318.18C152.639 318.18 145.931 318.104 145.931 318.009C145.931 317.914 152.639 317.837 160.918 317.837C169.192 317.837 175.903 317.914 175.903 318.009Z" fill="#E0E0E0"/>
<path d="M175.903 325.293C175.903 325.388 169.192 325.464 160.918 325.464C152.639 325.464 145.931 325.388 145.931 325.293C145.931 325.198 152.639 325.121 160.918 325.121C169.192 325.121 175.903 325.198 175.903 325.293Z" fill="#E0E0E0"/>
<path d="M53.3825 306.137V309.563C53.3825 313.689 51.3196 316.047 47.3403 316.047C43.3618 316.047 41.2981 313.69 41.2981 309.563V296.153C41.2981 292.028 43.361 289.669 47.3403 289.669C51.3187 289.669 53.3825 292.027 53.3825 296.153V298.659H49.5513V295.896C49.5513 294.054 48.7408 293.354 47.4518 293.354C46.162 293.354 45.3515 294.054 45.3515 295.896V309.822C45.3515 311.665 46.162 312.328 47.4518 312.328C48.7408 312.328 49.5513 311.665 49.5513 309.822V306.138H53.3825V306.137Z" fill="#EBEBEB"/>
<path d="M55.5159 296.153C55.5159 292.028 57.6894 289.669 61.6679 289.669C65.6464 289.669 67.8207 292.027 67.8207 296.153V309.563C67.8207 313.689 65.6472 316.047 61.6679 316.047C57.6886 316.047 55.5159 313.69 55.5159 309.563V296.153ZM59.5684 309.822C59.5684 311.665 60.3789 312.364 61.6679 312.364C62.9577 312.364 63.7682 311.665 63.7682 309.822V295.896C63.7682 294.054 62.9577 293.354 61.6679 293.354C60.3789 293.354 59.5684 294.054 59.5684 295.896V309.822Z" fill="#EBEBEB"/>
<path d="M70.4338 289.965H74.4864V312.07H81.1543V315.754H70.4338V289.965Z" fill="#EBEBEB"/>
<path d="M82.5879 296.153C82.5879 292.028 84.7614 289.669 88.7407 289.669C92.7192 289.669 94.8936 292.027 94.8936 296.153V309.563C94.8936 313.689 92.72 316.047 88.7407 316.047C84.7614 316.047 82.5879 313.69 82.5879 309.563V296.153ZM86.6404 309.822C86.6404 311.665 87.4509 312.364 88.7407 312.364C90.0297 312.364 90.8411 311.665 90.8411 309.822V295.896C90.8411 294.054 90.0306 293.354 88.7407 293.354C87.4509 293.354 86.6404 294.054 86.6404 295.896V309.822Z" fill="#EBEBEB"/>
<path d="M101.375 289.965V309.859C101.375 311.701 102.185 312.364 103.475 312.364C104.765 312.364 105.575 311.7 105.575 309.859V289.965H109.406V309.601C109.406 313.727 107.344 316.085 103.364 316.085C99.3857 316.085 97.322 313.727 97.322 309.601V289.965H101.375Z" fill="#EBEBEB"/>
<path d="M120.639 315.753C120.418 315.09 120.271 314.684 120.271 312.585V308.532C120.271 306.138 119.46 305.254 117.618 305.254H116.218V315.754H112.166V289.965H118.281C122.481 289.965 124.286 291.917 124.286 295.896V297.923C124.286 300.575 123.439 302.306 121.633 303.154C123.659 304.001 124.323 305.954 124.323 308.644V312.622C124.323 313.875 124.359 314.796 124.764 315.754L120.639 315.753ZM116.218 293.649V301.57H117.803C119.313 301.57 120.234 300.907 120.234 298.844V296.302C120.234 294.459 119.608 293.649 118.171 293.649H116.218Z" fill="#EBEBEB"/>
<path d="M52.5062 258.359H49.5513L49.7069 257.594H56.4905L56.3232 258.359H53.3791L51.8596 265.968H50.9867L52.5062 258.359Z" fill="#E0E0E0"/>
<path d="M62.1806 259.675L57.5863 266.782C56.8091 267.979 56.2224 268.349 55.3137 268.349C54.7279 268.349 54.1287 268.145 53.8184 267.787L54.2727 267.165C54.5482 267.451 54.9068 267.619 55.3853 267.619C55.9245 267.619 56.3422 267.368 56.8332 266.602L57.2759 265.933L55.7082 259.674H56.5694L57.8734 265.034L61.3068 259.674H62.1806V259.675Z" fill="#E0E0E0"/>
<path d="M69.1765 262.284C69.1765 264.447 67.6695 266.027 65.6116 266.027C64.415 266.027 63.577 265.536 63.2184 264.651L62.5011 268.288H61.6506L63.3623 259.674H64.1753L63.9723 260.68C64.5706 260.01 65.4086 259.627 66.4255 259.627C68.0398 259.628 69.1765 260.633 69.1765 262.284ZM68.3153 262.332C68.3153 261.099 67.5613 260.37 66.2449 260.37C64.678 260.37 63.5296 261.601 63.5296 263.323C63.5296 264.556 64.2835 265.274 65.5991 265.274C67.1669 265.274 68.3153 264.043 68.3153 262.332Z" fill="#E0E0E0"/>
<path d="M70.165 263.361C70.165 261.219 71.6845 259.628 73.8015 259.628C75.5482 259.628 76.6607 260.657 76.6607 262.284C76.6607 264.437 75.1412 266.027 73.0243 266.027C71.2784 266.028 70.165 264.975 70.165 263.361ZM75.8119 262.332C75.8119 261.099 75.058 260.37 73.7424 260.37C72.1747 260.37 71.0147 261.613 71.0147 263.323C71.0147 264.556 71.7686 265.274 73.0842 265.274C74.6519 265.274 75.8119 264.043 75.8119 262.332Z" fill="#E0E0E0"/>
<path d="M84.8049 259.675L83.7048 265.203C83.2621 267.428 82.0896 268.349 80.0442 268.349C78.8592 268.349 77.8906 268.015 77.2449 267.404L77.7475 266.758C78.2493 267.272 79.0997 267.596 80.1049 267.596C81.6952 267.596 82.5331 266.865 82.8319 265.347L82.9758 264.652C82.3775 265.323 81.5279 265.73 80.4636 265.73C78.8001 265.73 77.6876 264.761 77.6876 263.193C77.6876 261.172 79.1829 259.629 81.2766 259.629C82.4366 259.629 83.3703 260.107 83.7289 261.065L83.9919 259.676H84.8049V259.675ZM83.3694 262.199C83.3694 261.05 82.5914 260.37 81.2874 260.37C79.6964 260.37 78.548 261.542 78.548 263.144C78.548 264.292 79.3136 264.975 80.63 264.975C82.2086 264.975 83.3694 263.802 83.3694 262.199Z" fill="#E0E0E0"/>
<path d="M90.3519 259.628L90.1963 260.453C90.1123 260.453 90.0524 260.441 89.9567 260.441C88.6169 260.441 87.7199 261.206 87.4087 262.774L86.7754 265.968H85.9258L87.1707 259.674H87.9837L87.7681 260.823C88.3298 259.999 89.1553 259.628 90.3519 259.628Z" fill="#E0E0E0"/>
<path d="M97.5634 259.675L96.3077 265.968H95.4938L95.6969 264.976C95.0985 265.634 94.2614 266.028 93.2445 266.028C91.6302 266.028 90.5051 265.024 90.5051 263.361C90.5051 261.207 92.013 259.629 94.0584 259.629C95.255 259.629 96.0921 260.119 96.4508 260.992L96.7146 259.676H97.5634V259.675ZM96.152 262.332C96.152 261.099 95.3981 260.37 94.0825 260.37C92.5156 260.37 91.3548 261.613 91.3548 263.323C91.3548 264.556 92.1087 265.274 93.4243 265.274C94.9912 265.274 96.152 264.043 96.152 262.332Z" fill="#E0E0E0"/>
<path d="M105.73 262.284C105.73 264.447 104.223 266.027 102.165 266.027C100.968 266.027 100.13 265.536 99.7717 264.651L99.0544 268.288H98.2056L99.9164 259.674H100.729L100.526 260.68C101.125 260.01 101.963 259.627 102.98 259.627C104.593 259.628 105.73 260.633 105.73 262.284ZM104.869 262.332C104.869 261.099 104.115 260.37 102.799 260.37C101.232 260.37 100.083 261.601 100.083 263.323C100.083 264.556 100.837 265.274 102.152 265.274C103.72 265.274 104.869 264.043 104.869 262.332Z" fill="#E0E0E0"/>
<path d="M113.347 261.674C113.347 261.901 113.323 262.14 113.275 262.391L112.558 265.968H111.708L112.426 262.378C112.461 262.175 112.485 261.983 112.485 261.804C112.485 260.907 111.947 260.393 110.858 260.393C109.519 260.393 108.597 261.122 108.298 262.594L107.628 265.968H106.778L108.549 257.09H109.398L108.692 260.619C109.291 259.939 110.128 259.628 111.097 259.628C112.521 259.628 113.347 260.394 113.347 261.674Z" fill="#E0E0E0"/>
<path d="M121.298 259.675L116.704 266.782C115.926 267.979 115.34 268.349 114.431 268.349C113.846 268.349 113.246 268.145 112.936 267.787L113.39 267.165C113.666 267.451 114.024 267.619 114.503 267.619C115.042 267.619 115.46 267.368 115.951 266.602L116.394 265.933L114.826 259.674H115.687L116.991 265.034L120.424 259.674H121.298V259.675Z" fill="#E0E0E0"/>
<path d="M140.254 1.06201H39.5699H12.6135L33.4062 16.0664V45.5857C33.4062 48.99 36.1656 51.7502 39.5699 51.7502H140.254C143.658 51.7502 146.419 48.9909 146.419 45.5857V7.22651C146.419 3.82139 143.659 1.06201 140.254 1.06201Z" fill="#F5F5F5"/>
<path d="M134.931 21.9238C134.931 22.047 115.68 22.1468 91.9384 22.1468C68.1882 22.1468 48.9417 22.047 48.9417 21.9238C48.9417 21.8007 68.1882 21.7008 91.9384 21.7008C115.679 21.7008 134.931 21.8007 134.931 21.9238Z" fill="#E0E0E0"/>
<path d="M134.931 33.2576C134.931 33.3807 115.68 33.4806 91.9384 33.4806C68.1882 33.4806 48.9417 33.3807 48.9417 33.2576C48.9417 33.1344 68.1882 33.0345 91.9384 33.0345C115.679 33.0345 134.931 33.1344 134.931 33.2576Z" fill="#E0E0E0"/>
<path d="M582.943 333.556C582.943 333.676 452.436 333.773 291.486 333.773C130.479 333.773 0 333.675 0 333.556C0 333.437 130.479 333.34 291.486 333.34C452.437 333.339 582.943 333.437 582.943 333.556Z" fill="#263238"/>
<path d="M528.173 291.084C528.173 291.084 506.115 265.696 497.792 240.309C489.468 214.922 493.422 217.835 493.422 217.835C493.422 217.835 504.66 242.497 513.192 254.409C521.724 266.321 536.914 283.801 536.914 283.801L528.173 291.084Z" fill="#455A64"/>
<path d="M532.57 221.79C531.858 220.551 529.964 221.194 530.177 222.607C531.522 231.524 534.429 252.452 534.315 266.024C534.167 283.656 534.321 290.472 534.321 290.472H543.502C543.502 290.472 541.871 254.022 539.798 242.91C538.342 235.118 535.255 226.467 532.57 221.79Z" fill="#455A64"/>
<path d="M537.574 287.509C537.574 287.509 543.353 275.359 545.131 260.099C545.887 253.608 544.538 244.837 542.532 233.132C541.56 227.463 541.341 223.148 541.371 220.157C541.395 217.896 544.379 217.158 545.484 219.13C546.592 221.107 549.798 227.861 550.613 232.095C552.836 243.653 555.355 249.431 553.428 260.396C551.502 271.36 544.39 288.252 544.39 288.252L537.574 287.509Z" fill="#455A64"/>
<path d="M545.844 288.25C545.844 288.25 570.063 236.203 571.741 228.482C573.42 220.761 579.127 202.968 579.798 203.975C580.47 204.982 581.476 214.382 577.113 225.124C572.748 235.867 554.114 289.835 554.114 289.835H545.844" fill="#455A64"/>
<path d="M534.923 285.921C534.912 285.935 534.679 285.774 534.244 285.455C533.814 285.129 533.161 284.671 532.367 284.023C530.756 282.756 528.493 280.83 525.858 278.277C520.572 273.2 513.992 265.372 508.288 255.726C502.571 246.081 498.727 236.649 496.294 229.745C495.076 226.289 494.187 223.459 493.61 221.493C493.314 220.513 493.11 219.743 492.967 219.223C492.827 218.702 492.763 218.427 492.779 218.421C492.797 218.416 492.895 218.682 493.067 219.193C493.25 219.75 493.495 220.496 493.802 221.433C494.437 223.379 495.377 226.187 496.637 229.621C499.153 236.481 503.039 245.858 508.731 255.462C514.412 265.068 520.911 272.891 526.113 278.017C528.705 280.593 530.924 282.556 532.493 283.868C533.265 284.539 533.897 285.021 534.306 285.374C534.722 285.718 534.934 285.907 534.923 285.921Z" fill="#263238"/>
<path d="M537.573 260.952C537.537 260.955 537.461 260.41 537.355 259.425C537.24 258.348 537.09 256.944 536.909 255.253C536.526 251.732 535.927 246.876 535.072 241.542C534.212 236.207 533.258 231.407 532.519 227.943C532.161 226.281 531.863 224.9 531.635 223.841C531.427 222.873 531.328 222.332 531.363 222.323C531.398 222.314 531.563 222.838 531.831 223.793C532.102 224.747 532.461 226.137 532.876 227.862C533.708 231.311 534.721 236.111 535.583 241.459C536.441 246.807 536.983 251.682 537.274 255.217C537.42 256.985 537.515 258.417 537.557 259.409C537.6 260.401 537.608 260.95 537.573 260.952Z" fill="#263238"/>
<path d="M543.245 218.72C543.262 218.714 543.36 218.942 543.532 219.382C543.715 219.872 543.957 220.514 544.257 221.315C544.577 222.154 544.946 223.188 545.296 224.414C545.657 225.636 546.124 227.013 546.474 228.581C546.665 229.363 546.866 230.179 547.074 231.029C547.278 231.881 547.422 232.782 547.607 233.707C548.003 235.555 548.247 237.559 548.541 239.662C549.014 243.881 549.273 248.553 549.119 253.455C548.922 258.357 548.33 262.999 547.555 267.174C547.111 269.251 546.724 271.233 546.197 273.048C545.946 273.957 545.737 274.846 545.473 275.681C545.204 276.514 544.946 277.314 544.699 278.08C544.237 279.618 543.673 280.959 543.226 282.152C542.789 283.349 542.347 284.355 541.968 285.169C541.61 285.946 541.324 286.57 541.106 287.045C540.904 287.471 540.79 287.692 540.774 287.684C540.758 287.677 540.839 287.442 541.011 287.002C541.206 286.517 541.463 285.882 541.783 285.089C542.134 284.266 542.546 283.253 542.956 282.049C543.376 280.85 543.914 279.506 544.352 277.966C544.587 277.202 544.834 276.401 545.09 275.569C545.343 274.734 545.54 273.847 545.782 272.939C546.288 271.129 546.658 269.154 547.086 267.085C547.831 262.927 548.405 258.31 548.603 253.436C548.755 248.562 548.513 243.917 548.068 239.716C547.788 237.622 547.561 235.627 547.185 233.785C547.01 232.862 546.877 231.963 546.684 231.113C546.487 230.264 546.299 229.448 546.119 228.668C545.792 227.101 545.352 225.722 545.019 224.496C544.696 223.266 544.357 222.226 544.067 221.38C543.804 220.567 543.594 219.914 543.433 219.418C543.293 218.967 543.229 218.727 543.245 218.72Z" fill="#263238"/>
<path d="M579.521 205.021C579.529 205.022 579.523 205.101 579.502 205.255C579.472 205.438 579.438 205.66 579.394 205.931C579.288 206.524 579.154 207.402 578.917 208.522C578.449 210.761 577.67 213.983 576.458 217.891C575.253 221.802 573.598 226.386 571.636 231.422C569.682 236.461 567.411 241.95 565.261 247.794C563.078 253.629 561.396 259.323 559.816 264.491C558.25 269.662 556.764 274.303 555.328 278.136C553.907 281.973 552.538 284.995 551.504 287.037C551.008 288.068 550.562 288.837 550.274 289.366C550.139 289.605 550.027 289.8 549.936 289.961C549.857 290.093 549.812 290.159 549.805 290.155C549.797 290.15 549.826 290.076 549.89 289.935C549.969 289.768 550.065 289.565 550.183 289.317C550.44 288.773 550.857 287.991 551.324 286.948C552.299 284.886 553.611 281.852 554.985 278.01C556.373 274.172 557.819 269.531 559.36 264.352C560.914 259.181 562.587 253.466 564.776 247.616C566.931 241.757 569.216 236.273 571.193 231.248C573.177 226.227 574.862 221.667 576.11 217.781C577.363 213.897 578.194 210.698 578.72 208.477C578.987 207.367 579.152 206.496 579.292 205.911C579.355 205.644 579.407 205.425 579.449 205.245C579.488 205.095 579.512 205.019 579.521 205.021Z" fill="#263238"/>
<path d="M504.84 193.524C503.314 192.008 500.776 193.593 501.408 195.65C502.048 197.735 503.019 200.432 504.451 203.475C507.78 210.55 517.561 235.938 522.139 249.881C526.717 263.823 533.168 289.835 533.168 289.835L542.944 288.249C542.944 288.249 534 245.51 525.26 230.111C518.238 217.739 511.215 199.858 504.84 193.524Z" fill="#455A64"/>
<path d="M524.814 258.601C524.848 258.59 525.025 259.007 525.318 259.773C525.607 260.54 526.001 261.659 526.445 263.055C527.345 265.843 528.447 269.739 529.557 274.067C530.664 278.396 531.587 282.334 532.23 285.189C532.523 286.54 532.769 287.675 532.966 288.577C533.129 289.379 533.203 289.827 533.168 289.836C533.133 289.844 532.993 289.413 532.77 288.625C532.532 287.733 532.232 286.611 531.875 285.276C531.127 282.335 530.144 278.47 529.056 274.196C527.948 269.874 526.904 265.971 526.095 263.162C525.709 261.837 525.385 260.723 525.127 259.838C524.894 259.053 524.78 258.613 524.814 258.601Z" fill="#263238"/>
<path d="M538.078 289.042C538.069 289.043 538.051 288.955 538.024 288.782C537.994 288.579 537.958 288.326 537.913 288.012C537.811 287.336 537.719 286.333 537.513 285.051C537.154 282.483 536.513 278.782 535.463 274.267C534.42 269.751 532.898 264.439 530.887 258.649C528.882 252.856 526.366 246.599 523.517 240.122C517.765 227.184 512.02 215.708 508.245 207.223C506.336 202.99 504.859 199.534 503.886 197.126C503.39 195.926 503.034 194.983 502.787 194.345C502.676 194.048 502.587 193.809 502.515 193.616C502.457 193.451 502.431 193.365 502.44 193.362C502.448 193.358 502.49 193.438 502.564 193.597C502.648 193.784 502.753 194.017 502.883 194.306C503.171 194.969 503.568 195.886 504.071 197.048C505.101 199.43 506.628 202.861 508.577 207.071C512.435 215.512 518.23 226.957 523.99 239.915C526.845 246.402 529.353 252.679 531.338 258.495C533.329 264.309 534.819 269.647 535.82 274.187C536.828 278.724 537.414 282.445 537.712 285.025C537.888 286.313 537.948 287.321 538.017 288.001C538.041 288.317 538.061 288.572 538.077 288.777C538.087 288.951 538.088 289.041 538.078 289.042Z" fill="#263238"/>
<path d="M542.944 288.25C542.908 288.255 542.793 287.669 542.614 286.607C542.421 285.459 542.163 283.944 541.854 282.113C541.18 278.325 540.151 273.108 538.673 267.43C537.209 261.745 535.559 256.689 534.29 253.058C533.666 251.308 533.151 249.861 532.761 248.764C532.395 247.751 532.208 247.184 532.241 247.171C532.274 247.158 532.524 247.699 532.948 248.69C533.369 249.682 533.959 251.127 534.633 252.933C535.993 256.539 537.704 261.595 539.173 267.299C540.656 272.996 541.631 278.242 542.214 282.052C542.492 283.96 542.705 285.505 542.814 286.578C542.932 287.651 542.979 288.245 542.944 288.25Z" fill="#263238"/>
<path d="M563.009 286.845H524.85V333.339H563.009V286.845Z" fill="#FF725E"/>
<g opacity="0.3">
<path d="M563.009 286.845H524.85V333.339H563.009V286.845Z" fill="black"/>
</g>
<path d="M550.836 286.845H516.981V333.339H550.836V286.845Z" fill="#FF725E"/>
<path d="M54.7494 270.68C48.2496 266.517 39.24 266.438 32.914 270.86C26.9085 275.058 23.8587 282.7 24.1233 290.023C24.3879 297.346 27.9378 306.294 34.5725 310.141L54.0471 310.065C60.2657 305.492 64.4705 298.125 64.7634 290.412C65.0572 282.7 61.2493 274.844 54.7494 270.68Z" fill="#455A64"/>
<path d="M45.1605 310.849C45.1172 310.849 45.0764 310.252 45.0382 309.173C45.004 307.975 44.9608 306.442 44.9083 304.605C44.8102 300.749 44.6579 295.423 44.4007 289.545C44.1411 283.665 43.8249 278.346 43.5844 274.496C43.4746 272.662 43.3839 271.131 43.3123 269.935C43.2557 268.857 43.2449 268.259 43.2873 268.256C43.3298 268.251 43.423 268.842 43.5536 269.915C43.6859 270.987 43.8474 272.54 44.0229 274.463C44.3758 278.309 44.7619 283.63 45.0223 289.519C45.2803 295.405 45.3627 300.74 45.3485 304.601C45.3419 306.532 45.3178 308.094 45.2803 309.174C45.2437 310.252 45.2038 310.849 45.1605 310.849Z" fill="#263238"/>
<path d="M26.0861 288.365C26.072 288.537 25.0135 288.589 23.7228 288.483C22.4313 288.378 21.3962 288.153 21.4103 287.982C21.4244 287.811 22.4821 287.758 23.7736 287.863C25.0642 287.969 26.1002 288.194 26.0861 288.365Z" fill="#263238"/>
<path d="M26.4483 281.794C26.3784 281.952 25.4655 281.699 24.4095 281.23C23.3535 280.762 22.553 280.255 22.6229 280.098C22.692 279.94 23.6048 280.193 24.6617 280.662C25.7185 281.13 26.5182 281.637 26.4483 281.794Z" fill="#263238"/>
<path d="M29.8292 276.916C29.7401 277.06 28.7141 276.576 27.6481 275.691C26.5788 274.809 25.9123 273.891 26.0363 273.777C26.1636 273.657 27.0099 274.358 28.0451 275.212C29.0761 276.069 29.9232 276.768 29.8292 276.916Z" fill="#263238"/>
<path d="M33.23 272.316C33.0727 272.385 32.5809 271.617 32.1315 270.6C31.6822 269.582 31.445 268.702 31.6023 268.632C31.7596 268.563 32.2505 269.331 32.7007 270.348C33.1501 271.365 33.3872 272.246 33.23 272.316Z" fill="#263238"/>
<path d="M38.564 269.05C38.4109 269.122 37.8817 268.304 37.5305 267.17C37.176 266.036 37.1486 265.063 37.315 265.035C37.4872 265.005 37.7826 265.896 38.1247 266.986C38.4608 268.076 38.723 268.977 38.564 269.05Z" fill="#263238"/>
<path d="M47.4664 265.37C47.6287 265.427 47.5297 266.126 47.2459 266.93C46.9621 267.735 46.601 268.341 46.4387 268.283C46.2773 268.226 46.3755 267.528 46.6601 266.723C46.943 265.918 47.3042 265.313 47.4664 265.37Z" fill="#263238"/>
<path d="M54.0695 268.203C54.186 268.329 53.7625 268.911 53.1234 269.502C52.4843 270.094 51.8719 270.471 51.7554 270.344C51.6389 270.219 52.0624 269.637 52.7015 269.045C53.3398 268.455 53.9522 268.077 54.0695 268.203Z" fill="#263238"/>
<path d="M59.882 271.956C59.9786 272.099 59.4618 272.617 58.7287 273.113C57.9956 273.61 57.3224 273.898 57.2267 273.755C57.1302 273.613 57.6469 273.095 58.38 272.598C59.1131 272.102 59.7864 271.814 59.882 271.956Z" fill="#263238"/>
<path d="M64.0092 277.554C64.0766 277.712 63.2628 278.211 62.191 278.667C61.1192 279.124 60.1963 279.366 60.1289 279.209C60.0615 279.051 60.8753 278.553 61.9471 278.096C63.0189 277.638 63.9418 277.396 64.0092 277.554Z" fill="#263238"/>
<path d="M65.6345 283.658C65.6553 283.828 64.8273 284.071 63.7854 284.2C62.7428 284.329 61.8807 284.296 61.859 284.125C61.8382 283.955 62.6662 283.713 63.7089 283.583C64.7507 283.454 65.6128 283.487 65.6345 283.658Z" fill="#263238"/>
<path d="M66.4801 291.171C66.4118 291.328 65.5289 291.097 64.5095 290.654C63.4893 290.21 62.7179 289.723 62.787 289.565C62.8552 289.408 63.7373 289.639 64.7575 290.083C65.7777 290.527 66.5491 291.014 66.4801 291.171Z" fill="#263238"/>
<path d="M65.736 297.619C65.6819 297.776 64.566 297.51 63.4002 296.745C62.2302 295.984 61.5395 295.069 61.661 294.957C61.7875 294.832 62.6346 295.508 63.7397 296.225C64.8398 296.949 65.7992 297.454 65.736 297.619Z" fill="#263238"/>
<path d="M62.3794 303.489C62.277 303.622 61.3891 303.101 60.537 302.18C59.6816 301.263 59.2272 300.339 59.367 300.246C59.5118 300.147 60.1734 300.879 60.9922 301.757C61.8069 302.639 62.4876 303.352 62.3794 303.489Z" fill="#263238"/>
<path d="M30.5017 304.178C30.5807 304.331 29.6487 304.973 28.4188 305.613C27.1889 306.254 26.1279 306.649 26.0489 306.497C25.9698 306.344 26.9018 305.702 28.1317 305.062C29.3608 304.421 30.4218 304.026 30.5017 304.178Z" fill="#263238"/>
<path d="M27.5898 298.87C27.6605 299.026 26.9124 299.518 25.9197 299.968C24.9261 300.418 24.064 300.657 23.9924 300.501C23.9217 300.344 24.669 299.852 25.6625 299.402C26.6561 298.951 27.5182 298.713 27.5898 298.87Z" fill="#263238"/>
<path d="M25.4486 294.167C25.4727 294.337 24.5524 294.608 23.3932 294.773C22.2332 294.938 21.2738 294.933 21.2505 294.763C21.2263 294.593 22.1467 294.322 23.3059 294.157C24.465 293.993 25.4245 293.997 25.4486 294.167Z" fill="#263238"/>
<path d="M32.4696 291.575C32.5204 291.734 31.6225 292.154 30.425 292.287C29.2276 292.424 28.259 292.216 28.2731 292.049C28.2848 291.873 29.2217 291.8 30.3551 291.669C31.4893 291.544 32.4197 291.407 32.4696 291.575Z" fill="#263238"/>
<path d="M38.302 285.771C38.3527 285.932 37.6379 286.293 36.6743 286.386C35.7107 286.483 34.9393 286.267 34.9576 286.1C34.9742 285.926 35.7173 285.858 36.6127 285.767C37.5089 285.682 38.252 285.604 38.302 285.771Z" fill="#263238"/>
<path d="M39.4164 281.123C39.3607 281.285 38.5868 281.166 37.6889 280.855C36.791 280.545 36.1078 280.161 36.1644 279.999C36.2202 279.837 36.9941 279.956 37.8919 280.267C38.7898 280.577 39.473 280.961 39.4164 281.123Z" fill="#263238"/>
<path d="M41.5548 276.422C41.4358 276.541 40.9041 276.19 40.5254 275.531C40.1443 274.873 40.1069 274.238 40.27 274.194C40.4381 274.146 40.7243 274.637 41.0638 275.22C41.3984 275.807 41.6804 276.301 41.5548 276.422Z" fill="#263238"/>
<path d="M38.9767 295.669C39.0175 295.836 38.3476 296.142 37.4805 296.354C36.9796 296.477 36.5227 296.541 36.2232 296.539L36.1008 296.176C36.3255 296.136 36.4703 296.146 36.4994 296.211C36.5286 296.278 36.437 296.39 36.2556 296.528L36.1333 296.166C36.3987 296.027 36.8331 295.873 37.3341 295.75C38.2003 295.539 38.9359 295.502 38.9767 295.669Z" fill="#263238"/>
<path d="M40.1786 303.911C40.241 304.07 39.3872 304.555 38.2713 304.994C37.1546 305.433 36.1993 305.659 36.136 305.499C36.0736 305.339 36.9274 304.854 38.0433 304.416C39.16 303.977 40.1162 303.752 40.1786 303.911Z" fill="#263238"/>
<path d="M33.5905 300.25C33.6462 300.412 33.0762 300.753 32.3181 301.011C31.56 301.269 30.901 301.346 30.8452 301.183C30.7903 301.021 31.3595 300.68 32.1176 300.422C32.8756 300.165 33.5347 300.087 33.5905 300.25Z" fill="#263238"/>
<path d="M34.0938 283.473C34.0547 283.638 33.0628 283.54 31.9169 283.132C30.7702 282.727 29.9381 282.179 30.0105 282.027C30.0845 281.87 31.0107 282.153 32.1241 282.546C33.2367 282.942 34.1354 283.304 34.0938 283.473Z" fill="#263238"/>
<path d="M50.0377 281.65C50.1326 281.793 49.5734 282.328 48.7903 282.845C48.0064 283.362 47.295 283.664 47.2009 283.521C47.1061 283.377 47.6644 282.842 48.4483 282.326C49.2314 281.809 49.9428 281.506 50.0377 281.65Z" fill="#263238"/>
<path d="M50.904 289.925C50.939 290.093 50.3523 290.357 49.5934 290.515C48.8345 290.673 48.1912 290.664 48.1563 290.496C48.1213 290.328 48.708 290.064 49.4669 289.907C50.2258 289.749 50.8691 289.758 50.904 289.925Z" fill="#263238"/>
<path d="M51.9118 299.232C51.8394 299.388 50.9948 299.15 50.0245 298.701C49.0542 298.252 48.3261 297.762 48.3985 297.606C48.4709 297.45 49.3155 297.688 50.2858 298.137C51.2561 298.587 51.9842 299.077 51.9118 299.232Z" fill="#263238"/>
<path d="M49.7798 308.293C49.6467 308.402 49.0983 307.954 48.5541 307.291C48.0098 306.629 47.6762 306.003 47.8093 305.894C47.9416 305.785 48.4908 306.234 49.035 306.896C49.5784 307.559 49.9121 308.184 49.7798 308.293Z" fill="#263238"/>
<path d="M49.3437 275.555C49.4485 275.688 49.0865 276.144 48.4649 276.456C47.8442 276.769 47.2617 276.786 47.2184 276.623C47.1718 276.456 47.6261 276.184 48.1862 275.901C48.7479 275.619 49.2372 275.417 49.3437 275.555Z" fill="#263238"/>
<path d="M57.1567 283.903C57.2133 284.061 56.491 284.459 55.5016 284.595C54.513 284.735 53.7092 284.548 53.7208 284.381C53.73 284.206 54.4947 284.11 55.4159 283.979C56.3379 283.853 57.1002 283.738 57.1567 283.903Z" fill="#263238"/>
<path d="M55.5997 276.41C55.6762 276.56 54.9581 277.072 53.9379 277.397C52.9177 277.725 52.0364 277.724 52.0115 277.557C51.9832 277.385 52.7795 277.117 53.749 276.804C54.7184 276.496 55.5223 276.252 55.5997 276.41Z" fill="#263238"/>
<path d="M58.8618 295.509C58.8593 295.676 57.6318 295.785 56.1515 295.514C54.6694 295.248 53.5585 294.715 53.6151 294.558C53.6717 294.392 54.8325 294.646 56.2621 294.903C57.6901 295.165 58.8676 295.334 58.8618 295.509Z" fill="#263238"/>
<path d="M55.9584 306.395C55.8553 306.528 54.9515 305.997 54.0495 305.089C53.145 304.182 52.6174 303.277 52.7514 303.174C52.8895 303.067 53.616 303.775 54.4905 304.65C55.3618 305.528 56.0666 306.258 55.9584 306.395Z" fill="#263238"/>
<path d="M43.1923 267.551C43.2847 267.684 40.7134 268.727 37.7418 271.858C34.7719 274.92 31.7079 280.329 30.9532 286.863C30.592 290.111 30.9016 293.253 31.3626 296.057C31.8477 298.865 32.491 301.358 33.0843 303.436C33.6809 305.513 34.2285 307.177 34.5963 308.331C34.9649 309.484 35.1621 310.126 35.1197 310.141C35.0814 310.156 34.8077 309.542 34.3683 308.411C33.9297 307.281 33.3165 305.635 32.6632 303.563C32.0125 301.491 31.3193 298.991 30.7976 296.156C30.3008 293.323 29.9638 290.131 30.3349 286.791C31.1055 280.106 34.3125 274.597 37.4247 271.553C38.9734 270.006 40.4288 268.973 41.4906 268.375C42.0057 268.049 42.4509 267.875 42.7346 267.729C43.0267 267.593 43.1832 267.532 43.1923 267.551Z" fill="#263238"/>
<path d="M51.6704 310.541C51.5356 310.474 53.0675 308.115 54.4647 303.865C55.9035 299.666 57.0934 293.449 56.1348 286.696C55.6863 283.329 54.7127 280.208 53.4878 277.541C52.2163 274.911 50.5769 272.757 48.9734 271.254C47.3149 269.788 45.6864 268.946 44.5506 268.459C43.4006 267.979 42.7124 267.867 42.7215 267.815C42.7249 267.795 42.8996 267.805 43.23 267.854C43.557 267.914 44.0396 268.023 44.6379 268.233C45.8254 268.663 47.513 269.454 49.2638 270.923C50.9689 272.445 52.6615 274.595 54.0054 277.294C55.2869 280.007 56.2938 283.179 56.7514 286.61C57.7275 293.489 56.4419 299.802 54.8808 304.009C54.5296 305.083 54.0778 306.003 53.7407 306.832C53.3405 307.634 53.0101 308.331 52.7064 308.882C52.0731 309.972 51.7078 310.562 51.6704 310.541Z" fill="#263238"/>
<path d="M27.5898 309.071H61.8591L62.0696 315.93H27.5898V309.071Z" fill="#FF725E"/>
<path d="M30.5017 312.5L32.4697 333.438H57.523L59.5351 312.729L30.5017 312.5Z" fill="#FF725E"/>
<path d="M62.0697 316.012C62.0697 316.184 54.3525 316.324 44.8353 316.324C35.3147 316.324 27.5991 316.185 27.5991 316.012C27.5991 315.84 35.3147 315.701 44.8353 315.701C54.3525 315.701 62.0697 315.84 62.0697 316.012Z" fill="#263238"/>
<path d="M58.587 322.39C58.6203 322.41 58.389 322.892 57.8531 323.698C57.3155 324.501 56.4601 325.628 55.1952 326.837L55.0379 326.987L54.8823 326.824C53.2322 325.094 50.9654 322.972 48.1661 320.945L48.5447 320.929C47.5878 321.768 46.5909 322.644 45.5673 323.542C44.3507 324.601 43.1716 325.628 42.0474 326.606L41.8527 326.776L41.6571 326.612C39.5235 324.818 37.5821 323.186 35.9353 321.802L36.2682 321.766C35.0865 323.208 34.0938 324.419 33.3082 325.378C32.5959 326.224 32.1832 326.679 32.1457 326.65C32.1091 326.621 32.452 326.112 33.1019 325.218C33.8441 324.226 34.7819 322.971 35.8995 321.478L36.0418 321.287L36.2324 321.442C37.9041 322.797 39.8738 324.394 42.0399 326.149L41.6504 326.155C42.7705 325.172 43.9447 324.14 45.1571 323.076C46.184 322.181 47.1842 321.309 48.1436 320.473L48.3275 320.312L48.5231 320.456C51.3441 322.53 53.6008 324.722 55.2069 326.525L54.894 326.512C57.4362 324.204 58.4888 322.315 58.587 322.39Z" fill="#263238"/>
<path d="M470.343 327.692H107.595C100.9 327.692 95.4731 322.265 95.4731 315.57V83.9001C95.4731 77.2055 100.9 71.7783 107.595 71.7783H470.343C477.037 71.7783 482.465 77.2055 482.465 83.9001V315.57C482.465 322.265 477.037 327.692 470.343 327.692Z" fill="#455A64"/>
<path d="M487.27 333.557H97.6134C89.4343 333.557 82.803 326.926 82.803 318.746V311.164H502.079V318.746C502.08 326.925 495.449 333.557 487.27 333.557Z" fill="#455A64"/>
<path d="M250.819 308.764L256.022 317.04H329.233L334.064 308.764H250.819Z" fill="#263238"/>
<path d="M479.139 308.764C479.139 308.903 393.246 309.014 287.316 309.014C181.348 309.014 95.4731 308.902 95.4731 308.764C95.4731 308.626 181.348 308.513 287.316 308.513C393.246 308.513 479.139 308.626 479.139 308.764Z" fill="#263238"/>
<path d="M467.145 301.998H109.278C107.774 301.998 106.555 300.779 106.555 299.274V89.2175C106.555 87.713 107.774 86.4939 109.278 86.4939H467.145C468.649 86.4939 469.868 87.713 469.868 89.2167V299.275C469.868 300.779 468.649 301.998 467.145 301.998Z" fill="#EBEBEB"/>
<path d="M469.479 302.313H106.166L106.555 102.599H469.479V302.313Z" fill="white"/>
<path d="M136.352 94.8161C136.352 96.4188 135.053 97.7178 133.45 97.7178C131.848 97.7178 130.55 96.4188 130.55 94.8161C130.55 93.2134 131.849 91.9153 133.45 91.9153C135.052 91.9153 136.352 93.2134 136.352 94.8161Z" fill="#263238"/>
<path d="M118.766 94.8161C118.766 96.4188 117.467 97.7178 115.865 97.7178C114.263 97.7178 112.963 96.4188 112.963 94.8161C112.963 93.2134 114.263 91.9153 115.865 91.9153C117.467 91.9153 118.766 93.2134 118.766 94.8161Z" fill="#263238"/>
<path d="M127.208 94.8161C127.208 96.4188 125.909 97.7178 124.306 97.7178C122.703 97.7178 121.404 96.4188 121.404 94.8161C121.404 93.2134 122.703 91.9153 124.306 91.9153C125.909 91.9153 127.208 93.2134 127.208 94.8161Z" fill="#263238"/>
<path d="M469.868 283.028H106.166V302.314H469.868V283.028Z" fill="#263238"/>
<path d="M119.906 294.903V295.52H117.011V295.032L118.572 293.55C118.953 293.185 119.02 292.955 119.02 292.737C119.02 292.377 118.773 292.169 118.29 292.169C117.909 292.169 117.589 292.298 117.37 292.579L116.859 292.186C117.162 291.777 117.707 291.534 118.352 291.534C119.205 291.534 119.755 291.966 119.755 292.663C119.755 293.044 119.648 293.393 119.103 293.904L118.054 294.903H119.906Z" fill="white"/>
<path d="M120.301 292.955C120.301 292.674 120.508 292.489 120.761 292.489C121.013 292.489 121.221 292.674 121.221 292.955C121.221 293.224 121.013 293.42 120.761 293.42C120.508 293.42 120.301 293.224 120.301 292.955ZM120.301 295.093C120.301 294.812 120.508 294.628 120.761 294.628C121.013 294.628 121.221 294.812 121.221 295.093C121.221 295.362 121.013 295.559 120.761 295.559C120.508 295.559 120.301 295.363 120.301 295.093Z" fill="white"/>
<path d="M123.05 291.591V295.52H122.321V292.203H121.489V291.591H123.05Z" fill="white"/>
<path d="M127.331 294.628H126.634V295.52H125.927V294.628H123.772V294.122L125.708 291.591H126.489L124.664 294.011H125.949V293.218H126.634V294.011H127.331V294.628Z" fill="white"/>
<path d="M431.854 293.057H133.749V294.416H431.854V293.057Z" fill="white"/>
<path d="M226.684 291.594H133.526V295.218H226.684V291.594Z" fill="#FF725E"/>
<path d="M229.692 293.737C229.692 296.242 227.661 298.272 225.156 298.272C222.651 298.272 220.62 296.242 220.62 293.737C220.62 291.232 222.65 289.201 225.156 289.201C227.661 289.202 229.692 291.232 229.692 293.737Z" fill="#FF725E"/>
<path d="M439.362 293.693C439.362 294.474 438.728 294.968 437.925 294.968C436.853 294.968 436.224 294.278 436.224 293.014C436.224 291.667 437.01 290.926 438.15 290.926C438.543 290.926 438.919 291.01 439.183 291.178L438.914 291.728C438.701 291.588 438.442 291.538 438.167 291.538C437.427 291.538 436.961 291.999 436.961 292.891V292.897C437.197 292.621 437.573 292.487 438.01 292.487C438.785 292.487 439.362 292.957 439.362 293.693ZM438.655 293.727C438.655 293.318 438.346 293.06 437.87 293.06C437.398 293.06 437.072 293.345 437.072 293.733C437.072 294.103 437.364 294.394 437.886 294.394C438.341 294.394 438.655 294.136 438.655 293.727Z" fill="white"/>
<path d="M439.718 292.347C439.718 292.066 439.925 291.881 440.178 291.881C440.43 291.881 440.638 292.066 440.638 292.347C440.638 292.615 440.43 292.812 440.178 292.812C439.924 292.812 439.718 292.615 439.718 292.347ZM439.718 294.485C439.718 294.204 439.925 294.02 440.178 294.02C440.43 294.02 440.638 294.204 440.638 294.485C440.638 294.754 440.43 294.951 440.178 294.951C439.924 294.95 439.718 294.754 439.718 294.485Z" fill="white"/>
<path d="M441.107 292.947C441.107 291.656 441.814 290.926 442.746 290.926C443.684 290.926 444.391 291.656 444.391 292.947C444.391 294.237 443.684 294.969 442.746 294.969C441.815 294.968 441.107 294.237 441.107 292.947ZM443.656 292.947C443.656 291.999 443.287 291.561 442.747 291.561C442.214 291.561 441.843 291.999 441.843 292.947C441.843 293.896 442.214 294.333 442.747 294.333C443.286 294.333 443.656 293.896 443.656 292.947Z" fill="white"/>
<path d="M444.88 292.947C444.88 291.656 445.587 290.926 446.519 290.926C447.457 290.926 448.164 291.656 448.164 292.947C448.164 294.237 447.457 294.969 446.519 294.969C445.588 294.968 444.88 294.237 444.88 292.947ZM447.429 292.947C447.429 291.999 447.059 291.561 446.52 291.561C445.987 291.561 445.616 291.999 445.616 292.947C445.616 293.896 445.986 294.333 446.52 294.333C447.059 294.333 447.429 293.896 447.429 292.947Z" fill="white"/>
<path d="M454.512 292.703H453.152V288.785H457.064V290.144H454.512V292.703Z" fill="white"/>
<path d="M457.067 297.816H453.148V293.906H454.507V296.457H457.067V297.816Z" fill="white"/>
<path d="M463.307 297.816H459.396V296.457H461.947V293.898H463.307V297.816Z" fill="white"/>
<path d="M463.311 292.695H461.951V290.144H459.392V288.785H463.311V292.695Z" fill="white"/>
<path d="M155.988 114.474H134.574L123.866 133.02L134.574 151.565H155.988L166.695 133.02L155.988 114.474Z" fill="#EBEBEB"/>
<path d="M136.321 136.65C135.364 135.59 134.399 134.519 133.702 133.274C133.004 132.028 132.588 130.575 132.819 129.166C132.954 128.342 133.304 127.558 133.36 126.725C133.436 125.579 132.954 124.381 133.36 123.307C133.995 121.628 136.256 121.369 137.626 120.209C138.693 119.306 139.213 117.839 140.387 117.079C141.412 116.415 142.73 116.43 143.939 116.601C145.149 116.772 146.366 117.077 147.577 116.915C148.44 116.798 149.253 116.449 150.098 116.24C150.944 116.032 151.886 115.976 152.64 116.414C153.393 116.851 153.815 117.92 153.321 118.637C154.724 117.99 156.506 119.084 156.89 120.58C157.274 122.076 156.506 123.693 155.317 124.68C154.128 125.667 152.59 126.126 151.073 126.412C146.775 127.221 142.113 126.765 138.409 124.439" fill="#263238"/>
<path d="M156.175 141.226C156.031 138.572 155.288 133.13 154.558 128.212C153.774 122.923 149.061 119.123 143.726 119.48L143.196 119.516C137.503 120.232 134.931 125.466 135.805 131.137L137.475 151.565H151.368C151.368 151.565 151.039 147.981 151.038 147.946C151.038 147.946 156.475 146.723 156.175 141.226Z" fill="#FFBE9D"/>
<path d="M151.042 147.866C151.042 147.866 147.589 148.38 143.745 146.31C143.745 146.31 145.702 150.149 151.15 149.288L151.042 147.866Z" fill="#EB996E"/>
<path d="M152.79 132.925C152.832 133.339 152.517 133.715 152.087 133.767C151.656 133.819 151.273 133.527 151.23 133.114C151.188 132.701 151.503 132.323 151.933 132.272C152.364 132.219 152.748 132.512 152.79 132.925Z" fill="#263238"/>
<path d="M153.557 130.976C153.467 131.085 152.843 130.685 151.999 130.744C151.155 130.791 150.564 131.267 150.466 131.169C150.418 131.127 150.504 130.935 150.761 130.721C151.013 130.508 151.454 130.287 151.98 130.254C152.506 130.221 152.961 130.385 153.229 130.567C153.502 130.748 153.602 130.927 153.557 130.976Z" fill="#263238"/>
<path d="M144.816 133.495C144.859 133.909 144.543 134.285 144.113 134.337C143.683 134.39 143.299 134.097 143.257 133.684C143.215 133.27 143.53 132.893 143.959 132.842C144.39 132.789 144.774 133.082 144.816 133.495Z" fill="#263238"/>
<path d="M145.27 131.688C145.179 131.797 144.555 131.397 143.711 131.456C142.868 131.503 142.277 131.979 142.179 131.881C142.13 131.839 142.216 131.648 142.474 131.433C142.726 131.219 143.166 130.999 143.692 130.966C144.218 130.934 144.673 131.098 144.941 131.279C145.214 131.46 145.315 131.64 145.27 131.688Z" fill="#263238"/>
<path d="M148.752 137.744C148.745 137.697 149.264 137.57 150.107 137.404C150.321 137.368 150.522 137.311 150.549 137.161C150.589 137.003 150.483 136.776 150.363 136.532C150.125 136.024 149.877 135.491 149.615 134.934C148.573 132.656 147.805 130.777 147.896 130.737C147.988 130.696 148.907 132.508 149.949 134.786C150.201 135.347 150.441 135.883 150.67 136.396C150.769 136.636 150.928 136.904 150.839 137.235C150.791 137.399 150.641 137.527 150.505 137.573C150.369 137.625 150.249 137.635 150.142 137.649C149.289 137.752 148.759 137.791 148.752 137.744Z" fill="#263238"/>
<path d="M145.268 128.366C145.199 128.601 144.35 128.549 143.367 128.735C142.381 128.901 141.601 129.244 141.456 129.047C141.391 128.952 141.516 128.728 141.824 128.484C142.13 128.241 142.626 127.995 143.216 127.89C143.806 127.785 144.357 127.843 144.728 127.965C145.1 128.087 145.296 128.255 145.268 128.366Z" fill="#263238"/>
<path d="M153.084 128.554C152.948 128.755 152.353 128.595 151.653 128.633C150.953 128.645 150.371 128.848 150.221 128.657C150.155 128.564 150.235 128.366 150.482 128.167C150.725 127.969 151.141 127.792 151.623 127.775C152.104 127.758 152.532 127.904 152.788 128.084C153.048 128.264 153.143 128.456 153.084 128.554Z" fill="#263238"/>
<path d="M136.525 135.174C136.429 135.14 132.676 134.31 133.048 138.058C133.419 141.805 137.48 140.583 137.475 140.475C137.471 140.368 136.525 135.174 136.525 135.174Z" fill="#FFBE9D"/>
<path d="M135.815 139.245C135.798 139.234 135.754 139.298 135.649 139.359C135.546 139.419 135.364 139.471 135.162 139.417C134.752 139.311 134.356 138.716 134.271 138.042C134.227 137.701 134.266 137.37 134.361 137.089C134.448 136.804 134.606 136.595 134.802 136.539C134.996 136.473 135.149 136.579 135.205 136.68C135.266 136.779 135.249 136.857 135.27 136.861C135.282 136.869 135.344 136.79 135.299 136.639C135.277 136.566 135.223 136.482 135.129 136.418C135.031 136.354 134.896 136.33 134.758 136.358C134.471 136.407 134.237 136.699 134.134 137.007C134.015 137.318 133.963 137.691 134.011 138.073C134.11 138.826 134.566 139.495 135.124 139.597C135.394 139.64 135.606 139.539 135.711 139.439C135.817 139.337 135.828 139.251 135.815 139.245Z" fill="#EB996E"/>
<path d="M154.281 123.081C154.024 124.573 150.998 125.94 148.49 125.867C146.178 125.799 145.035 124.652 143.355 123.836C142.292 123.32 142.292 123.32 140.849 123.555C139.682 123.745 139.076 125.121 138.421 126.105C139.67 128.826 139.165 131.989 138.636 134.936C138.578 135.261 138.505 135.613 138.257 135.831C137.836 136.203 137.152 135.98 136.738 135.601C136.075 134.993 135.773 134.093 135.556 133.22C135.06 131.232 134.87 129.151 135.184 127.126C135.499 125.102 136.336 123.135 137.72 121.624C139.448 119.735 141.975 118.647 144.532 118.515C147.089 118.384 149.656 119.175 151.798 120.578C152.791 121.23 153.719 122.035 154.281 123.081Z" fill="#263238"/>
<path d="M149.305 139.642C148.669 139.345 148.032 139.048 147.395 138.752C147.285 138.7 147.168 138.648 147.047 138.664C146.912 138.683 146.804 138.783 146.717 138.889C146.274 139.426 146.162 140.235 146.506 140.841C146.849 141.447 147.656 141.767 148.298 141.5C148.975 141.22 149.304 140.433 149.357 139.703L149.305 139.642Z" fill="#EB996E"/>
<path d="M148.357 141.634C148.387 141.672 147.959 141.941 147.238 141.735C146.89 141.63 146.493 141.363 146.248 140.93C145.997 140.509 145.906 139.906 146.122 139.364C146.225 139.095 146.387 138.857 146.584 138.67C146.685 138.575 146.786 138.499 146.909 138.426C147.03 138.337 147.289 138.323 147.413 138.397C147.85 138.64 148.143 138.847 148.436 139.035C148.996 139.406 149.327 139.662 149.297 139.713C149.267 139.765 148.881 139.604 148.281 139.3C147.933 139.118 147.596 138.942 147.262 138.767C147.182 138.746 147.19 138.746 147.114 138.786C147.039 138.834 146.951 138.902 146.878 138.975C146.729 139.124 146.605 139.311 146.526 139.519C146.359 139.937 146.417 140.389 146.597 140.738C146.776 141.091 147.066 141.324 147.344 141.447C147.919 141.693 148.346 141.565 148.357 141.634Z" fill="#263238"/>
<path d="M147.755 133.02C147.712 133.021 147.717 132.671 147.551 132.084C147.386 131.508 146.986 130.67 146.116 130.031C145.276 129.388 143.902 129.034 142.577 129.531C141.262 129.988 140.13 131.387 140.145 133.019C140.13 134.651 141.263 136.05 142.577 136.507C143.902 137.005 145.277 136.65 146.116 136.008C146.985 135.367 147.385 134.529 147.55 133.954C147.717 133.367 147.712 133.017 147.755 133.02C147.77 133.02 147.78 133.105 147.786 133.272C147.795 133.437 147.779 133.685 147.714 133.996C147.593 134.608 147.217 135.526 146.302 136.252C145.419 136.979 143.918 137.413 142.44 136.883C140.975 136.401 139.693 134.845 139.711 133.02C139.694 131.195 140.975 129.639 142.44 129.157C143.918 128.627 145.419 129.061 146.302 129.788C147.217 130.513 147.593 131.431 147.714 132.044C147.779 132.355 147.795 132.603 147.786 132.768C147.78 132.933 147.77 133.02 147.755 133.02Z" fill="#263238"/>
<path d="M157.1 132.652C157.059 132.654 157.063 132.312 156.899 131.742C156.738 131.181 156.347 130.365 155.501 129.743C154.683 129.118 153.345 128.773 152.056 129.258C150.777 129.704 149.676 131.064 149.69 132.652C149.675 134.24 150.777 135.601 152.056 136.046C153.346 136.531 154.684 136.187 155.502 135.561C156.348 134.938 156.738 134.122 156.9 133.562C157.063 132.991 157.059 132.65 157.1 132.652C157.115 132.652 157.126 132.736 157.132 132.897C157.141 133.059 157.126 133.3 157.063 133.603C156.946 134.201 156.58 135.096 155.687 135.804C154.827 136.513 153.362 136.937 151.92 136.421C150.492 135.951 149.24 134.432 149.258 132.651C149.241 130.87 150.492 129.352 151.92 128.882C153.362 128.366 154.827 128.789 155.687 129.498C156.58 130.206 156.946 131.102 157.063 131.699C157.126 132.002 157.141 132.243 157.132 132.405C157.126 132.568 157.115 132.652 157.1 132.652Z" fill="#263238"/>
<path d="M149.474 131.789C149.389 131.869 149.018 131.629 148.518 131.645C148.017 131.645 147.657 131.899 147.568 131.824C147.454 131.764 147.803 131.224 148.51 131.212C149.216 131.202 149.585 131.723 149.474 131.789Z" fill="#263238"/>
<path d="M140.164 132.463C140.236 132.559 139.509 133.223 138.54 133.945C137.573 134.668 136.73 135.176 136.658 135.08C136.587 134.984 137.313 134.32 138.282 133.598C139.249 132.876 140.092 132.367 140.164 132.463Z" fill="#263238"/>
<path d="M217.4 132.83C217.4 132.95 207.774 133.046 195.901 133.046C184.025 133.046 174.4 132.949 174.4 132.83C174.4 132.711 184.025 132.614 195.901 132.614C207.773 132.614 217.4 132.711 217.4 132.83Z" fill="#263238"/>
<path d="M197.514 137.33C197.514 137.45 192.402 137.547 186.098 137.547C179.791 137.547 174.681 137.449 174.681 137.33C174.681 137.211 179.792 137.114 186.098 137.114C192.402 137.114 197.514 137.211 197.514 137.33Z" fill="#263238"/>
<path d="M340.705 116.442L348.014 103.56C344.78 98.3118 342.911 92.1323 342.911 85.516C342.911 66.4865 358.338 51.0603 377.366 51.0603C396.396 51.0603 411.821 66.4865 411.821 85.516C411.821 104.545 396.395 119.971 377.366 119.971C369.42 119.971 362.109 117.274 356.28 112.755L356.291 112.77L340.705 116.442Z" fill="#FAFAFA"/>
<path d="M340.705 116.442C341.446 116.273 346.381 115.145 356.317 112.874L356.477 112.838L356.377 112.706L356.365 112.691L356.216 112.839C358.182 114.362 360.536 115.862 363.304 117.112C366.075 118.341 369.249 119.345 372.754 119.811C374.504 120.035 376.333 120.179 378.212 120.087C379.15 120.034 380.106 120.012 381.07 119.931C382.028 119.786 382.998 119.64 383.982 119.491C387.885 118.72 391.875 117.239 395.597 114.93C399.316 112.629 402.761 109.503 405.522 105.664C408.278 101.831 410.368 97.2866 411.347 92.3478C412.316 87.4157 412.235 82.1308 410.94 77.0148C409.636 71.9171 407.199 66.9367 403.552 62.8392L402.144 61.2906C401.681 60.7697 401.13 60.3403 400.628 59.8627C400.103 59.4108 399.629 58.8991 399.065 58.4996L397.411 57.2631C396.875 56.8304 396.285 56.4809 395.698 56.1305C395.114 55.776 394.531 55.4215 393.949 55.0687C393.337 54.7716 392.727 54.4754 392.118 54.18C391.504 53.8971 390.913 53.5617 390.27 53.3587C385.263 51.3715 379.923 50.6143 374.82 50.9846C369.715 51.3524 364.829 52.8169 360.638 55.1761C356.434 57.516 352.89 60.6407 350.153 64.1307C347.409 67.6224 345.475 71.4735 344.279 75.3081C343.089 79.1609 342.767 82.9821 342.781 86.5187C342.883 90.0644 343.529 93.3306 344.468 96.1973C345.41 99.0682 346.648 101.537 347.925 103.614L347.923 103.51C343.313 111.77 341.059 115.808 340.705 116.442C341.068 115.813 343.378 111.807 348.103 103.611L348.133 103.559L348.101 103.507C346.846 101.433 345.631 98.9733 344.71 96.1191C343.791 93.269 343.165 90.0261 343.077 86.5095C343.078 83.002 343.409 79.2175 344.598 75.4054C345.795 71.6109 347.719 67.8046 350.442 64.3554C353.157 60.9078 356.67 57.8248 360.83 55.5172C364.976 53.1914 369.806 51.751 374.851 51.3923C379.897 51.032 385.171 51.7834 390.115 53.7489C390.75 53.9495 391.334 54.2815 391.939 54.5611C392.54 54.8532 393.144 55.1461 393.748 55.4398C394.322 55.7885 394.898 56.1388 395.474 56.4892C396.054 56.8362 396.638 57.1807 397.166 57.6084L398.8 58.83C399.358 59.2244 399.825 59.7304 400.343 60.1764C400.838 60.6491 401.384 61.0726 401.84 61.5869L403.231 63.1172C406.834 67.1639 409.24 72.0827 410.531 77.1171C411.813 82.1691 411.897 87.3924 410.945 92.2663C409.983 97.1468 407.922 101.64 405.204 105.434C402.48 109.234 399.079 112.332 395.404 114.617C391.727 116.909 387.782 118.386 383.919 119.16C382.946 119.31 381.985 119.458 381.037 119.605C380.082 119.687 379.135 119.713 378.205 119.769C376.343 119.866 374.531 119.729 372.795 119.514C369.318 119.065 366.166 118.083 363.409 116.876C360.657 115.649 358.31 114.172 356.346 112.67L355.705 112.179L356.197 112.819L356.209 112.833L356.269 112.666C346.362 115.07 341.443 116.263 340.705 116.442Z" fill="#263238"/>
<path d="M386.67 84.0783C386.67 85.9381 388.177 87.4451 390.037 87.4451C391.897 87.4451 393.405 85.9381 393.405 84.0783C393.405 82.2184 391.898 80.7114 390.037 80.7114C388.177 80.7114 386.67 82.2184 386.67 84.0783Z" fill="#263238"/>
<path d="M373.195 84.0783C373.195 85.9381 374.703 87.4451 376.562 87.4451C378.421 87.4451 379.929 85.9381 379.929 84.0783C379.929 82.2184 378.422 80.7114 376.562 80.7114C374.703 80.7114 373.195 82.2184 373.195 84.0783Z" fill="#263238"/>
<path d="M359.755 82.3946C358.825 84.0048 359.377 86.0644 360.987 86.9947C362.598 87.9242 364.657 87.3725 365.587 85.7623C366.517 84.1521 365.965 82.0926 364.355 81.1631C362.744 80.2319 360.684 80.7836 359.755 82.3946Z" fill="#263238"/>
<path d="M349.915 169.655C349.915 169.655 361.344 175.223 365.357 189.602C369.371 203.981 381.663 241.426 381.663 241.426C381.663 241.426 388.687 249.689 389.44 255.809C390.192 261.928 388.687 276.729 386.43 279.488C384.172 282.248 380.953 281.791 380.953 281.791L351.388 278.987L339.747 201.035L349.915 169.655Z" fill="#FF725E"/>
<path d="M252.149 168.293C252.149 168.293 231.01 174.923 225.741 180.692L243.051 261.217L242.775 286.624H342.996C342.996 285.37 343.895 202.267 343.895 202.267L349.915 169.656L314.294 163.385L307.27 157.866L267.635 159.873L261.614 165.894L252.149 168.293Z" fill="#FF725E"/>
<g opacity="0.3">
<path d="M260.178 238.152C259.869 237.469 259.427 236.731 258.693 236.579C257.486 236.33 256.679 237.757 256.268 238.92C253.012 248.138 248.706 256.615 243.102 264.626L242.845 276.99C248.688 272.073 254.449 266.807 258.173 260.14C261.898 253.474 263.323 245.11 260.178 238.152Z" fill="black"/>
</g>
<path d="M225.742 180.693C225.742 180.693 218.777 190.188 215.884 196.386C212.991 202.584 189.026 254.648 187.58 260.02C186.133 265.391 182.414 282.333 193.365 286.258H215.884L238.487 240.552L239.643 187.502L225.742 180.693Z" fill="#FF725E"/>
<path d="M217.326 253.241C217.296 253.275 216.824 252.798 215.787 252.208C214.752 251.623 213.145 250.951 211.061 250.497C210.021 250.269 208.864 250.091 207.616 250.012C206.367 249.934 205.026 249.957 203.666 250.269C200.934 250.879 198.219 252.604 196.084 255.028C193.916 257.45 192.578 260.311 191.792 263.01C190.994 265.714 190.653 268.25 190.437 270.376C190.227 272.507 190.148 274.241 190.074 275.438C190.039 275.998 190.01 276.454 189.988 276.817C189.964 277.133 189.944 277.298 189.929 277.297C189.914 277.297 189.905 277.131 189.9 276.815C189.902 276.451 189.904 275.993 189.906 275.433C189.929 274.233 189.96 272.493 190.133 270.349C190.31 268.209 190.621 265.647 191.409 262.897C192.184 260.158 193.542 257.218 195.76 254.741C197.945 252.26 200.747 250.488 203.579 249.88C204.991 249.567 206.378 249.559 207.64 249.654C208.909 249.749 210.079 249.947 211.13 250.198C213.234 250.697 214.849 251.424 215.874 252.064C216.386 252.387 216.756 252.678 216.991 252.892C217.221 253.111 217.336 253.23 217.326 253.241Z" fill="#263238"/>
<path d="M206.647 244.141C206.645 244.111 206.913 244.069 207.404 244.019C207.895 243.959 208.611 243.945 209.493 243.991C210.377 244.029 211.424 244.181 212.565 244.444C213.7 244.73 214.926 245.141 216.151 245.717C217.37 246.307 218.461 247.001 219.397 247.704C220.321 248.425 221.097 249.143 221.683 249.806C222.274 250.462 222.713 251.029 222.975 251.447C223.245 251.86 223.382 252.095 223.357 252.112C223.291 252.158 222.68 251.256 221.461 250.016C220.857 249.392 220.075 248.712 219.158 248.023C218.228 247.353 217.156 246.685 215.964 246.108C214.766 245.545 213.572 245.133 212.466 244.832C211.355 244.553 210.334 244.373 209.468 244.296C207.738 244.129 206.652 244.222 206.647 244.141Z" fill="#263238"/>
<path d="M227.007 241.636C227.002 241.665 226.63 241.636 225.965 241.557C225.301 241.471 224.337 241.375 223.145 241.287C220.762 241.106 217.449 241.063 213.829 241.491C210.208 241.929 206.998 242.753 204.725 243.49C203.588 243.857 202.673 244.179 202.048 244.419C201.421 244.653 201.066 244.769 201.054 244.742C201.043 244.714 201.373 244.545 201.984 244.262C202.591 243.974 203.494 243.607 204.627 243.2C206.889 242.383 210.121 241.503 213.777 241.061C217.433 240.628 220.78 240.721 223.172 240.981C224.369 241.109 225.332 241.253 225.991 241.391C226.651 241.52 227.013 241.607 227.007 241.636Z" fill="#263238"/>
<path d="M291.15 197.154C291.141 197.161 291.063 197.067 290.921 196.883C290.76 196.667 290.557 196.396 290.307 196.06C289.755 195.296 288.994 194.24 288.042 192.923C286.099 190.181 283.387 186.355 280.199 181.856L280.548 181.807C279.335 185.371 277.995 189.302 276.586 193.439L276.497 193.701L276.27 193.555C276.123 193.46 275.963 193.358 275.803 193.254C273.939 192.073 272.296 190.652 270.899 189.114C269.51 187.568 268.356 185.918 267.399 184.272C265.484 180.972 264.33 177.716 263.546 174.958C262.767 172.192 262.36 169.902 262.087 168.324C261.956 167.569 261.851 166.965 261.772 166.509C261.733 166.302 261.692 166.15 261.666 166.045C261.627 165.949 261.608 165.896 261.614 165.891C261.706 165.852 261.95 166.724 262.253 168.293C262.576 169.86 263.027 172.134 263.84 174.872C264.656 177.604 265.833 180.821 267.742 184.07C268.698 185.69 269.842 187.31 271.213 188.827C272.59 190.336 274.206 191.727 276.034 192.887C276.191 192.988 276.347 193.09 276.492 193.182L276.176 193.298C277.597 189.164 278.949 185.237 280.173 181.677L280.3 181.306L280.522 181.627C283.659 186.162 286.325 190.019 288.237 192.784C289.149 194.128 289.88 195.205 290.409 195.985C290.639 196.335 290.825 196.619 290.972 196.843C291.099 197.042 291.16 197.148 291.15 197.154Z" fill="#263238"/>
<g opacity="0.3">
<path d="M317.242 235.595C316.313 244.905 318.369 254.488 323.033 262.599C327.697 270.71 334.53 277.938 343.043 281.818C343.318 273.555 342.921 263.82 343.196 255.555L317.242 235.595Z" fill="black"/>
</g>
<path d="M316.299 224.714C316.299 224.714 312.659 225.725 315.389 233.183C318.119 240.641 319.03 240.191 320.85 247.167C322.67 254.145 324.793 260.512 327.979 264.455C331.164 268.399 342.995 276.438 342.995 276.438L353.614 266.427C353.614 266.427 351.864 258.966 352.284 253.899C352.704 248.832 353.766 236.394 353.614 234.271C353.462 232.147 351.186 226.99 351.186 226.99V223.462L345.726 206.664C345.726 206.664 342.692 205.299 341.631 210.153L339.811 205.001C339.811 205.001 336.929 204.541 336.17 210.456C335.412 216.371 336.777 224.562 336.777 224.562L335.26 234.877L332.985 241.854L331.013 242.158C331.013 242.158 328.044 241.347 326.419 235.761C324.794 230.175 320.395 223.501 316.299 224.714Z" fill="#FFBE9D"/>
<path d="M350.059 251.098C350.047 251.099 350.03 250.968 350.01 250.715C349.99 250.426 349.965 250.059 349.933 249.604C349.878 248.586 349.803 247.179 349.708 245.426C349.545 241.804 349.317 236.765 349.052 230.881L349.099 231.003C348.612 230.419 347.741 230.246 346.951 230.443C346.148 230.637 345.428 231.138 344.983 231.885C344.055 233.377 344.005 235.322 343.714 237.199C343.139 241.45 342.59 245.499 342.091 249.188C341.839 251.03 341.572 252.784 341.212 254.407C340.864 256.032 340.373 257.511 339.896 258.831C339.426 260.156 339.011 261.354 338.753 262.434C338.494 263.511 338.39 264.465 338.41 265.242C338.443 266.81 338.898 267.605 338.831 267.621C338.817 267.627 338.73 267.428 338.576 267.04C338.451 266.644 338.275 266.045 338.242 265.249C338.196 264.456 338.277 263.478 338.518 262.379C338.757 261.279 339.155 260.062 339.606 258.731C340.065 257.401 340.53 255.944 340.861 254.33C341.202 252.72 341.453 250.976 341.695 249.134C342.184 245.443 342.721 241.393 343.285 237.141C343.419 236.193 343.521 235.257 343.686 234.322C343.854 233.394 344.112 232.462 344.622 231.656C345.107 230.838 345.956 230.237 346.855 230.035C347.742 229.812 348.803 230.007 349.41 230.74L349.455 230.795L349.457 230.863C349.659 236.75 349.832 241.792 349.957 245.416C350.002 247.17 350.039 248.579 350.065 249.598C350.07 250.054 350.074 250.422 350.077 250.712C350.076 250.966 350.07 251.097 350.059 251.098Z" fill="#EB996E"/>
<path d="M344.253 231.984C344.228 231.994 344.059 231.661 343.806 231.035C343.557 230.407 343.226 229.485 342.917 228.316C342.607 227.148 342.32 225.731 342.155 224.137C342.073 223.341 342.016 222.49 342.109 221.604C342.2 220.725 342.461 219.792 343.024 219.004C343.504 218.32 344.188 217.774 344.966 217.546L345.129 217.499L345.212 217.645C346.75 220.358 348.085 222.753 349.025 224.476C349.456 225.282 349.819 225.961 350.113 226.512C350.36 226.993 350.485 227.263 350.461 227.276C350.438 227.289 350.27 227.045 349.981 226.587C349.657 226.053 349.257 225.396 348.782 224.615C347.777 222.93 346.395 220.561 344.842 217.857L345.087 217.956C344.418 218.156 343.813 218.633 343.378 219.254C342.868 219.968 342.623 220.817 342.53 221.651C342.436 222.489 342.481 223.314 342.551 224.1C342.692 225.673 342.945 227.078 343.213 228.244C343.48 229.41 343.765 230.339 343.964 230.98C344.167 231.618 344.283 231.972 344.253 231.984Z" fill="#EB996E"/>
<path d="M341.715 233.349C341.686 233.35 341.652 233.005 341.617 232.382C341.588 231.666 341.552 230.784 341.51 229.741C341.438 227.512 341.369 224.432 341.32 221.029C341.294 217.63 341.162 214.538 341.455 212.298C341.596 211.182 341.819 210.294 342.024 209.7C342.226 209.104 342.392 208.797 342.414 208.806C342.489 208.83 341.95 210.119 341.76 212.331C341.549 214.534 341.728 217.617 341.754 221.022C341.803 224.425 341.824 227.506 341.817 229.737C341.805 230.781 341.795 231.664 341.786 232.379C341.769 233.003 341.745 233.349 341.715 233.349Z" fill="#EB996E"/>
<path d="M332.738 261.319C332.676 261.268 333.341 260.486 334.162 259.068C334.578 258.362 335.001 257.483 335.398 256.478C335.776 255.466 336.116 254.326 336.344 253.101C336.559 251.873 336.639 250.686 336.639 249.605C336.618 248.526 336.53 247.553 336.387 246.747C336.113 245.132 335.763 244.167 335.839 244.14C335.867 244.13 335.973 244.363 336.141 244.797C336.317 245.228 336.51 245.877 336.687 246.69C336.872 247.504 336.994 248.495 337.037 249.598C337.06 250.702 336.99 251.92 336.77 253.178C336.536 254.433 336.175 255.599 335.768 256.625C335.342 257.644 334.881 258.529 334.424 259.226C333.973 259.927 333.566 260.467 333.25 260.809C332.941 261.156 332.76 261.338 332.738 261.319Z" fill="#EB996E"/>
<path d="M351.376 256.1L360.59 259.298C360.59 259.298 369.388 254.748 375.455 259.298C381.522 263.848 386.792 275.841 385.123 280.695C385.123 280.695 380.936 285.865 377.751 286.623C374.565 287.381 362.182 284.382 357.03 283.297C351.864 282.21 342.995 276.438 342.995 276.438L351.376 256.1Z" fill="#FFBE9D"/>
<path d="M352.508 269.675C352.478 269.675 352.445 269.385 352.41 268.86C352.374 268.235 352.33 267.495 352.279 266.634C352.181 264.754 352.054 262.154 352.016 259.277C351.973 256.401 352.054 253.79 352.228 251.91C352.31 250.969 352.413 250.21 352.507 249.69C352.602 249.17 352.668 248.886 352.698 248.891C352.766 248.902 352.622 250.056 352.534 251.931C352.439 253.807 352.406 256.402 352.449 259.272C352.502 262.085 352.548 264.628 352.585 266.624C352.596 267.566 352.593 268.33 352.578 268.857C352.562 269.384 352.538 269.675 352.508 269.675Z" fill="#EB996E"/>
<path d="M382.891 258.937C382.822 259.001 381.879 257.691 379.827 256.175C377.809 254.662 374.528 253.049 370.646 252.831C366.76 252.62 363.323 253.864 361.15 255.145C358.944 256.427 357.863 257.626 357.801 257.554C357.783 257.538 358.039 257.23 358.56 256.732C359.08 256.233 359.893 255.566 360.993 254.882C363.162 253.51 366.675 252.182 370.669 252.398C374.661 252.622 378.007 254.328 380.012 255.93C381.03 256.73 381.765 257.482 382.227 258.036C382.691 258.589 382.911 258.922 382.891 258.937Z" fill="#263238"/>
<path d="M381.708 251.254C381.649 251.344 380.418 250.101 377.874 249.14C375.371 248.159 371.487 247.707 367.501 248.829C365.511 249.384 363.692 250.18 362.136 251.062C360.582 251.952 359.283 252.925 358.25 253.807C357.216 254.689 356.425 255.46 355.883 255.996C355.341 256.532 355.039 256.829 355.016 256.808C354.995 256.789 355.254 256.454 355.76 255.879C356.267 255.305 357.029 254.497 358.049 253.576C359.066 252.655 360.365 251.641 361.936 250.716C363.511 249.798 365.356 248.978 367.384 248.411C371.469 247.261 375.455 247.777 377.986 248.855C379.264 249.38 380.216 249.983 380.822 250.456C381.134 250.681 381.344 250.898 381.497 251.029C381.645 251.166 381.717 251.243 381.708 251.254Z" fill="#263238"/>
<path d="M381.784 244.595C381.761 244.681 380.15 244.188 377.474 243.826C376.139 243.637 374.533 243.53 372.751 243.527C370.969 243.553 369.013 243.7 366.985 244.046C364.96 244.413 363.071 244.943 361.387 245.527C359.714 246.138 358.241 246.786 357.049 247.421C354.658 248.675 353.312 249.688 353.261 249.615C353.244 249.591 353.573 249.33 354.184 248.877C354.487 248.647 354.866 248.376 355.328 248.095C355.788 247.811 356.298 247.462 356.905 247.151C358.088 246.475 359.565 245.79 361.251 245.151C362.947 244.539 364.859 243.99 366.909 243.619C368.963 243.269 370.947 243.132 372.75 243.128C374.553 243.153 376.174 243.293 377.517 243.523C378.194 243.609 378.792 243.762 379.322 243.873C379.852 243.979 380.3 244.104 380.664 244.217C381.394 244.434 381.792 244.567 381.784 244.595Z" fill="#263238"/>
<path d="M311.189 163.109C311.189 163.109 311.617 163.907 311.827 165.559C312.054 167.202 312.022 169.66 311.478 172.707C311.204 174.23 310.835 175.904 310.287 177.689C309.715 179.478 308.848 181.306 307.867 183.224C305.883 187.051 303.385 191.224 300.493 195.674L300.155 196.194L300.154 195.572C300.15 192.631 300.145 189.545 300.14 186.339L300.464 186.493C297.986 188.493 295.379 190.598 292.692 192.766L292.76 192.667C290.959 198.375 289.773 204.73 289.303 211.347C288.543 221.474 289.156 231.16 289.633 239.948C290.043 248.748 290.311 256.671 290.585 263.325C290.849 269.979 291.09 275.362 291.29 279.08C291.399 280.922 291.484 282.36 291.543 283.36C291.575 283.833 291.599 284.203 291.617 284.472C291.631 284.724 291.628 284.853 291.628 284.853C291.628 284.853 291.602 284.726 291.573 284.476C291.545 284.208 291.506 283.839 291.457 283.367C291.364 282.391 291.245 280.949 291.122 279.091C290.87 275.374 290.583 269.992 290.279 263.339C289.981 256.68 289.628 248.761 289.235 239.968C288.736 231.188 288.108 221.481 288.871 211.314C289.343 204.671 290.54 198.28 292.361 192.539L292.38 192.479L292.429 192.439C295.121 190.276 297.733 188.177 300.214 186.182L300.539 185.922L300.538 186.338C300.533 189.543 300.528 192.63 300.524 195.571L300.185 195.469C305.902 186.603 310.551 178.9 311.267 172.667C311.839 169.643 311.904 167.204 311.715 165.572C311.635 164.752 311.475 164.14 311.373 163.728C311.243 163.324 311.189 163.109 311.189 163.109Z" fill="#263238"/>
<path d="M296.264 270.451L295.967 270.441C294.763 270.476 293.69 271.576 293.687 272.781C293.683 273.985 294.749 275.092 295.953 275.134C297.157 275.175 298.297 274.145 298.377 272.944C298.457 271.741 297.463 270.569 296.264 270.451Z" fill="white"/>
<path d="M296.264 238.379L295.967 238.369C294.763 238.404 293.69 239.504 293.687 240.708C293.683 241.912 294.749 243.02 295.953 243.061C297.157 243.103 298.297 242.073 298.377 240.871C298.457 239.67 297.463 238.497 296.264 238.379Z" fill="white"/>
<path d="M295.953 209.686C297.157 209.727 298.297 208.697 298.377 207.496C298.457 206.294 297.463 205.122 296.264 205.003L295.967 204.993C294.763 205.028 293.69 206.128 293.687 207.333C293.683 208.537 294.749 209.644 295.953 209.686Z" fill="white"/>
<path d="M260.026 125.529C257.109 122.3 254.166 119.034 252.039 115.236C249.913 111.438 248.644 107.006 249.348 102.711C249.76 100.2 250.826 97.8071 250.996 95.2674C251.23 91.7724 249.76 88.121 250.999 84.8456C252.936 79.7263 259.828 78.935 264.006 75.3984C267.259 72.644 268.845 68.172 272.424 65.8562C275.551 63.8324 279.568 63.8765 283.256 64.3983C286.944 64.92 290.654 65.8504 294.346 65.3544C296.977 65.0007 299.455 63.9364 302.033 63.2982C304.61 62.6599 307.486 62.4918 309.782 63.8258C312.078 65.1597 313.366 68.4184 311.861 70.6061C316.139 68.6339 321.572 71.9674 322.742 76.5301C323.913 81.0927 321.569 86.0215 317.945 89.0305C314.321 92.0387 309.633 93.4392 305.005 94.3113C291.9 96.7811 277.685 95.3881 266.392 88.2957" fill="#263238"/>
<path d="M306.095 169.587C305.455 164.627 304.932 160.487 304.9 159.973C304.9 159.973 321.478 156.248 320.564 139.486C320.122 131.385 317.854 114.775 315.629 99.7711C313.239 83.6583 298.857 72.0916 282.604 73.1792L280.988 73.2873C263.63 75.4709 255.788 91.4322 258.451 108.722L267.817 166.699C267.817 166.699 271.814 179.524 280.361 181.744L291.15 197.155L292.933 190.52L300.975 183.519C300.975 183.519 302.82 181.523 304.94 177.618C306.671 174.427 306.307 171.144 306.095 169.587Z" fill="#FFBE9D"/>
<path d="M304.912 159.73C304.912 159.73 294.385 161.3 282.662 154.985C282.662 154.985 288.629 166.694 305.241 164.067L304.912 159.73Z" fill="#EB996E"/>
<path d="M310.243 114.174C310.372 115.433 309.411 116.582 308.098 116.741C306.787 116.899 305.618 116.009 305.489 114.749C305.36 113.489 306.32 112.339 307.631 112.18C308.944 112.022 310.114 112.914 310.243 114.174Z" fill="#263238"/>
<path d="M312.581 108.231C312.306 108.563 310.404 107.343 307.83 107.522C305.257 107.664 303.457 109.114 303.156 108.818C303.01 108.687 303.274 108.104 304.056 107.451C304.826 106.801 306.168 106.128 307.771 106.028C309.375 105.93 310.763 106.429 311.578 106.981C312.412 107.536 312.718 108.082 312.581 108.231Z" fill="#263238"/>
<path d="M285.928 115.912C286.057 117.172 285.097 118.32 283.784 118.479C282.473 118.638 281.303 117.748 281.174 116.488C281.045 115.228 282.006 114.078 283.317 113.919C284.63 113.76 285.8 114.652 285.928 115.912Z" fill="#263238"/>
<path d="M287.313 110.403C287.037 110.735 285.133 109.515 282.562 109.694C279.989 109.837 278.188 111.286 277.888 110.99C277.742 110.859 278.003 110.277 278.79 109.623C279.559 108.972 280.901 108.3 282.504 108.199C284.108 108.101 285.496 108.601 286.312 109.153C287.142 109.708 287.45 110.254 287.313 110.403Z" fill="#263238"/>
<path d="M297.931 128.867C297.91 128.721 299.491 128.338 302.061 127.833C302.714 127.722 303.328 127.55 303.409 127.094C303.532 126.608 303.21 125.919 302.839 125.175C302.115 123.626 301.357 122.002 300.561 120.3C297.385 113.355 295.04 107.627 295.32 107.502C295.601 107.377 298.403 112.903 301.579 119.849C302.346 121.562 303.079 123.196 303.777 124.759C304.075 125.49 304.56 126.308 304.291 127.316C304.147 127.818 303.688 128.208 303.275 128.349C302.862 128.506 302.492 128.538 302.169 128.579C299.569 128.893 297.951 129.012 297.931 128.867Z" fill="#263238"/>
<path d="M287.303 100.273C287.096 100.989 284.504 100.83 281.509 101.396C278.502 101.902 276.126 102.949 275.683 102.348C275.484 102.059 275.865 101.373 276.804 100.63C277.734 99.8876 279.249 99.1412 281.048 98.8175C282.847 98.4987 284.526 98.6752 285.656 99.0488C286.796 99.4208 287.391 99.9334 287.303 100.273Z" fill="#263238"/>
<path d="M311.137 100.845C310.723 101.46 308.909 100.972 306.775 101.086C304.638 101.125 302.864 101.742 302.407 101.158C302.206 100.874 302.45 100.269 303.202 99.6629C303.942 99.0596 305.213 98.522 306.681 98.4679C308.149 98.4163 309.454 98.8615 310.236 99.4108C311.029 99.9616 311.317 100.547 311.137 100.845Z" fill="#263238"/>
<path d="M260.649 121.032C260.355 120.927 248.913 118.398 250.045 129.825C251.177 141.251 263.56 137.526 263.547 137.196C263.534 136.866 260.649 121.032 260.649 121.032Z" fill="#FFBE9D"/>
<path d="M258.483 133.444C258.429 133.413 258.297 133.603 257.976 133.791C257.663 133.974 257.109 134.133 256.492 133.969C255.241 133.646 254.034 131.83 253.775 129.776C253.642 128.739 253.763 127.727 254.05 126.871C254.316 126.001 254.799 125.363 255.396 125.195C255.987 124.996 256.453 125.317 256.625 125.625C256.809 125.929 256.76 126.164 256.822 126.178C256.857 126.204 257.048 125.963 256.909 125.5C256.839 125.278 256.679 125.021 256.389 124.828C256.093 124.632 255.679 124.559 255.259 124.646C254.385 124.794 253.671 125.684 253.355 126.623C252.992 127.572 252.832 128.712 252.981 129.876C253.282 132.171 254.674 134.209 256.373 134.523C257.198 134.653 257.845 134.345 258.164 134.04C258.49 133.722 258.524 133.461 258.483 133.444Z" fill="#EB996E"/>
<path d="M314.788 84.1592C314.003 88.7077 304.778 92.875 297.13 92.652C290.079 92.4465 286.596 88.9481 281.473 86.4617C278.23 84.8881 278.23 84.8881 273.829 85.6029C270.272 86.1813 268.425 90.3794 266.427 93.3793C270.233 101.675 268.695 111.321 267.081 120.304C266.903 121.297 266.682 122.369 265.926 123.035C264.641 124.168 262.559 123.49 261.295 122.333C259.273 120.481 258.351 117.735 257.689 115.075C256.179 109.014 255.599 102.667 256.557 96.494C257.516 90.322 260.07 84.3256 264.287 79.718C269.558 73.9596 277.262 70.6402 285.058 70.2391C292.854 69.8389 300.683 72.2512 307.214 76.5293C310.244 78.5139 313.076 80.9679 314.788 84.1592Z" fill="#263238"/>
<path d="M299.615 134.655C297.673 133.75 295.732 132.844 293.791 131.939C293.456 131.783 293.098 131.623 292.731 131.672C292.319 131.727 291.988 132.036 291.724 132.357C290.373 133.993 290.032 136.463 291.078 138.308C292.124 140.154 294.583 141.129 296.543 140.318C298.608 139.463 299.611 137.066 299.772 134.837L299.615 134.655Z" fill="#EB996E"/>
<path d="M296.726 140.729C296.742 140.779 296.456 140.947 295.874 141.068C295.296 141.179 294.402 141.222 293.368 140.884C292.345 140.555 291.189 139.759 290.476 138.48C289.749 137.235 289.487 135.475 290.121 133.887C290.424 133.098 290.897 132.401 291.472 131.85C291.764 131.572 292.067 131.343 292.417 131.136C292.599 131.034 292.827 130.935 293.088 130.922C293.346 130.908 293.576 130.974 293.764 131.053C294.144 131.222 294.392 131.406 294.672 131.568C294.943 131.734 295.209 131.897 295.466 132.055C295.968 132.369 296.441 132.665 296.884 132.943C298.611 134.039 299.649 134.769 299.589 134.872C299.529 134.975 298.382 134.433 296.576 133.473C296.117 133.225 295.626 132.958 295.105 132.677C294.84 132.531 294.568 132.381 294.289 132.227C294.01 132.078 293.708 131.888 293.466 131.793C293.201 131.701 293.085 131.708 292.829 131.854C292.575 132.015 292.299 132.226 292.063 132.461C291.584 132.934 291.187 133.529 290.931 134.197C290.397 135.538 290.59 136.995 291.177 138.098C291.758 139.216 292.697 139.944 293.584 140.31C294.477 140.681 295.288 140.737 295.839 140.733C296.393 140.72 296.707 140.666 296.726 140.729Z" fill="#263238"/>
<path d="M294.888 114.461C294.821 114.467 294.897 113.396 294.433 111.567C293.974 109.774 292.779 107.137 290.083 105.098C288.747 104.101 287.064 103.255 285.125 102.916C283.198 102.589 281.026 102.653 278.959 103.442C277.918 103.804 276.915 104.351 275.993 105.042C275.06 105.719 274.214 106.56 273.516 107.533C272.074 109.452 271.262 111.918 271.239 114.459C271.261 117.001 272.073 119.468 273.515 121.388C274.213 122.362 275.06 123.202 275.992 123.88C276.914 124.57 277.917 125.118 278.958 125.481C281.025 126.27 283.198 126.333 285.124 126.006C287.064 125.666 288.745 124.821 290.082 123.824C292.778 121.784 293.974 119.147 294.432 117.354C294.897 115.525 294.821 114.455 294.888 114.461C294.896 114.461 294.9 114.527 294.901 114.655C294.899 114.809 294.897 114.996 294.893 115.224C294.894 115.475 294.881 115.785 294.82 116.148C294.772 116.511 294.726 116.934 294.596 117.394C294.401 118.329 293.981 119.437 293.305 120.615C292.624 121.789 291.631 123.019 290.268 124.067C288.91 125.106 287.187 125.993 285.19 126.359C283.208 126.712 280.965 126.66 278.822 125.856C277.744 125.486 276.703 124.924 275.746 124.213C274.778 123.514 273.899 122.647 273.173 121.639C271.676 119.654 270.828 117.094 270.805 114.459C270.828 111.825 271.676 109.266 273.174 107.282C273.9 106.275 274.779 105.407 275.746 104.709C276.703 103.997 277.744 103.436 278.822 103.065C280.965 102.262 283.208 102.209 285.19 102.563C287.187 102.928 288.909 103.815 290.268 104.854C291.631 105.901 292.624 107.131 293.305 108.305C293.982 109.483 294.401 110.591 294.597 111.526C294.727 111.986 294.773 112.409 294.821 112.772C294.882 113.135 294.894 113.445 294.894 113.696C294.897 113.924 294.899 114.111 294.901 114.265C294.9 114.396 294.896 114.461 294.888 114.461Z" fill="#263238"/>
<path d="M323.386 113.341C323.319 113.347 323.392 112.305 322.941 110.523C322.493 108.776 321.328 106.208 318.701 104.221C317.399 103.251 315.761 102.427 313.872 102.097C311.995 101.779 309.879 101.84 307.866 102.608C306.853 102.961 305.876 103.495 304.978 104.167C304.07 104.826 303.245 105.646 302.566 106.594C301.162 108.463 300.371 110.864 300.348 113.339C300.37 115.815 301.161 118.217 302.566 120.087C303.245 121.035 304.069 121.854 304.978 122.514C305.876 123.187 306.853 123.72 307.866 124.074C309.88 124.842 311.996 124.903 313.873 124.585C315.762 124.255 317.401 123.431 318.702 122.461C321.329 120.474 322.494 117.906 322.941 116.159C323.393 114.377 323.319 113.336 323.386 113.341C323.401 113.341 323.402 113.597 323.392 114.085C323.392 114.33 323.38 114.632 323.321 114.986C323.274 115.34 323.23 115.752 323.104 116.201C322.7 117.984 321.559 120.633 318.886 122.706C317.562 123.718 315.883 124.583 313.938 124.94C312.005 125.284 309.819 125.234 307.729 124.451C306.678 124.089 305.663 123.542 304.73 122.849C303.786 122.168 302.929 121.322 302.222 120.34C300.762 118.405 299.935 115.909 299.914 113.341C299.936 110.773 300.762 108.278 302.223 106.344C302.93 105.362 303.787 104.517 304.73 103.836C305.663 103.143 306.677 102.595 307.728 102.234C309.817 101.45 312.004 101.4 313.936 101.744C315.882 102.1 317.562 102.965 318.885 103.977C321.558 106.049 322.698 108.698 323.102 110.482C323.229 110.932 323.273 111.343 323.319 111.698C323.378 112.052 323.391 112.354 323.39 112.598C323.402 113.086 323.401 113.341 323.386 113.341Z" fill="#263238"/>
<path d="M300.131 110.708C300.084 110.757 299.809 110.525 299.303 110.286C298.801 110.046 298.05 109.811 297.207 109.826C296.362 109.838 295.621 110.1 295.129 110.359C294.633 110.618 294.368 110.862 294.319 110.816C294.279 110.783 294.472 110.451 294.968 110.098C295.457 109.748 296.262 109.406 297.198 109.394C298.134 109.377 298.95 109.689 299.451 110.019C299.962 110.351 300.17 110.674 300.131 110.708Z" fill="#263238"/>
<path d="M271.743 112.766C271.815 112.861 269.48 114.726 266.528 116.929C263.576 119.133 261.125 120.842 261.053 120.745C260.982 120.65 263.316 118.786 266.268 116.581C269.221 114.378 271.671 112.67 271.743 112.766Z" fill="#263238"/>
<g opacity="0.3">
<path d="M261.897 166.926C260.739 178.219 265.033 190.139 274.091 196.983C274.801 197.52 275.694 198.053 276.531 197.75C277.113 197.54 277.486 196.982 277.795 196.446C280.377 191.975 281.243 187.043 280.495 181.935C279.06 185.712 277.83 189.419 276.382 193.37C268.49 188.578 263.571 178.388 261.897 166.926Z" fill="black"/>
</g>
<path opacity="0.3" d="M292.561 192.603L299.206 190.175L300.307 201.417C300.307 201.417 307.479 188.345 310.448 182.381C313.415 176.417 311.889 165.891 311.889 165.891C311.889 165.891 312.951 175.059 305.764 186.754L300.339 195.57V186.337L292.561 192.603Z" fill="black"/>
<g opacity="0.3">
<path d="M215.241 249.737C212.277 248.337 208.867 248.149 205.61 248.529C202.171 248.929 198.72 249.982 196.025 252.156C193.331 254.33 191.503 257.756 191.839 261.202L192.172 261.25C194.491 254.973 199.104 250.405 205.053 249.853C211.001 249.3 216.805 251.947 220.889 256.308C220.492 253.054 218.205 251.137 215.241 249.737Z" fill="black"/>
</g>
<g opacity="0.3">
<path d="M383.321 256.154C381.094 253.75 377.964 252.294 374.736 251.732C369.068 250.743 362.984 252.504 358.72 256.368L359.988 255.339C363.21 253.454 366.923 252.336 370.654 252.441C374.385 252.547 378.119 253.928 380.821 256.503C383.306 258.871 384.8 262.067 386.223 265.189C386.779 261.96 385.548 258.559 383.321 256.154Z" fill="black"/>
</g>
<path d="M340.475 203.946C340.447 203.934 340.555 203.611 340.773 203.037C341.03 202.38 341.345 201.572 341.718 200.618C342.524 198.579 343.628 195.761 344.794 192.628C345.959 189.493 346.966 186.638 347.689 184.569C348.03 183.603 348.319 182.786 348.554 182.121C348.764 181.544 348.894 181.229 348.922 181.238C348.95 181.248 348.875 181.579 348.715 182.172C348.555 182.765 348.305 183.618 347.979 184.665C347.33 186.762 346.367 189.639 345.2 192.779C344.031 195.918 342.88 198.725 342.001 200.736C341.562 201.742 341.195 202.551 340.928 203.105C340.663 203.657 340.502 203.958 340.475 203.946Z" fill="#263238"/>
<path d="M235.567 204.762C235.449 204.786 234.545 200.826 233.547 195.918C232.548 191.008 231.834 187.011 231.952 186.987C232.069 186.963 232.974 190.922 233.971 195.832C234.97 200.739 235.684 204.739 235.567 204.762Z" fill="#263238"/>
<path d="M233.996 254.263C234.259 254.396 230.947 228.332 230.947 228.332C230.947 228.332 233.038 208.553 234.213 207.637L234.243 200.659C234.243 200.659 237.477 198.699 238.346 201.863C238.346 201.863 241.214 199.372 241.715 205.301C242.216 211.23 242.322 217.289 242.322 217.289L248.706 233.253L249.757 233.785C249.757 233.785 251.128 221.278 251.926 219.438C252.724 217.597 253.271 213.122 256.298 213.793C259.324 214.465 259.576 216.969 259.032 221.049C258.488 225.13 257.81 229.341 258.063 231.976C258.315 234.612 259.512 240.412 259.144 245.02C258.777 249.629 256.254 254.491 253.604 257.904C250.955 261.316 245.895 268.375 243.145 270.502C242.184 271.245 233.996 254.263 233.996 254.263Z" fill="#FFBE9D"/>
<path d="M237.219 233.053C237.189 233.051 237.197 232.654 237.237 231.937C237.292 231.137 237.361 230.122 237.445 228.909C237.639 226.355 237.938 222.827 238.295 218.935C238.479 216.994 238.655 215.145 238.815 213.448C238.898 212.609 238.951 211.816 238.844 211.096C238.744 210.374 238.461 209.748 238.049 209.297C237.206 208.383 236.122 208.152 235.443 208.152C234.739 208.147 234.37 208.339 234.356 208.291C234.35 208.277 234.438 208.231 234.615 208.155C234.794 208.09 235.069 208.004 235.437 207.983C236.15 207.932 237.316 208.116 238.273 209.088C238.744 209.57 239.078 210.269 239.199 211.039C239.329 211.811 239.285 212.639 239.213 213.484C239.063 215.181 238.899 217.031 238.727 218.974C238.37 222.867 238.023 226.39 237.751 228.938C237.613 230.145 237.497 231.156 237.406 231.952C237.314 232.664 237.249 233.056 237.219 233.053Z" fill="#EB996E"/>
<path d="M240.651 222.394C240.713 222.446 240.002 223.072 239.521 224.452C239.007 225.81 238.821 227.852 238.46 230.078C238.116 232.306 237.781 234.319 237.517 235.774C237.253 237.227 237.06 238.123 237.001 238.114C236.942 238.104 237.028 237.193 237.214 235.727C237.401 234.261 237.688 232.24 238.031 230.012C238.392 227.798 238.625 225.739 239.235 224.341C239.524 223.644 239.877 223.133 240.158 222.821C240.437 222.503 240.637 222.378 240.651 222.394Z" fill="#EB996E"/>
<path d="M238.305 201.52C238.334 201.515 238.413 201.807 238.527 202.34C238.644 202.872 238.789 203.648 238.948 204.61C239.266 206.533 239.614 209.206 239.835 212.173C240.053 215.142 240.101 217.838 240.069 219.786C240.053 220.761 240.024 221.549 239.987 222.093C239.951 222.637 239.918 222.938 239.888 222.937C239.824 222.935 239.81 221.731 239.762 219.788C239.716 217.845 239.619 215.162 239.402 212.206C239.182 209.25 238.884 206.582 238.644 204.653C238.404 202.724 238.242 201.531 238.305 201.52Z" fill="#EB996E"/>
<path d="M256.721 225.956C256.785 226.054 255.789 226.518 254.571 226.138C253.35 225.774 252.781 224.834 252.889 224.787C252.984 224.704 253.624 225.41 254.698 225.724C255.764 226.064 256.688 225.834 256.721 225.956Z" fill="#EB996E"/>
<path d="M234.355 251.022L217.488 258.11H207.44C207.44 258.11 197.5 261.212 195.972 270.529C194.442 279.847 194.224 284.641 198.593 285.794C202.962 286.946 215.305 287.074 221.421 285.044C227.537 283.014 243.56 270.086 243.56 270.086L245.105 260.732L234.355 251.022Z" fill="#FFBE9D"/>
<path d="M238.305 261.319C238.284 261.339 238.115 261.182 237.826 260.878C237.526 260.584 237.158 260.101 236.731 259.485C235.897 258.24 234.984 256.352 234.375 254.15C233.744 251.953 233.476 249.899 233.336 248.418C233.208 246.933 233.215 246.011 233.27 246.008C233.334 246.004 233.435 246.917 233.639 248.383C233.856 249.845 234.17 251.869 234.791 254.031C235.391 256.198 236.237 258.059 236.989 259.321C237.748 260.581 238.365 261.265 238.305 261.319Z" fill="#EB996E"/>
<path d="M245.648 264.276C245.557 264.243 246.317 262.96 246.609 260.66C246.749 259.518 246.737 258.128 246.41 256.644C246.087 255.157 245.376 253.625 244.344 252.196C243.319 250.76 242.167 249.51 241.196 248.3C240.215 247.096 239.43 245.919 238.916 244.853C238.398 243.787 238.16 242.846 238.071 242.193C237.986 241.536 238.02 241.171 238.042 241.171C238.126 241.153 238.097 242.659 239.189 244.715C239.725 245.738 240.516 246.871 241.504 248.047C242.483 249.232 243.648 250.477 244.696 251.945C245.752 253.404 246.489 255.017 246.8 256.56C247.116 258.101 247.095 259.535 246.912 260.702C246.729 261.873 246.407 262.782 246.139 263.382C246.01 263.685 245.886 263.908 245.799 264.058C245.713 264.208 245.661 264.283 245.648 264.276Z" fill="#EB996E"/>
<path d="M219.647 223.664C219.541 223.719 217.701 220.371 215.537 216.187C213.373 212.001 211.705 208.564 211.812 208.509C211.918 208.455 213.758 211.802 215.922 215.988C218.086 220.172 219.754 223.609 219.647 223.664Z" fill="white"/>
<path d="M246.924 193.299C246.815 193.25 247.952 190.459 249.464 187.065C250.977 183.67 252.291 180.957 252.401 181.006C252.51 181.055 251.373 183.846 249.861 187.241C248.349 190.636 247.034 193.348 246.924 193.299Z" fill="white"/>
<path d="M273.635 213.006C273.542 213.083 271.831 211.167 269.813 208.729C267.793 206.29 266.232 204.251 266.323 204.175C266.416 204.098 268.127 206.014 270.146 208.453C272.165 210.891 273.727 212.93 273.635 213.006Z" fill="white"/>
<path d="M267.489 240.111C267.393 240.041 268.683 238.097 270.369 235.77C272.058 233.443 273.504 231.613 273.602 231.684C273.698 231.754 272.409 233.697 270.721 236.025C269.033 238.352 267.587 240.181 267.489 240.111Z" fill="white"/>
<path d="M259.218 278.394C259.165 278.42 258.787 277.784 258.241 276.723C257.694 275.661 256.986 274.17 256.273 272.494C255.561 270.816 254.979 269.272 254.595 268.141C254.209 267.011 254.015 266.297 254.069 266.278C254.127 266.257 254.424 266.934 254.882 268.033C255.404 269.285 256.007 270.729 256.672 272.325C257.358 273.911 257.98 275.348 258.518 276.592C258.992 277.684 259.273 278.368 259.218 278.394Z" fill="white"/>
<path d="M282.719 262.119C282.697 262.237 280.434 261.898 277.667 261.362C274.9 260.826 272.674 260.297 272.697 260.179C272.719 260.062 274.981 260.401 277.75 260.937C280.517 261.473 282.742 262.002 282.719 262.119Z" fill="white"/>
<path d="M300.945 226.347C300.857 226.266 303.014 223.797 305.762 220.834C308.511 217.869 310.81 215.533 310.897 215.614C310.984 215.696 308.828 218.164 306.08 221.128C303.331 224.092 301.032 226.429 300.945 226.347Z" fill="white"/>
<path d="M319.281 274.056C319.189 274.132 316.497 271.018 313.271 267.101C310.043 263.184 307.503 259.947 307.595 259.87C307.688 259.794 310.378 262.907 313.606 266.825C316.832 270.743 319.373 273.98 319.281 274.056Z" fill="white"/>
<path d="M205.457 253.721C205.518 253.84 203.059 255.088 200.381 257.143C197.689 259.184 195.837 261.225 195.738 261.135C195.696 261.098 196.107 260.541 196.87 259.722C197.631 258.903 198.759 257.837 200.118 256.798C201.477 255.762 202.804 254.957 203.794 254.439C204.786 253.921 205.432 253.672 205.457 253.721Z" fill="white"/>
<path d="M212.313 235.334C212.413 235.401 211.538 236.892 210.359 238.665C209.179 240.438 208.143 241.822 208.043 241.755C207.943 241.689 208.818 240.198 209.997 238.424C211.177 236.652 212.213 235.268 212.313 235.334Z" fill="white"/>
<path d="M227.761 253.391C227.666 253.447 226.799 251.991 226.346 249.972C225.882 247.956 226.034 246.269 226.144 246.279C226.273 246.279 226.316 247.921 226.768 249.877C227.205 251.835 227.877 253.335 227.761 253.391Z" fill="white"/>
<path d="M230.05 196.038C230.067 196.156 228.632 196.458 226.845 196.713C225.058 196.967 223.595 197.077 223.578 196.959C223.561 196.84 224.996 196.538 226.784 196.284C228.571 196.03 230.034 195.92 230.05 196.038Z" fill="white"/>
<path d="M241.653 175.463C241.711 175.568 240.455 176.375 238.847 177.266C237.239 178.158 235.889 178.795 235.831 178.69C235.772 178.585 237.029 177.778 238.637 176.887C240.244 175.996 241.595 175.358 241.653 175.463Z" fill="white"/>
<path d="M274.28 184.154C274.185 184.227 272.747 182.5 271.07 180.297C269.392 178.094 268.109 176.25 268.205 176.177C268.3 176.105 269.737 177.832 271.415 180.035C273.092 182.238 274.375 184.082 274.28 184.154Z" fill="white"/>
<path d="M315.698 204.845C315.617 204.921 314.104 203.364 312.701 201.098C311.288 198.837 310.56 196.793 310.663 196.754C310.781 196.703 311.677 198.643 313.069 200.869C314.449 203.1 315.795 204.762 315.698 204.845Z" fill="white"/>
<path d="M331.505 210.056C331.614 210.105 330.846 212.034 329.79 214.361C328.733 216.689 327.789 218.536 327.68 218.487C327.571 218.438 328.339 216.51 329.396 214.182C330.452 211.855 331.396 210.007 331.505 210.056Z" fill="white"/>
<path d="M333.715 188.479C333.623 188.555 331.741 186.445 329.511 183.766C327.281 181.085 325.548 178.851 325.64 178.774C325.733 178.698 327.614 180.808 329.845 183.489C332.074 186.168 333.808 188.402 333.715 188.479Z" fill="white"/>
<path d="M309.571 170.951C309.451 170.956 309.283 169.151 309.194 166.919C309.106 164.686 309.132 162.874 309.252 162.869C309.372 162.864 309.54 164.67 309.628 166.901C309.715 169.133 309.69 170.947 309.571 170.951Z" fill="white"/>
<path d="M329.256 169.86C329.272 169.979 326.971 170.384 324.118 170.765C321.264 171.147 318.938 171.36 318.922 171.241C318.907 171.122 321.207 170.717 324.061 170.336C326.914 169.954 329.24 169.741 329.256 169.86Z" fill="white"/>
<path d="M360.262 192.635C360.155 192.687 358.77 190.048 357.171 186.742C355.571 183.435 354.362 180.713 354.469 180.66C354.576 180.608 355.961 183.246 357.56 186.553C359.16 189.86 360.37 192.583 360.262 192.635Z" fill="white"/>
<path d="M355.041 212.315C354.924 212.291 355.249 210.17 355.766 207.578C356.284 204.985 356.799 202.903 356.916 202.926C357.033 202.95 356.709 205.07 356.191 207.663C355.674 210.255 355.159 212.338 355.041 212.315Z" fill="white"/>
<path d="M369.423 227.829C369.31 227.869 368.205 225.006 366.956 221.435C365.706 217.863 364.784 214.937 364.897 214.898C365.011 214.858 366.115 217.72 367.365 221.292C368.615 224.863 369.536 227.789 369.423 227.829Z" fill="white"/>
<path d="M367.42 236.903C367.4 237.01 365.404 236.593 363.217 235.4C361.022 234.219 359.584 232.776 359.661 232.7C359.746 232.6 361.28 233.867 363.424 235.019C365.558 236.186 367.458 236.778 367.42 236.903Z" fill="white"/>
<path d="M385.843 257.596C385.734 257.645 385.066 256.381 384.351 254.775C383.636 253.168 383.145 251.827 383.254 251.778C383.363 251.728 384.032 252.992 384.746 254.598C385.461 256.205 385.952 257.548 385.843 257.596Z" fill="white"/>
<path d="M277.033 286.452C276.914 286.466 276.625 284.816 276.387 282.768C276.149 280.718 276.051 279.047 276.17 279.033C276.289 279.019 276.579 280.668 276.817 282.718C277.056 284.766 277.152 286.439 277.033 286.452Z" fill="white"/>
<path d="M333.56 285.024C333.442 284.999 333.686 283.385 334.104 281.421C334.522 279.455 334.955 277.883 335.073 277.908C335.19 277.932 334.946 279.545 334.527 281.511C334.11 283.475 333.676 285.049 333.56 285.024Z" fill="white"/>
</svg>
