<svg width="579" height="362" viewBox="0 0 579 362" fill="none" xmlns="http://www.w3.org/2000/svg">
<path d="M576.523 224.787C576.523 224.787 571.801 221.99 566.771 233.202C561.74 244.414 559.941 250.825 559.941 250.825C559.941 250.825 558.582 253.189 556.934 251.769C555.286 250.35 552.92 246.209 550.282 247.106C547.547 248.037 546.787 251.179 547.542 255.702C548.297 260.226 549.586 270.197 549.699 271.099C549.81 271.984 549.366 273.319 548.088 272.532C546.811 271.745 539.311 264.182 535.934 267.956C532.559 271.729 536.732 283.986 537.162 285.334C537.593 286.683 537.354 287.279 536.722 287.65C536.089 288.02 533.808 285.24 531.586 283.177C529.365 281.113 526.427 279.109 524.662 281.45C522.897 283.791 522.76 293.149 532.388 307.861L537.296 314.386L545.452 313.527C562.794 310.624 569.578 304.176 570.1 301.291C570.622 298.407 567.158 297.607 564.134 297.374C561.111 297.142 557.521 297.35 557.365 296.635C557.208 295.919 557.485 295.339 558.768 294.74C560.051 294.142 571.887 288.895 572.371 283.855C572.855 278.815 562.21 278.433 560.765 278.028C559.32 277.624 559.999 276.392 560.726 275.873C561.465 275.344 569.666 269.529 573.503 267.015C577.339 264.501 579.131 261.812 577.96 259.171C576.831 256.625 572.184 257.695 570.022 257.447C567.862 257.199 568.677 254.596 568.677 254.596C568.677 254.596 572.168 248.926 576.994 237.625C581.82 226.325 576.422 224.738 576.422 224.738" fill="#EBEBEB"/>
<path d="M536.066 315.917C539.643 307.631 546.248 293.012 551.853 280.431C557.457 267.855 562.52 256.463 566.138 248.197C567.94 244.069 569.4 240.726 570.414 238.403C570.916 237.254 571.308 236.359 571.578 235.74C571.71 235.444 571.813 235.215 571.887 235.05C571.958 234.895 572 234.818 572 234.818C572 234.818 571.974 234.902 571.911 235.06C571.843 235.227 571.748 235.46 571.625 235.76C571.365 236.383 570.988 237.285 570.504 238.441C569.529 240.768 568.092 244.126 566.302 248.268C562.725 256.554 557.689 267.957 552.085 280.534C546.479 293.115 539.849 307.722 536.231 315.988" fill="#E0E0E0"/>
<path d="M553.359 253.031C553.376 253.026 553.458 253.219 553.593 253.574C553.729 253.929 553.91 254.446 554.129 255.089C554.563 256.375 555.117 258.165 555.693 260.152C556.253 262.114 556.76 263.887 557.148 265.244C557.327 265.855 557.478 266.369 557.599 266.784C557.706 267.147 557.759 267.351 557.742 267.357C557.726 267.362 557.642 267.17 557.505 266.816C557.37 266.461 557.188 265.943 556.977 265.297C556.556 264.007 556.025 262.21 555.45 260.223C554.875 258.266 554.355 256.498 553.958 255.143C553.776 254.534 553.623 254.019 553.5 253.605C553.393 253.241 553.343 253.037 553.359 253.031Z" fill="#E0E0E0"/>
<path d="M558.498 267.464C558.475 267.398 562.117 266.093 566.63 264.55C571.146 263.006 574.823 261.808 574.846 261.875C574.869 261.941 571.228 263.245 566.713 264.79C562.199 266.334 558.52 267.531 558.498 267.464Z" fill="#E0E0E0"/>
<path d="M549.02 286.393C549.02 286.375 549.234 286.356 549.621 286.336C550.06 286.316 550.607 286.29 551.258 286.261C552.639 286.195 554.547 286.096 556.648 285.91C558.749 285.729 560.646 285.498 562.017 285.32C562.663 285.237 563.207 285.167 563.642 285.111C564.027 285.064 564.241 285.046 564.244 285.063C564.247 285.08 564.038 285.132 563.659 285.208C563.279 285.285 562.728 285.387 562.044 285.497C560.677 285.721 558.779 285.98 556.67 286.162C554.564 286.349 552.649 286.419 551.264 286.44C550.571 286.447 550.011 286.446 549.623 286.435C549.234 286.424 549.02 286.41 549.02 286.393Z" fill="#E0E0E0"/>
<path d="M541.499 274.362C541.514 274.352 541.634 274.509 541.841 274.802C542.072 275.142 542.357 275.561 542.693 276.054C543.405 277.117 544.372 278.595 545.428 280.236C546.483 281.878 547.427 283.372 548.1 284.46C548.409 284.97 548.672 285.403 548.885 285.755C549.065 286.064 549.158 286.24 549.143 286.249C549.129 286.259 549.008 286.101 548.801 285.808C548.57 285.468 548.285 285.049 547.949 284.556C547.238 283.493 546.27 282.014 545.215 280.373C544.16 278.732 543.216 277.238 542.543 276.15C542.234 275.639 541.971 275.207 541.758 274.854C541.576 274.546 541.484 274.371 541.499 274.362Z" fill="#E0E0E0"/>
<path d="M531.008 290.009C531.023 289.999 531.177 290.202 531.44 290.577C531.726 290.993 532.096 291.531 532.539 292.177C533.458 293.534 534.713 295.419 536.085 297.509C537.458 299.601 538.69 301.501 539.57 302.884C539.986 303.547 540.333 304.101 540.602 304.529C540.841 304.921 540.966 305.141 540.951 305.151C540.937 305.16 540.783 304.957 540.52 304.583C540.233 304.166 539.864 303.628 539.421 302.983C538.502 301.625 537.247 299.74 535.874 297.649C534.501 295.559 533.27 293.658 532.39 292.275C531.974 291.612 531.627 291.06 531.358 290.63C531.119 290.24 530.994 290.018 531.008 290.009Z" fill="#E0E0E0"/>
<path d="M540.816 304.722C540.815 304.705 541.085 304.673 541.575 304.63C542.109 304.586 542.806 304.529 543.647 304.46C545.395 304.313 547.81 304.103 550.469 303.795C553.129 303.49 555.53 303.152 557.266 302.895C558.1 302.771 558.792 302.669 559.322 302.591C559.809 302.522 560.079 302.491 560.082 302.509C560.085 302.526 559.821 302.589 559.339 302.689C558.858 302.789 558.16 302.922 557.295 303.072C555.564 303.374 553.164 303.742 550.498 304.047C547.835 304.355 545.413 304.538 543.659 304.638C542.782 304.686 542.072 304.717 541.58 304.729C541.089 304.741 540.817 304.739 540.816 304.722Z" fill="#E0E0E0"/>
<path d="M101.064 84.6011C101.064 84.6011 95.9497 86.5895 101.664 97.4683C107.379 108.347 111.313 113.719 111.313 113.719C111.313 113.719 112.334 116.249 110.2 116.669C108.066 117.089 103.347 116.395 102.426 119.023C101.47 121.749 103.473 124.286 107.497 126.484C111.521 128.683 120.162 133.824 120.942 134.291C121.707 134.751 122.483 135.924 121.075 136.443C119.667 136.963 109.087 138.195 109.972 143.18C110.858 148.165 123.076 152.448 124.403 152.942C125.729 153.435 126.052 153.992 125.953 154.718C125.854 155.444 122.259 155.523 119.264 155.996C116.269 156.471 112.879 157.544 113.632 160.378C114.383 163.212 121.66 169.097 139.179 170.602L147.343 170.769L151.701 163.822C160.123 148.386 159.236 139.069 157.29 136.878C155.343 134.686 152.575 136.918 150.526 139.152C148.477 141.387 146.425 144.341 145.765 144.022C145.105 143.704 144.819 143.128 145.14 141.749C145.462 140.37 148.64 127.819 144.973 124.328C141.306 120.837 134.435 128.975 133.225 129.862C132.014 130.749 131.465 129.454 131.505 128.563C131.545 127.654 132.033 117.612 132.423 113.043C132.813 108.474 131.805 105.403 129.004 104.694C126.303 104.01 124.276 108.328 122.747 109.875C121.218 111.422 119.674 109.174 119.674 109.174C119.674 109.174 117.368 102.927 111.456 92.155C105.544 81.3823 100.964 84.6493 100.964 84.6493" fill="#EBEBEB"/>
<path d="M147.786 172.684C143.476 164.756 136.052 150.535 129.614 138.359C123.179 126.187 117.342 115.172 113.072 107.222C110.937 103.257 109.207 100.043 108.006 97.8126C107.413 96.7087 106.95 95.8479 106.63 95.2531C106.479 94.9659 106.362 94.7439 106.278 94.584C106.199 94.4323 106.165 94.3523 106.165 94.3523C106.165 94.3523 106.215 94.4249 106.3 94.5718C106.389 94.7284 106.514 94.9471 106.675 95.2286C107.005 95.8177 107.481 96.6712 108.092 97.7653C109.321 99.97 111.076 103.172 113.23 107.137C117.541 115.065 123.403 126.068 129.838 138.24C136.276 150.416 143.675 164.649 147.945 172.599" fill="#E0E0E0"/>
<path d="M108.987 120.261C108.993 120.244 109.196 120.299 109.559 120.412C109.922 120.524 110.441 120.701 111.081 120.926C112.36 121.378 114.111 122.047 116.03 122.821C117.919 123.59 119.627 124.286 120.934 124.819C121.525 125.056 122.023 125.255 122.423 125.415C122.776 125.554 122.968 125.639 122.963 125.655C122.957 125.672 122.754 125.619 122.391 125.508C122.028 125.394 121.508 125.218 120.87 124.986C119.594 124.521 117.853 123.829 115.935 123.056C114.041 122.3 112.329 121.617 111.018 121.094C110.426 120.86 109.927 120.664 109.525 120.505C109.173 120.363 108.982 120.277 108.987 120.261Z" fill="#E0E0E0"/>
<path d="M123.514 125.127C123.448 125.104 124.669 121.433 126.241 116.93C127.813 112.424 129.142 108.793 129.208 108.816C129.274 108.838 128.053 112.508 126.481 117.014C124.909 121.516 123.58 125.15 123.514 125.127Z" fill="#E0E0E0"/>
<path d="M132.556 144.267C132.542 144.257 132.658 144.077 132.881 143.76C133.136 143.403 133.454 142.955 133.832 142.426C134.634 141.298 135.734 139.737 136.883 137.969C138.038 136.204 139.027 134.569 139.734 133.381C140.067 132.822 140.348 132.35 140.573 131.973C140.773 131.642 140.89 131.462 140.906 131.47C140.921 131.479 140.832 131.674 140.659 132.02C140.486 132.366 140.225 132.863 139.89 133.47C139.222 134.683 138.254 136.337 137.096 138.107C135.942 139.88 134.816 141.43 133.977 142.532C133.555 143.081 133.208 143.523 132.96 143.82C132.712 144.118 132.569 144.278 132.556 144.267Z" fill="#E0E0E0"/>
<path d="M118.447 142.758C118.448 142.741 118.646 142.743 119.004 142.761C119.415 142.788 119.92 142.823 120.516 142.863C121.791 142.96 123.551 143.111 125.494 143.293C127.437 143.476 129.195 143.656 130.466 143.798C131.058 143.87 131.561 143.931 131.97 143.98C132.324 144.029 132.52 144.064 132.518 144.082C132.516 144.099 132.318 144.097 131.961 144.079C131.55 144.051 131.044 144.017 130.449 143.977C129.174 143.88 127.414 143.729 125.47 143.546C123.527 143.363 121.77 143.184 120.499 143.041C119.906 142.969 119.404 142.909 118.995 142.859C118.641 142.81 118.446 142.775 118.447 142.758Z" fill="#E0E0E0"/>
<path d="M124.282 160.669C124.284 160.652 124.537 160.656 124.995 160.68C125.5 160.712 126.151 160.753 126.933 160.803C128.568 160.918 130.826 161.094 133.318 161.305C135.81 161.515 138.065 161.72 139.697 161.881C140.476 161.963 141.124 162.032 141.627 162.085C142.082 162.139 142.334 162.176 142.332 162.194C142.33 162.211 142.077 162.207 141.619 162.184C141.114 162.152 140.463 162.11 139.681 162.06C138.046 161.945 135.788 161.769 133.296 161.559C130.804 161.348 128.548 161.143 126.917 160.983C126.139 160.9 125.49 160.832 124.987 160.779C124.532 160.725 124.28 160.687 124.282 160.669Z" fill="#E0E0E0"/>
<path d="M141.912 162.036C141.897 162.026 142.039 161.794 142.307 161.382C142.603 160.934 142.988 160.351 143.452 159.647C144.417 158.181 145.742 156.151 147.141 153.869C148.544 151.589 149.759 149.491 150.628 147.967C151.046 147.235 151.394 146.627 151.66 146.162C151.905 145.737 152.048 145.505 152.063 145.513C152.079 145.522 151.966 145.769 151.747 146.209C151.528 146.648 151.202 147.28 150.786 148.053C149.956 149.602 148.763 151.718 147.357 154.002C145.956 156.289 144.605 158.306 143.601 159.748C143.097 160.468 142.684 161.046 142.388 161.439C142.094 161.833 141.926 162.046 141.912 162.036Z" fill="#E0E0E0"/>
<path d="M52.4046 145.123C54.5489 143.498 56.8767 142.191 59.3163 141.211L60.0523 133.883L72.1452 132.393L74.6387 139.322C77.2439 139.68 79.819 140.382 82.2945 141.439L87.9938 136.78L97.5981 144.277L94.4633 150.936C96.0894 153.081 97.3965 155.41 98.3756 157.85L105.703 158.586L107.193 170.678L100.265 173.173C99.9063 175.777 99.2046 178.352 98.148 180.828L102.806 186.528L95.3102 196.132L88.6506 192.997C86.5055 194.623 84.1777 195.93 81.7372 196.909L81.0013 204.237L68.9092 205.727L66.4149 198.797C63.8105 198.439 61.2354 197.736 58.7599 196.68L53.0606 201.339L43.4563 193.843L46.5911 187.183C44.965 185.038 43.6579 182.71 42.6787 180.27L35.3517 179.534L33.8618 167.442L40.7915 164.947C41.1489 162.343 41.8522 159.768 42.908 157.292L38.2491 151.592L45.745 141.988L52.4046 145.123ZM60.5647 160.581C56.1228 166.272 57.1354 174.485 62.8256 178.927C68.5159 183.368 76.7299 182.355 81.171 176.665C85.6121 170.974 84.6003 162.761 78.91 158.319C73.2189 153.879 65.0058 154.892 60.5647 160.581Z" fill="#EBEBEB"/>
<path d="M400.92 7.66401C402.587 6.65634 404.363 5.89263 406.193 5.37289L407.279 0.15421L416.097 0L417.366 5.17543C419.214 5.63072 421.015 6.3316 422.716 7.28053L427.173 4.3595L433.517 10.4855L430.756 15.0408C431.763 16.7086 432.527 18.484 433.047 20.3142L438.265 21.4002L438.42 30.2179L433.243 31.4875C432.788 33.3348 432.087 35.1355 431.139 36.8375L434.06 41.2941L427.935 47.6388L423.379 44.8769C421.711 45.8845 419.936 46.6483 418.105 47.168L417.019 52.3867L408.202 52.5417L406.933 47.3646C405.086 46.9094 403.285 46.2077 401.583 45.2595L397.126 48.1806L390.782 42.0546L393.543 37.4992C392.536 35.8315 391.771 34.0569 391.252 32.2259L386.033 31.1399L385.879 22.323L391.056 21.0534C391.511 19.2061 392.213 17.4054 393.16 15.7042L390.239 11.2476L396.364 4.90291L400.92 7.66401ZM405.621 19.4101C401.992 23.1691 402.097 29.158 405.856 32.7873C409.615 36.4165 415.604 36.3113 419.233 32.5523C422.862 28.7933 422.757 22.8044 418.998 19.1751C415.239 15.5459 409.25 15.6511 405.621 19.4101Z" fill="#F5F5F5"/>
<path d="M509.843 86.0079C510.894 85.3723 512.014 84.8909 513.168 84.5629L513.853 81.2723L519.413 81.1752L520.213 84.4397C521.378 84.7269 522.514 85.1691 523.587 85.7672L526.397 83.9257L530.397 87.7883L528.655 90.6611C529.291 91.7129 529.772 92.8323 530.1 93.9869L533.391 94.6714L533.489 100.231L530.224 101.032C529.937 102.197 529.495 103.332 528.898 104.405L530.739 107.215L526.878 111.215L524.005 109.473C522.953 110.109 521.834 110.59 520.68 110.918L519.995 114.209L514.435 114.307L513.635 111.042C512.47 110.755 511.335 110.313 510.262 109.715L507.452 111.557L503.451 107.694L505.193 104.822C504.558 103.77 504.076 102.651 503.748 101.497L500.458 100.812L500.36 95.2524L503.624 94.452C503.912 93.2868 504.354 92.1519 504.951 91.0789L503.11 88.2689L506.971 84.2684L509.843 86.0079ZM512.808 93.4141C510.519 95.7844 510.586 99.5605 512.956 101.849C515.326 104.138 519.103 104.071 521.391 101.701C523.679 99.3304 523.613 95.5543 521.243 93.2656C518.872 90.9777 515.096 91.0438 512.808 93.4141Z" fill="#F5F5F5"/>
<path d="M44.0282 60.8781C46.0729 59.6428 48.249 58.7061 50.4936 58.0681L51.8252 51.6679L62.6379 51.4786L64.1939 57.8266C66.4597 58.3847 68.6684 59.2446 70.7548 60.4073L76.2198 56.8254L83.9997 64.3377L80.6128 69.9235C81.8489 71.9682 82.7856 74.1459 83.4229 76.3906L89.8222 77.7222L90.0123 88.5348L83.6636 90.0916C83.1055 92.3575 82.2455 94.5646 81.0828 96.6517L84.6639 102.117L77.1533 109.897L71.5666 106.51C69.5219 107.745 67.345 108.682 65.0996 109.319L63.768 115.719L52.9553 115.909L51.3993 109.561C49.1335 109.002 46.9256 108.142 44.8392 106.98L39.3742 110.562L31.5943 103.05L34.9812 97.4635C33.7459 95.4188 32.8084 93.2419 32.1711 90.9973L25.7718 89.6657L25.5825 78.853L31.9313 77.2962C32.4894 75.0312 33.3502 72.8225 34.512 70.7362L30.9301 65.2711L38.4407 57.4912L44.0282 60.8781ZM49.7927 75.2817C45.3419 79.8917 45.4716 87.2359 50.0808 91.6859C54.6899 96.136 62.0341 96.0071 66.4842 91.3971C70.9343 86.7879 70.8053 79.4438 66.1954 74.9929C61.587 70.5436 54.2428 70.6725 49.7927 75.2817Z" fill="#F5F5F5"/>
<path d="M513.868 135.473C515.534 134.465 517.309 133.701 519.14 133.181L520.226 127.963L529.044 127.809L530.313 132.986C532.161 133.441 533.961 134.142 535.663 135.091L540.119 132.17L546.464 138.296L543.702 142.851C544.71 144.519 545.473 146.294 545.993 148.125L551.212 149.211L551.367 158.029L546.19 159.299C545.734 161.146 545.033 162.947 544.085 164.648L547.006 169.104L540.881 175.449L536.325 172.687C534.657 173.695 532.883 174.458 531.052 174.978L529.966 180.197L521.148 180.352L519.879 175.175C518.031 174.72 516.231 174.018 514.529 173.07L510.073 175.991L503.728 169.865L506.49 165.309C505.482 163.642 504.718 161.867 504.198 160.036L498.979 158.95L498.824 150.132L504.001 148.863C504.457 147.016 505.158 145.215 506.106 143.514L503.185 139.057L509.311 132.712L513.868 135.473ZM518.568 147.219C514.939 150.978 515.044 156.967 518.803 160.596C522.562 164.225 528.551 164.12 532.18 160.361C535.809 156.602 535.704 150.613 531.945 146.984C528.186 143.354 522.197 143.461 518.568 147.219Z" fill="#EBEBEB"/>
<path d="M322.042 31.2166C324.61 29.6647 327.344 28.4881 330.164 27.6869L331.836 19.6476L345.419 19.4093L347.374 27.3834C350.221 28.0851 352.994 29.1645 355.616 30.6259L362.48 26.126L372.253 35.5622L367.998 42.5792C369.551 45.1478 370.727 47.8828 371.528 50.7026L379.566 52.3753L379.805 65.958L371.83 67.913C371.129 70.7589 370.049 73.5323 368.588 76.153L373.087 83.0183L363.653 92.7906L356.635 88.5356C354.066 90.0875 351.332 91.264 348.511 92.0645L346.838 100.104L333.256 100.342L331.301 92.3663C328.455 91.6646 325.682 90.5844 323.06 89.1238L316.196 93.6237L306.423 84.1875L310.678 77.1705C309.126 74.602 307.948 71.8678 307.148 69.0471L299.109 67.3745L298.871 53.7925L306.846 51.8367C307.547 48.9908 308.628 46.2174 310.088 43.5967L305.589 36.7315L315.023 26.9607L322.042 31.2166ZM329.282 49.3098C323.692 55.1005 323.854 64.3253 329.645 69.9161C335.434 75.506 344.66 75.3436 350.25 69.5538C355.84 63.7632 355.678 54.5383 349.888 48.9475C344.098 43.3584 334.872 43.52 329.282 49.3098Z" fill="#EBEBEB"/>
<path d="M578.748 316.043C578.748 316.161 449.18 316.256 289.388 316.256C129.54 316.256 0 316.161 0 316.043C0 315.926 129.54 315.831 289.388 315.831C449.181 315.83 578.748 315.926 578.748 316.043Z" fill="#263238"/>
<path d="M445.682 64.8679H161.603C156.705 64.8679 152.735 68.8374 152.735 73.7354V274.387C152.735 279.285 156.705 283.255 161.603 283.255H270.632C270.632 283.255 277.567 304.701 256.068 315.798H358.015C358.015 315.798 333.741 307.476 339.983 283.255H445.682C450.579 283.255 454.549 279.285 454.549 274.388V73.7354C454.549 68.8382 450.58 64.8679 445.682 64.8679Z" fill="#455A64"/>
<path d="M307.435 262.152C311.3 267.675 305.252 273.723 299.727 269.859C299.545 269.731 299.38 269.565 299.252 269.384C295.399 263.861 301.439 257.822 306.96 261.677C307.142 261.804 307.309 261.97 307.435 262.152Z" fill="#263238"/>
<path d="M449.659 246.547H157.627V76.4565C157.627 72.0864 161.169 68.5444 165.539 68.5444H441.746C446.116 68.5444 449.658 72.0872 449.658 76.4565L449.659 246.547Z" fill="white"/>
<path d="M449.659 83.3349H157.627V76.0127C157.627 71.8882 160.97 68.5437 165.096 68.5437H443.526C446.913 68.5437 449.659 71.2893 449.659 74.6762V83.3349Z" fill="#EBEBEB"/>
<path d="M166.926 78.3013C168.059 78.3013 168.978 77.383 168.978 76.2501C168.978 75.1172 168.059 74.1989 166.926 74.1989C165.794 74.1989 164.875 75.1172 164.875 76.2501C164.875 77.383 165.794 78.3013 166.926 78.3013Z" fill="#E0E0E0"/>
<path d="M173.042 78.3013C174.175 78.3013 175.093 77.383 175.093 76.2501C175.093 75.1172 174.175 74.1989 173.042 74.1989C171.909 74.1989 170.991 75.1172 170.991 76.2501C170.991 77.383 171.909 78.3013 173.042 78.3013Z" fill="#E0E0E0"/>
<path d="M178.858 78.3013C179.991 78.3013 180.909 77.383 180.909 76.2501C180.909 75.1172 179.991 74.1989 178.858 74.1989C177.725 74.1989 176.807 75.1172 176.807 76.2501C176.807 77.383 177.725 78.3013 178.858 78.3013Z" fill="#E0E0E0"/>
<path d="M394.894 283.283C394.894 283.378 354.469 283.453 304.615 283.453C254.743 283.453 214.326 283.378 214.326 283.283C214.326 283.189 254.743 283.112 304.615 283.112C354.469 283.112 394.894 283.189 394.894 283.283Z" fill="#263238"/>
<path d="M448.992 107.269H157.725V172.289H448.992V107.269Z" fill="#F5F5F5"/>
<path d="M206.909 90.1471H164.875V101.15H206.909V90.1471Z" fill="#F5F5F5"/>
<path d="M442.079 90.1471H419.063V101.15H442.079V90.1471Z" fill="#F5F5F5"/>
<path d="M412.148 90.1471H374.484V101.15H412.148V90.1471Z" fill="#F5F5F5"/>
<path d="M366.653 90.1471H328.989V101.15H366.653V90.1471Z" fill="#F5F5F5"/>
<path d="M428.615 190.61H171.906V202.135H428.615V190.61Z" fill="#F5F5F5"/>
<path d="M428.615 212.057H171.906V223.582H428.615V212.057Z" fill="#F5F5F5"/>
<path d="M272.986 146.371L280.062 139.295L292.402 150.542L314.149 128.82L320.718 135.895L291.391 164.188L272.986 146.371Z" fill="#FF725E"/>
<path d="M283.16 129.78C283.07 129.856 281.944 128.673 280.645 127.138C279.345 125.602 278.365 124.297 278.455 124.222C278.545 124.146 279.67 125.328 280.97 126.864C282.269 128.398 283.249 129.704 283.16 129.78Z" fill="#263238"/>
<path d="M292.651 128.745C292.534 128.751 292.277 125.212 292.076 120.841C291.875 116.47 291.809 112.923 291.925 112.917C292.043 112.911 292.3 116.45 292.5 120.822C292.701 125.192 292.769 128.74 292.651 128.745Z" fill="#263238"/>
<path d="M307.315 123.9C307.407 123.972 306.381 125.42 305.024 127.132C303.666 128.845 302.492 130.174 302.399 130.101C302.307 130.029 303.334 128.581 304.691 126.869C306.048 125.156 307.223 123.827 307.315 123.9Z" fill="#263238"/>
<path d="M502.575 315.938H381.595C378.321 315.938 375.667 313.284 375.667 310.01V131.233C375.667 127.959 378.321 125.305 381.595 125.305H502.575C505.849 125.305 508.504 127.959 508.504 131.233V310.009C508.504 313.284 505.849 315.938 502.575 315.938Z" fill="#E0E0E0"/>
<path d="M502.575 315.938C502.575 315.938 502.714 315.923 502.988 315.906C503.26 315.888 503.671 315.837 504.191 315.687C505.202 315.397 506.793 314.614 507.795 312.723C508.041 312.258 508.219 311.725 508.343 311.15C508.458 310.572 508.455 309.952 508.451 309.296C508.447 307.987 508.444 306.556 508.441 305.006C508.435 301.904 508.429 298.326 508.421 294.299C508.406 278.183 508.382 254.872 508.353 226.067C508.345 211.663 508.337 195.886 508.327 178.95C508.324 170.481 508.321 161.722 508.317 152.7C508.315 148.189 508.313 143.612 508.312 138.973C508.311 136.653 508.31 134.318 508.309 131.968C508.302 131.374 508.331 130.8 508.217 130.241C508.111 129.683 507.949 129.128 507.675 128.624C507.157 127.602 506.316 126.752 505.31 126.194C504.8 125.926 504.254 125.731 503.69 125.611C503.121 125.5 502.547 125.499 501.941 125.501C500.743 125.501 499.542 125.502 498.337 125.502C495.928 125.503 493.504 125.504 491.066 125.504C486.19 125.505 481.258 125.506 476.274 125.507C466.305 125.509 456.127 125.51 445.765 125.512C425.042 125.514 403.586 125.515 381.61 125.516C380.282 125.52 378.968 125.987 377.948 126.83C376.929 127.676 376.225 128.878 375.98 130.172C375.842 130.813 375.887 131.485 375.877 132.173V134.217C375.877 135.578 375.877 136.937 375.877 138.294C375.877 143.722 375.876 149.113 375.876 154.465C375.875 165.17 375.874 175.718 375.873 186.082C375.869 206.809 375.865 226.804 375.861 245.851C375.854 264.897 375.848 282.996 375.841 299.935C375.84 302.052 375.839 304.151 375.838 306.232C375.837 307.272 375.837 308.308 375.836 309.339C375.803 310.376 375.901 311.362 376.304 312.285C377.087 314.112 378.848 315.466 380.79 315.708C381.269 315.781 381.76 315.771 382.263 315.772L383.755 315.773C384.748 315.773 385.736 315.773 386.719 315.774C394.581 315.779 402.126 315.783 409.328 315.788C438.132 315.817 461.442 315.839 477.556 315.856C485.608 315.873 491.86 315.887 496.106 315.896C498.222 315.905 499.838 315.912 500.929 315.917C502.019 315.923 502.575 315.938 502.575 315.938C502.575 315.938 502.019 315.953 500.932 315.96C499.84 315.965 498.225 315.972 496.108 315.981C491.863 315.99 485.609 316.004 477.559 316.021C461.444 316.038 438.135 316.061 409.331 316.089C402.129 316.093 394.584 316.098 386.721 316.103C385.739 316.104 384.751 316.104 383.758 316.105L382.266 316.105C381.773 316.105 381.259 316.117 380.746 316.04C378.69 315.785 376.825 314.355 375.994 312.421C375.566 311.461 375.462 310.359 375.495 309.34C375.494 308.308 375.494 307.273 375.493 306.233C375.493 304.152 375.492 302.053 375.49 299.935C375.484 282.997 375.477 264.898 375.471 245.852C375.466 226.805 375.462 206.811 375.458 186.082C375.458 175.718 375.456 165.17 375.455 154.466C375.455 149.113 375.454 143.722 375.454 138.295C375.454 136.938 375.454 135.579 375.454 134.218V132.174C375.464 131.503 375.416 130.796 375.564 130.094C375.827 128.704 376.584 127.412 377.678 126.505C378.772 125.598 380.187 125.096 381.61 125.093C403.587 125.094 425.042 125.095 445.766 125.097C456.128 125.098 466.306 125.1 476.274 125.102C481.259 125.102 486.19 125.104 491.066 125.105C493.504 125.106 495.928 125.106 498.338 125.106C499.543 125.106 500.744 125.107 501.942 125.107C502.532 125.105 503.161 125.105 503.766 125.226C504.37 125.353 504.954 125.562 505.499 125.85C506.574 126.446 507.471 127.354 508.024 128.446C508.314 128.985 508.489 129.578 508.602 130.174C508.723 130.775 508.691 131.389 508.699 131.968C508.698 134.318 508.697 136.653 508.696 138.973C508.695 143.612 508.693 148.189 508.691 152.7C508.687 161.722 508.684 170.481 508.681 178.95C508.672 195.887 508.663 211.663 508.655 226.067C508.626 254.871 508.603 278.183 508.587 294.299C508.579 298.326 508.573 301.903 508.567 305.006C508.564 306.556 508.56 307.987 508.557 309.296C508.558 309.947 508.558 310.582 508.437 311.169C508.309 311.752 508.124 312.292 507.871 312.763C506.842 314.674 505.224 315.45 504.204 315.729C503.677 315.873 503.264 315.917 502.99 315.928C502.715 315.938 502.575 315.938 502.575 315.938Z" fill="#263238"/>
<path d="M502.575 315.938C502.575 315.938 502.714 315.927 502.988 315.91C503.126 315.909 503.295 315.883 503.497 315.849C503.701 315.826 503.932 315.767 504.193 315.695C504.711 315.541 505.347 315.288 506 314.818C506.646 314.35 507.322 313.671 507.809 312.731C508.056 312.263 508.235 311.73 508.36 311.154C508.476 310.574 508.474 309.952 508.47 309.296C508.469 307.988 508.466 306.557 508.464 305.006C508.461 301.905 508.456 298.327 508.452 294.3C508.442 278.187 508.427 254.874 508.409 226.068C508.404 211.664 508.398 195.886 508.393 178.95C508.39 170.482 508.389 161.724 508.386 152.701C508.385 148.19 508.385 143.613 508.383 138.974C508.383 136.654 508.382 134.319 508.381 131.968C508.374 131.378 508.404 130.796 508.288 130.23C508.181 129.664 508.017 129.102 507.74 128.592C507.215 127.557 506.364 126.697 505.344 126.131C504.828 125.859 504.276 125.661 503.703 125.54C503.127 125.427 502.543 125.426 501.94 125.429C500.743 125.429 499.542 125.429 498.336 125.429C495.927 125.43 493.503 125.43 491.065 125.43C486.189 125.431 481.257 125.432 476.273 125.433C466.305 125.434 456.126 125.435 445.765 125.436C425.042 125.437 403.585 125.438 381.609 125.438C380.263 125.442 378.931 125.916 377.897 126.771C376.865 127.628 376.151 128.847 375.902 130.158C375.763 130.81 375.808 131.489 375.799 132.173V134.217C375.799 135.578 375.799 136.937 375.799 138.294C375.799 143.722 375.799 149.113 375.798 154.465C375.797 165.17 375.796 175.718 375.795 186.081C375.793 206.809 375.79 226.804 375.788 245.851C375.784 264.897 375.78 282.997 375.776 299.934C375.775 302.052 375.775 304.151 375.774 306.232C375.774 307.272 375.773 308.308 375.773 309.339C375.775 309.857 375.761 310.366 375.843 310.862C375.902 311.364 376.063 311.845 376.247 312.31C377.039 314.156 378.819 315.524 380.782 315.769C381.268 315.843 381.763 315.832 382.264 315.833C382.763 315.833 383.26 315.833 383.756 315.834C384.749 315.834 385.737 315.834 386.72 315.834C394.582 315.838 402.127 315.84 409.329 315.843C438.136 315.861 461.446 315.876 477.557 315.886C485.61 315.896 491.865 315.905 496.107 315.911C498.225 315.917 499.842 315.921 500.93 315.924C502.019 315.929 502.575 315.938 502.575 315.938C502.575 315.938 502.019 315.947 500.932 315.952C499.843 315.955 498.227 315.959 496.108 315.965C491.865 315.971 485.612 315.98 477.559 315.99C461.448 316 438.137 316.015 409.331 316.033C402.129 316.035 394.584 316.038 386.722 316.042C385.739 316.042 384.751 316.043 383.758 316.043C383.262 316.043 382.764 316.043 382.266 316.043C381.771 316.043 381.261 316.055 380.755 315.979C378.721 315.726 376.874 314.31 376.052 312.396C375.861 311.914 375.693 311.415 375.631 310.895C375.547 310.378 375.561 309.851 375.559 309.34C375.559 308.308 375.558 307.273 375.558 306.233C375.557 304.152 375.557 302.053 375.556 299.935C375.552 282.997 375.548 264.898 375.544 245.851C375.542 226.805 375.539 206.811 375.536 186.082C375.535 175.718 375.534 165.17 375.534 154.466C375.534 149.113 375.534 143.722 375.533 138.295C375.533 136.938 375.533 135.579 375.533 134.218V132.174C375.543 131.5 375.495 130.799 375.641 130.109C375.902 128.736 376.649 127.461 377.728 126.565C378.809 125.67 380.206 125.175 381.611 125.171C403.587 125.172 425.042 125.172 445.766 125.173C456.128 125.174 466.306 125.176 476.275 125.176C481.259 125.177 486.191 125.178 491.067 125.179C493.505 125.179 495.929 125.18 498.338 125.18C499.543 125.18 500.744 125.181 501.942 125.181C502.534 125.178 503.154 125.179 503.753 125.297C504.349 125.423 504.926 125.63 505.464 125.913C506.527 126.502 507.413 127.4 507.96 128.479C508.247 129.011 508.419 129.597 508.53 130.186C508.651 130.779 508.619 131.386 508.626 131.967C508.626 134.318 508.625 136.653 508.624 138.973C508.624 143.612 508.623 148.189 508.621 152.7C508.619 161.722 508.616 170.481 508.615 178.949C508.609 195.886 508.603 211.663 508.598 226.067C508.58 254.872 508.566 278.185 508.556 294.299C508.551 298.326 508.547 301.904 508.544 305.005C508.541 306.556 508.54 307.987 508.537 309.296C508.538 309.948 508.539 310.58 508.42 311.165C508.292 311.746 508.108 312.284 507.857 312.755C507.361 313.702 506.677 314.382 506.023 314.85C505.363 315.32 504.722 315.569 504.201 315.72C503.937 315.79 503.705 315.848 503.5 315.869C503.296 315.901 503.127 315.924 502.988 315.923C502.714 315.936 502.575 315.938 502.575 315.938Z" fill="#263238"/>
<path d="M447.183 306.358C447.183 309.173 444.9 311.455 442.085 311.455C439.27 311.455 436.988 309.173 436.988 306.358C436.988 303.543 439.27 301.261 442.085 301.261C444.9 301.261 447.183 303.543 447.183 306.358Z" fill="white"/>
<path d="M458.681 134.468H431.552C430.507 134.468 429.66 133.621 429.66 132.576C429.66 131.531 430.507 130.684 431.552 130.684H458.681C459.727 130.684 460.574 131.531 460.574 132.576C460.574 133.621 459.727 134.468 458.681 134.468Z" fill="#EBEBEB"/>
<path d="M502.216 298.107H381.726C380.63 298.107 379.741 297.218 379.741 296.123V140.89C379.741 139.794 380.63 138.905 381.726 138.905H502.216C503.312 138.905 504.2 139.794 504.2 140.89V296.123C504.2 297.218 503.312 298.107 502.216 298.107Z" fill="white"/>
<path d="M502.216 298.107C502.215 298.096 502.341 298.109 502.579 298.061C502.813 298.015 503.175 297.9 503.53 297.578C503.879 297.265 504.209 296.705 504.169 295.99C504.165 295.276 504.162 294.448 504.158 293.51C504.149 289.748 504.135 284.21 504.118 277.08C504.102 262.806 504.079 242.161 504.05 216.653C504.042 203.897 504.034 189.925 504.024 174.925C504.021 167.425 504.017 159.669 504.014 151.679C504.013 149.681 504.012 147.669 504.011 145.643C504.011 144.63 504.01 143.613 504.009 142.593L504.009 141.06C504.036 140.565 503.9 140.115 503.599 139.749C503.304 139.389 502.865 139.152 502.401 139.106C501.926 139.087 501.381 139.101 500.873 139.097C499.839 139.097 498.801 139.098 497.761 139.098C495.68 139.099 493.584 139.1 491.476 139.1C457.745 139.105 420.662 139.111 381.738 139.118C381.191 139.114 380.653 139.372 380.324 139.807C380.158 140.022 380.041 140.274 379.987 140.539C379.934 140.793 379.957 141.097 379.952 141.405C379.952 142.618 379.952 143.829 379.952 145.039C379.952 147.457 379.952 149.869 379.952 152.272C379.952 157.079 379.951 161.853 379.951 166.593C379.95 176.073 379.948 185.414 379.948 194.593C379.943 212.95 379.939 230.657 379.935 247.525C379.929 264.393 379.922 280.421 379.916 295.423V296.125C379.917 296.339 379.956 296.551 380.029 296.75C380.176 297.148 380.466 297.495 380.838 297.7C381.219 297.92 381.619 297.95 382.099 297.933L383.485 297.934C385.327 297.935 387.153 297.936 388.963 297.937C392.581 297.94 396.133 297.941 399.615 297.944C406.577 297.949 413.259 297.954 419.638 297.958C445.146 297.986 465.788 298.009 480.06 298.025C487.19 298.042 492.727 298.056 496.488 298.065C498.362 298.074 499.792 298.082 500.76 298.087C501.722 298.092 502.216 298.107 502.216 298.107C502.216 298.107 501.723 298.122 500.76 298.129C499.792 298.134 498.362 298.14 496.488 298.15C492.727 298.159 487.19 298.173 480.06 298.19C465.788 298.206 445.146 298.229 419.638 298.258C413.259 298.262 406.577 298.267 399.615 298.272C396.133 298.274 392.581 298.276 388.963 298.278C387.154 298.279 385.327 298.28 383.485 298.282L382.099 298.282C381.66 298.303 381.097 298.268 380.666 298.005C380.222 297.76 379.877 297.348 379.7 296.872C379.612 296.634 379.566 296.38 379.564 296.126L379.563 295.423C379.557 280.422 379.55 264.394 379.544 247.526C379.54 230.658 379.535 212.951 379.531 194.594C379.531 185.416 379.529 176.074 379.528 166.594C379.528 161.854 379.527 157.079 379.527 152.273C379.527 149.87 379.527 147.458 379.527 145.04C379.527 143.83 379.527 142.619 379.527 141.405C379.535 141.108 379.504 140.799 379.571 140.456C379.637 140.126 379.783 139.814 379.988 139.548C380.393 139.01 381.066 138.688 381.738 138.693C420.662 138.699 457.745 138.705 491.476 138.71C493.584 138.71 495.679 138.711 497.761 138.712C498.802 138.712 499.839 138.713 500.873 138.713C501.398 138.719 501.886 138.701 502.44 138.725C503.004 138.781 503.538 139.07 503.894 139.507C504.259 139.933 504.425 140.535 504.39 141.061L504.39 142.594C504.39 143.614 504.389 144.631 504.389 145.644C504.388 147.67 504.387 149.682 504.386 151.68C504.383 159.669 504.379 167.426 504.376 174.926C504.367 189.925 504.358 203.897 504.35 216.654C504.321 242.162 504.298 262.807 504.282 277.08C504.265 284.211 504.251 289.749 504.242 293.511C504.238 294.449 504.235 295.276 504.231 295.99C504.266 296.721 503.918 297.298 503.557 297.611C503.189 297.935 502.819 298.042 502.582 298.083C502.341 298.124 502.216 298.107 502.216 298.107Z" fill="#263238"/>
<path d="M503.687 161.581H380.484V206.686H503.687V161.581Z" fill="#F5F5F5"/>
<path d="M412.385 146.315H383.225V153.948H412.385V146.315Z" fill="#F5F5F5"/>
<path d="M501.257 146.315H475.129V153.948H501.257V146.315Z" fill="#F5F5F5"/>
<path d="M470.163 146.315H444.035V153.948H470.163V146.315Z" fill="#F5F5F5"/>
<path d="M493.328 229.916H388.138V237.911H493.328V229.916Z" fill="#F5F5F5"/>
<path d="M493.328 214.792H388.138V222.787H493.328V214.792Z" fill="#F5F5F5"/>
<path d="M493.328 260.881H388.138V268.876H493.328V260.881Z" fill="#F5F5F5"/>
<path d="M493.328 245.758H388.138V253.753H493.328V245.758Z" fill="#F5F5F5"/>
<path d="M418.219 201.282L425.295 194.207L437.634 205.453L459.381 183.731L465.951 190.807L436.624 219.1L418.219 201.282Z" fill="#FF725E"/>
<path d="M542.636 316.167L491.173 316.137C484.983 316.133 479.967 311.128 479.969 304.957L479.994 176.306C479.996 170.131 485.018 165.126 491.211 165.129L542.674 165.16C548.864 165.164 553.878 170.169 553.877 176.34L553.852 304.991C553.851 311.166 548.828 316.17 542.636 316.167Z" fill="#263238"/>
<path d="M542.995 168.994L532.983 168.948C531.64 168.942 530.547 170.075 530.541 171.478L530.533 173.294C530.527 174.698 529.434 175.831 528.091 175.825L508.575 175.734C507.232 175.728 506.148 174.585 506.155 173.181L506.163 171.365C506.168 169.961 505.085 168.818 503.742 168.812L500.22 168.795L491.457 168.755C487.105 168.735 483.562 172.248 483.543 176.6L483.008 302.967C482.99 307.318 486.501 310.859 490.85 310.88L542.388 311.118C546.741 311.138 550.284 307.626 550.303 303.273L550.837 176.904C550.856 172.556 547.345 169.015 542.995 168.994Z" fill="white"/>
<path d="M550.456 191.49H483.39V216.043H550.456V191.49Z" fill="#F5F5F5"/>
<path d="M500.756 183.179H484.883V187.334H500.756V183.179Z" fill="#F5F5F5"/>
<path d="M549.134 183.179H534.91V187.334H549.134V183.179Z" fill="#F5F5F5"/>
<path d="M532.207 183.179H517.984V187.334H532.207V183.179Z" fill="#F5F5F5"/>
<path d="M544.816 228.688H487.556V233.04H544.816V228.688Z" fill="#F5F5F5"/>
<path d="M544.816 220.455H487.556V224.807H544.816V220.455Z" fill="#F5F5F5"/>
<path d="M544.816 245.544H487.556V249.896H544.816V245.544Z" fill="#F5F5F5"/>
<path d="M544.816 253.244H487.556V257.596H544.816V253.244Z" fill="#F5F5F5"/>
<path d="M544.816 262.044H487.556V266.396H544.816V262.044Z" fill="#F5F5F5"/>
<path d="M544.816 270.844H487.556V275.196H544.816V270.844Z" fill="#F5F5F5"/>
<path d="M544.816 279.643H487.556V283.995H544.816V279.643Z" fill="#F5F5F5"/>
<path d="M544.816 237.311H487.556V241.664H544.816V237.311Z" fill="#F5F5F5"/>
<path d="M498.762 245.076L504.3 239.539L514.98 249.032L535.944 228.858L541.086 234.396L514.189 259.712L498.762 245.076Z" fill="#FF725E"/>
<path d="M226.33 312.665H27.2243C20.6601 312.665 15.3386 307.344 15.3386 300.78V177.165C15.3386 170.601 20.6601 165.279 27.2243 165.279H226.33C232.895 165.279 238.216 170.601 238.216 177.165V300.78C238.216 307.344 232.895 312.665 226.33 312.665Z" fill="#263238"/>
<path d="M235.777 316.043H18.9501C12.1452 316.043 6.62793 310.527 6.62793 303.721V303.147H248.099V303.721C248.099 310.526 242.582 316.043 235.777 316.043Z" fill="#263238"/>
<path d="M231.61 171.134H21.321V295.6H231.61V171.134Z" fill="#263238"/>
<path d="M104.806 301.765L107.802 306.531H149.966L152.748 301.765H104.806Z" fill="#455A64"/>
<path d="M225.041 295.202H28.3234C26.8482 295.202 25.6528 294.006 25.6528 292.531V178.018C25.6528 176.543 26.8482 175.348 28.3234 175.348H225.042C226.516 175.348 227.712 176.543 227.712 178.017V292.531C227.711 294.007 226.516 295.202 225.041 295.202Z" fill="#EBEBEB"/>
<path d="M227.495 295.377H25.4358L25.652 184.305H227.495V295.377Z" fill="white"/>
<path d="M42.2243 179.977C42.2243 180.868 41.5022 181.59 40.6104 181.59C39.7194 181.59 38.9973 180.868 38.9973 179.977C38.9973 179.086 39.7194 178.363 40.6104 178.363C41.5014 178.363 42.2243 179.086 42.2243 179.977Z" fill="#263238"/>
<path d="M32.4439 179.977C32.4439 180.868 31.7218 181.59 30.83 181.59C29.939 181.59 29.2161 180.868 29.2161 179.977C29.2161 179.086 29.939 178.363 30.83 178.363C31.7218 178.363 32.4439 179.086 32.4439 179.977Z" fill="#263238"/>
<path d="M37.1387 179.977C37.1387 180.868 36.4166 181.59 35.5248 181.59C34.6338 181.59 33.9109 180.868 33.9109 179.977C33.9109 179.086 34.6338 178.363 35.5248 178.363C36.4166 178.363 37.1387 179.086 37.1387 179.977Z" fill="#263238"/>
<path d="M236.301 301.765C236.301 301.844 186.833 301.909 125.825 301.909C64.7961 301.909 15.3386 301.844 15.3386 301.765C15.3386 301.685 64.7961 301.62 125.825 301.62C186.833 301.62 236.301 301.685 236.301 301.765Z" fill="#455A64"/>
<path d="M227.711 202.211H25.6519V247.316H227.711V202.211Z" fill="#F5F5F5"/>
<path d="M59.7724 190.333H30.6128V197.966H59.7724V190.333Z" fill="#F5F5F5"/>
<path d="M222.916 190.333H206.949V197.966H222.916V190.333Z" fill="#F5F5F5"/>
<path d="M202.152 190.333H176.023V197.966H202.152V190.333Z" fill="#F5F5F5"/>
<path d="M170.59 190.333H144.462V197.966H170.59V190.333Z" fill="#F5F5F5"/>
<path d="M213.61 273.933H35.5247V281.928H213.61V273.933Z" fill="#F5F5F5"/>
<path d="M213.61 258.81H35.5247V266.805H213.61V258.81Z" fill="#F5F5F5"/>
<path d="M101.068 232.221L108.144 225.146L121.79 237.275L148.577 211.499L155.147 218.575L120.78 250.922L101.068 232.221Z" fill="#FF725E"/>
<path d="M183.8 136.822C215.215 136.822 240.682 111.355 240.682 79.9399C240.682 48.525 215.215 23.0582 183.8 23.0582C152.385 23.0582 126.919 48.525 126.919 79.9399C126.919 111.355 152.385 136.822 183.8 136.822Z" fill="#FF725E"/>
<path opacity="0.3" d="M183.8 136.822C215.215 136.822 240.682 111.355 240.682 79.9399C240.682 48.525 215.215 23.0582 183.8 23.0582C152.385 23.0582 126.919 48.525 126.919 79.9399C126.919 111.355 152.385 136.822 183.8 136.822Z" fill="black"/>
<path d="M182.269 133.185C213.683 133.185 239.15 107.718 239.15 76.3034C239.15 44.8885 213.683 19.4218 182.269 19.4218C150.854 19.4218 125.387 44.8885 125.387 76.3034C125.387 107.718 150.854 133.185 182.269 133.185Z" fill="#FF725E"/>
<path d="M199.498 117.058C222.006 107.539 232.535 81.5766 223.017 59.0689C213.498 36.5613 187.536 26.0317 165.028 35.5504C142.52 45.0691 131.991 71.0316 141.509 93.5392C151.028 116.047 176.991 126.577 199.498 117.058Z" fill="white"/>
<path d="M204.281 98.3185C216.439 86.1603 216.439 66.4479 204.281 54.2897C192.123 42.1314 172.41 42.1314 160.252 54.2897C148.094 66.4479 148.094 86.1603 160.252 98.3185C172.41 110.477 192.123 110.477 204.281 98.3185Z" fill="#FF725E"/>
<path d="M188.809 91.3807C197.133 87.7717 200.955 78.0981 197.346 69.7742C193.737 61.4502 184.063 57.628 175.739 61.237C167.415 64.846 163.593 74.5196 167.202 82.8436C170.811 91.1675 180.485 94.9898 188.809 91.3807Z" fill="white"/>
<path d="M226.275 30.2336L224.729 18.0974L237.082 4.87695L237.971 17.9734L226.275 30.2336Z" fill="#455A64"/>
<path d="M252.788 20.5762L240.256 19.5563L227.695 31.6402L240.259 32.9832L252.788 20.5762Z" fill="#455A64"/>
<path opacity="0.3" d="M182.269 77.2588L228.965 43.8172C227.488 41.6101 225.124 38.707 223.036 36.4877L183.034 75.1651L182.269 77.2588Z" fill="black"/>
<path d="M239.824 15.4433C237.87 17.4227 235.916 19.4022 233.963 21.3816C229.272 26.1344 224.581 30.888 219.89 35.6408C214.24 41.3662 208.59 47.0915 202.939 52.8177C198.03 57.7916 193.121 62.7655 188.212 67.7394C185.828 70.1554 183.336 72.502 181.042 75.0044C181.01 75.0403 180.974 75.0738 180.94 75.1089C179.555 76.5115 181.717 78.6769 183.103 77.2727C185.057 75.2933 187.01 73.3138 188.964 71.3344C193.655 66.5816 198.346 61.828 203.037 57.0752C208.687 51.3499 214.338 45.6245 219.988 39.8983C224.897 34.9244 229.806 29.9505 234.715 24.9766C237.099 22.5606 239.591 20.214 241.885 17.7116C241.917 17.6757 241.953 17.6422 241.987 17.6071C243.372 16.2046 241.21 14.0391 239.824 15.4433Z" fill="#263238"/>
<path d="M340.78 163.672C338.854 163.799 336.957 162.298 336.636 160.395C336.316 158.492 337.619 156.453 339.48 155.943C338.346 154.666 338.144 152.65 339 151.172C339.856 149.694 341.706 148.867 343.377 149.214C343.528 147.535 344.61 145.969 346.129 145.236C347.647 144.503 349.546 144.628 350.955 145.554C352.891 144.048 355.893 144.131 357.742 145.742C359.392 145.518 361.134 146.474 361.831 147.986C362.527 149.498 362.123 151.443 360.882 152.552" fill="#263238"/>
<path d="M340.182 164.197C341.286 155.558 348.839 149.218 357.539 149.624L358.403 149.664C367.698 150.644 372.058 159.086 370.821 168.35L368.021 199.323L367.287 206.626L346.161 204.133L346.561 196.223C346.561 196.223 337.665 194.411 337.974 185.448C338.124 181.121 339.155 172.231 340.182 164.197Z" fill="#99655C"/>
<path d="M346.488 196.209C346.488 196.209 352.193 196.82 358.386 193.322C358.386 193.322 355.324 199.64 346.423 198.416L346.488 196.209Z" fill="#744A45"/>
<path d="M342.152 172.455C342.097 173.128 342.622 173.732 343.326 173.802C344.028 173.873 344.642 173.385 344.698 172.711C344.753 172.036 344.228 171.432 343.526 171.361C342.823 171.291 342.208 171.781 342.152 172.455Z" fill="#263238"/>
<path d="M341.903 168.67C342.054 168.844 343.056 168.172 344.433 168.24C345.809 168.288 346.787 169.043 346.944 168.882C347.021 168.811 346.873 168.501 346.449 168.161C346.03 167.822 345.306 167.477 344.449 167.441C343.591 167.406 342.855 167.687 342.425 167.991C341.986 168.297 341.829 168.591 341.903 168.67Z" fill="#263238"/>
<path d="M354.692 173.085C354.637 173.759 355.162 174.362 355.865 174.433C356.567 174.504 357.182 174.016 357.238 173.342C357.293 172.668 356.768 172.064 356.065 171.993C355.363 171.921 354.747 172.411 354.692 173.085Z" fill="#263238"/>
<path d="M355.423 169.559C355.574 169.734 356.578 169.061 357.953 169.13C359.329 169.178 360.306 169.933 360.464 169.772C360.541 169.701 360.395 169.392 359.968 169.051C359.55 168.712 358.826 168.368 357.968 168.331C357.11 168.296 356.374 168.577 355.944 168.881C355.507 169.185 355.349 169.481 355.423 169.559Z" fill="#263238"/>
<path d="M349.95 179.535C349.96 179.457 349.111 179.269 347.733 179.027C347.383 178.975 347.053 178.889 347.006 178.646C346.935 178.388 347.1 178.016 347.289 177.615C347.659 176.78 348.047 175.904 348.453 174.986C350.075 171.243 351.267 168.158 351.116 168.094C350.964 168.03 349.527 171.012 347.905 174.756C347.513 175.679 347.139 176.56 346.783 177.402C346.631 177.795 346.382 178.237 346.537 178.772C346.619 179.039 346.868 179.242 347.091 179.313C347.313 179.393 347.51 179.406 347.684 179.424C349.076 179.566 349.941 179.613 349.95 179.535Z" fill="#263238"/>
<path d="M355.13 165.204C355.295 165.562 356.492 165.239 357.947 165.26C359.402 165.248 360.613 165.579 360.763 165.222C360.828 165.053 360.585 164.727 360.074 164.423C359.568 164.119 358.788 163.866 357.916 163.863C357.044 163.861 356.275 164.109 355.782 164.41C355.285 164.71 355.056 165.035 355.13 165.204Z" fill="#263238"/>
<path d="M342.102 162.99C342.377 163.316 343.529 163.044 344.896 163.093C346.264 163.102 347.41 163.421 347.691 163.106C347.815 162.953 347.647 162.631 347.155 162.312C346.671 161.994 345.849 161.714 344.909 161.693C343.969 161.675 343.143 161.919 342.652 162.218C342.154 162.517 341.981 162.831 342.102 162.99Z" fill="#263238"/>
<path d="M341.236 160.128C341.236 160.128 343.861 154.629 346.627 153.446C349.976 152.014 351.218 155.674 354.38 154.948C357.541 154.222 360.739 152.847 363.816 155.408C367.183 158.212 365.462 159.988 365.491 163.973C365.612 180.129 368.343 184.824 369.534 177.273C369.664 176.445 372.003 175.892 372.509 172.394C373.166 167.858 373.6 162.335 372.734 159.055C372.004 156.289 370.538 154.334 367.849 152.127C363.604 148.645 357.565 148.293 353.443 148.514C349.322 148.735 341.19 153.087 341.236 160.128Z" fill="#263238"/>
<path d="M368.975 177.003C369.096 175.623 370.338 174.587 371.71 174.782C373.373 175.018 375.188 176.054 374.916 179.501C374.434 185.616 368.395 183.871 368.398 183.695C368.4 183.576 368.75 179.56 368.975 177.003Z" fill="#99655C"/>
<path d="M369.909 181.499C369.938 181.482 370.01 181.582 370.183 181.679C370.352 181.772 370.65 181.852 370.978 181.758C371.643 181.572 372.268 180.589 372.384 179.489C372.444 178.934 372.368 178.395 372.205 177.94C372.053 177.478 371.789 177.143 371.468 177.06C371.15 176.959 370.905 177.136 370.817 177.302C370.721 177.467 370.75 177.592 370.717 177.6C370.699 177.614 370.594 177.487 370.663 177.238C370.698 177.119 370.781 176.981 370.934 176.874C371.09 176.767 371.311 176.723 371.535 176.765C372.005 176.835 372.395 177.302 372.573 177.801C372.778 178.303 372.875 178.91 372.808 179.534C372.672 180.764 371.95 181.867 371.046 182.053C370.607 182.131 370.258 181.973 370.084 181.815C369.908 181.648 369.887 181.509 369.909 181.499Z" fill="#744A45"/>
<path d="M369.41 165.131C368.589 165.637 367.723 166.157 366.76 166.207C365.797 166.258 364.727 165.656 364.61 164.698C364.558 164.268 364.684 163.779 364.42 163.436C364.103 163.027 363.481 163.122 362.965 163.152C361.176 163.258 359.411 161.914 359.038 160.16C358.552 160.819 357.493 160.74 356.827 160.265C356.16 159.79 355.751 159.044 355.242 158.403C354.733 157.761 354.004 157.176 353.189 157.253C352.733 157.296 352.297 157.546 351.844 157.485C351.043 157.375 350.694 156.416 350.61 155.611C350.525 154.808 350.475 153.872 349.814 153.406C349.202 152.974 348.372 153.169 347.627 153.243C346.881 153.317 345.934 153.099 345.778 152.366C345.697 151.981 345.878 151.589 346.104 151.267C347.128 149.811 349.239 149.241 350.857 149.985C351.55 147.989 353.516 146.502 355.626 146.379C357.736 146.256 359.861 147.503 360.783 149.405C362.133 148.291 364.036 147.885 365.722 148.354C367.408 148.822 368.83 150.15 369.412 151.801C370.919 151.479 372.591 152.134 373.478 153.396C374.365 154.658 374.416 156.453 373.602 157.762C374.674 158.443 375.565 159.581 375.529 160.85C375.492 162.118 374.198 163.324 372.99 162.933C373.438 163.943 372.974 165.264 371.992 165.771C371.009 166.277 369.664 165.891 369.1 164.94" fill="#263238"/>
<path d="M350.316 151.766C350.311 151.766 350.31 151.804 350.312 151.878C350.317 151.952 350.316 152.063 350.336 152.207C350.379 152.492 350.473 152.916 350.725 153.408C350.98 153.891 351.383 154.456 352.016 154.919C352.635 155.386 353.498 155.759 354.491 155.752L354.394 155.611C354.18 156.126 354.203 156.757 354.438 157.308C354.659 157.867 355.027 158.371 355.416 158.863C355.617 159.099 355.786 159.375 356.069 159.598C356.343 159.812 356.676 159.944 357.022 160.004C357.709 160.124 358.498 159.947 359.026 159.389L358.8 159.313C358.899 160.538 359.535 161.789 360.6 162.583C361.162 163.031 361.871 163.321 362.58 163.336C363.29 163.362 363.959 163.185 364.583 162.993L364.423 162.913C364.717 163.69 365.191 164.363 365.784 164.871C366.364 165.378 367.155 165.696 367.891 165.552C369.35 165.314 370.365 164.156 370.612 163.033L370.47 163.091C371.169 163.515 371.937 163.589 372.56 163.498C373.192 163.413 373.696 163.164 374.058 162.912C374.422 162.655 374.643 162.384 374.778 162.196C374.902 161.999 374.954 161.89 374.947 161.886C374.918 161.859 374.723 162.342 374 162.827C373.64 163.058 373.148 163.284 372.54 163.35C371.942 163.424 371.215 163.337 370.57 162.932L370.458 162.862L370.428 162.991C370.184 164.037 369.208 165.116 367.855 165.322C367.19 165.446 366.494 165.161 365.945 164.682C365.391 164.203 364.938 163.554 364.667 162.825L364.624 162.709L364.506 162.745C363.892 162.932 363.246 163.097 362.591 163.071C361.935 163.054 361.299 162.795 360.763 162.371C359.757 161.619 359.159 160.449 359.06 159.29L359.035 158.998L358.834 159.214C358.387 159.691 357.681 159.863 357.064 159.755C356.754 159.703 356.457 159.587 356.219 159.403C355.985 159.226 355.807 158.953 355.603 158.714C355.213 158.231 354.857 157.745 354.646 157.225C354.421 156.71 354.399 156.156 354.584 155.689L354.641 155.545L354.486 155.549C353.55 155.568 352.718 155.227 352.113 154.788C351.494 154.354 351.09 153.818 350.827 153.355C350.312 152.402 350.36 151.754 350.316 151.766Z" fill="#455A64"/>
<path d="M348.383 184.046C348.361 184.104 348.698 184.313 349.319 184.45C349.935 184.587 350.84 184.608 351.778 184.332C352.714 184.053 353.463 183.544 353.904 183.092C354.35 182.64 354.519 182.28 354.469 182.243C354.356 182.139 353.376 183.34 351.631 183.834C349.897 184.37 348.422 183.896 348.383 184.046Z" fill="#263238"/>
<path d="M328.192 284.309L382.449 285.048C382.449 285.048 397.622 278.698 401.791 278.528C405.959 278.356 414.235 278.887 418.062 285.048C422.019 291.415 422.572 302.65 410.378 310.814C398.506 318.764 344.212 326.111 336.769 325.435L323.05 307.019C323.05 307.019 322.906 291.926 323.05 291.207C323.193 290.488 325.493 284.021 325.493 284.021L328.192 284.309Z" fill="#263238"/>
<path d="M358.314 308.707L390.708 320.74L375.944 361.118C372.173 359.472 372.066 335.75 372.066 335.75L350.995 328.893L358.314 308.707Z" fill="#FF725E"/>
<g opacity="0.6">
<path d="M374.882 322.625C375.382 321.922 376.458 321.703 377.182 322.173C377.905 322.643 378.137 323.736 377.65 324.448C377.163 325.16 375.879 325.462 375.213 324.914C374.547 324.366 374.345 323.068 374.988 322.494" fill="white"/>
</g>
<path d="M390.708 320.74L387.439 319.526L374.479 358.775C374.479 358.775 374.603 360.859 375.944 361.119L390.708 320.74Z" fill="#263238"/>
<path d="M371.622 336.331C371.821 336.396 372.271 335.443 373.26 334.704C374.229 333.94 375.267 333.752 375.254 333.543C375.282 333.347 373.996 333.21 372.815 334.125C371.626 335.029 371.425 336.307 371.622 336.331Z" fill="#263238"/>
<path d="M371.825 341.206C372 341.321 372.647 340.59 373.726 340.226C374.794 339.829 375.758 339.99 375.821 339.79C375.919 339.616 374.815 339.057 373.481 339.536C372.145 340.004 371.638 341.133 371.825 341.206Z" fill="#263238"/>
<path d="M376.014 345.465C376.122 345.301 375.236 344.667 373.972 344.778C372.705 344.881 371.94 345.654 372.074 345.798C372.196 345.968 372.993 345.582 374.034 345.506C375.071 345.406 375.924 345.653 376.014 345.465Z" fill="#263238"/>
<path d="M366.993 334.234C367.203 334.217 367.262 333.214 367.745 332.127C368.206 331.03 368.898 330.299 368.766 330.135C368.665 329.969 367.626 330.549 367.075 331.837C366.513 333.121 366.803 334.275 366.993 334.234Z" fill="#263238"/>
<path d="M362.554 331.521C362.635 331.553 363.042 330.819 363.282 329.496C363.402 328.837 363.466 328.033 363.406 327.142C363.375 326.698 363.314 326.232 363.214 325.755C363.162 325.526 363.123 325.261 362.961 324.971C362.835 324.678 362.358 324.362 361.945 324.497C361.559 324.59 361.292 324.908 361.178 325.196C361.06 325.491 361.031 325.754 361.006 325.994C360.951 326.483 360.946 326.959 360.977 327.408C361.047 328.308 361.261 329.097 361.52 329.721C362.045 330.975 362.665 331.564 362.728 331.511C362.826 331.445 362.375 330.763 362.007 329.549C361.824 328.943 361.678 328.201 361.651 327.373C361.639 326.96 361.658 326.526 361.717 326.082C361.762 325.613 361.891 325.248 362.122 325.208C362.21 325.195 362.24 325.2 362.332 325.335C362.413 325.47 362.463 325.684 362.515 325.911C362.617 326.353 362.689 326.787 362.736 327.203C362.827 328.035 362.82 328.795 362.77 329.432C362.67 330.705 362.446 331.486 362.554 331.521Z" fill="#263238"/>
<path d="M362.93 331.368C362.986 331.309 362.422 330.66 361.172 330.121C360.551 329.855 359.759 329.641 358.857 329.587C358.406 329.562 357.929 329.58 357.441 329.653C356.956 329.744 356.316 329.837 355.948 330.57C355.787 330.964 355.977 331.41 356.203 331.621C356.428 331.854 356.652 331.967 356.869 332.1C357.314 332.346 357.779 332.506 358.231 332.599C359.137 332.787 359.98 332.696 360.635 332.5C361.97 332.094 362.506 331.357 362.446 331.316C362.371 331.214 361.739 331.762 360.513 331.998C359.908 332.114 359.158 332.14 358.379 331.943C357.99 331.845 357.595 331.695 357.224 331.478C356.818 331.258 356.531 330.971 356.633 330.826C356.703 330.625 357.151 330.401 357.555 330.361C357.992 330.286 358.423 330.257 358.834 330.261C359.656 330.275 360.395 330.419 360.995 330.607C362.2 330.984 362.861 331.464 362.93 331.368Z" fill="#263238"/>
<path d="M340.437 307.869L311.409 321.333L327.976 357.534C331.337 355.74 329.709 333.834 329.709 333.834L348.662 325.97L340.437 307.869Z" fill="#FF725E"/>
<g opacity="0.6">
<path d="M326.155 321.922C325.642 321.309 324.633 321.186 323.999 321.672C323.366 322.159 323.231 323.184 323.732 323.806C324.234 324.428 325.441 324.613 326.016 324.059C326.591 323.504 326.684 322.292 326.047 321.809" fill="white"/>
</g>
<path d="M311.409 321.333L314.339 319.974L329.158 355.263C329.158 355.263 329.195 357.196 327.976 357.533L311.409 321.333Z" fill="#263238"/>
<path d="M330.161 334.336C329.982 334.412 329.497 333.565 328.531 332.955C327.581 332.32 326.61 332.222 326.605 332.027C326.566 331.849 327.743 331.629 328.9 332.387C330.063 333.135 330.342 334.301 330.161 334.336Z" fill="#263238"/>
<path d="M330.328 338.852C330.176 338.971 329.525 338.343 328.502 338.085C327.487 337.796 326.609 338.015 326.537 337.835C326.433 337.682 327.412 337.085 328.678 337.43C329.946 337.765 330.496 338.771 330.328 338.852Z" fill="#263238"/>
<path d="M326.772 343.088C326.66 342.944 327.431 342.294 328.607 342.306C329.784 342.308 330.546 342.966 330.433 343.109C330.333 343.276 329.568 342.976 328.603 342.983C327.638 342.966 326.869 343.256 326.772 343.088Z" fill="#263238"/>
<path d="M334.283 332.065C334.088 332.065 333.96 331.142 333.435 330.174C332.929 329.194 332.238 328.57 332.347 328.41C332.428 328.249 333.43 328.708 334.032 329.857C334.644 331.002 334.46 332.089 334.283 332.065Z" fill="#263238"/>
<path d="M338.183 329.237C338.111 329.273 337.682 328.624 337.362 327.419C337.203 326.819 337.086 326.082 337.076 325.256C337.072 324.843 337.094 324.409 337.152 323.962C337.183 323.747 337.201 323.499 337.328 323.219C337.423 322.939 337.841 322.613 338.232 322.708C338.595 322.766 338.865 323.039 338.99 323.297C339.121 323.56 339.167 323.801 339.207 324.02C339.294 324.468 339.334 324.907 339.336 325.324C339.338 326.159 339.198 326.903 339.003 327.497C338.61 328.694 338.081 329.282 338.019 329.237C337.924 329.183 338.29 328.521 338.542 327.373C338.666 326.801 338.747 326.105 338.713 325.339C338.693 324.957 338.645 324.557 338.557 324.151C338.483 323.722 338.336 323.394 338.121 323.375C338.039 323.369 338.011 323.375 337.936 323.508C337.871 323.638 337.84 323.84 337.809 324.053C337.747 324.469 337.713 324.873 337.7 325.261C337.675 326.036 337.738 326.738 337.83 327.321C338.016 328.492 338.28 329.197 338.183 329.237Z" fill="#263238"/>
<path d="M337.824 329.123C337.767 329.072 338.24 328.432 339.356 327.843C339.91 327.554 340.625 327.297 341.454 327.182C341.869 327.127 342.31 327.108 342.766 327.141C343.221 327.189 343.819 327.229 344.211 327.878C344.389 328.23 344.245 328.656 344.052 328.866C343.862 329.098 343.663 329.218 343.473 329.357C343.081 329.617 342.663 329.798 342.252 329.917C341.43 330.156 340.644 330.134 340.025 330C338.763 329.722 338.214 329.08 338.267 329.039C338.329 328.939 338.952 329.399 340.102 329.528C340.668 329.592 341.363 329.561 342.068 329.322C342.42 329.203 342.773 329.036 343.1 328.809C343.459 328.577 343.703 328.29 343.598 328.164C343.519 327.983 343.089 327.809 342.714 327.802C342.305 327.764 341.905 327.768 341.526 327.803C340.768 327.875 340.097 328.063 339.557 328.28C338.471 328.716 337.895 329.207 337.824 329.123Z" fill="#263238"/>
<path d="M325.493 284.021C325.493 284.021 302.063 275.271 293.439 276.403C288.617 277.036 281.077 280.715 280.502 286.896C279.927 293.077 281.436 301.344 289.773 305.369C298.11 309.394 331.384 324.326 339.29 326.626C347.195 328.926 366.907 334.311 366.907 334.311L374.395 312.971C374.395 312.971 333.542 298.826 331.386 297.244C329.229 295.663 323.768 293.507 323.768 293.507L325.493 284.021Z" fill="#263238"/>
<path d="M406.941 286.923C406.939 286.927 406.885 286.912 406.779 286.88C406.66 286.845 406.504 286.797 406.309 286.738C405.895 286.613 405.283 286.434 404.486 286.245C403.689 286.058 402.705 285.846 401.549 285.734C400.393 285.619 399.064 285.614 397.607 285.739C396.151 285.867 394.561 286.13 392.918 286.632C392.098 286.885 391.262 287.191 390.444 287.598C389.617 288.002 388.766 288.417 387.894 288.842C384.389 290.517 380.475 292.233 376.305 293.88C367.956 297.225 359.942 298.812 354.229 300.111C351.361 300.745 349.044 301.267 347.447 301.646C346.661 301.832 346.044 301.978 345.608 302.082C345.407 302.128 345.249 302.163 345.128 302.191C345.019 302.213 344.963 302.223 344.962 302.219C344.961 302.215 345.015 302.197 345.121 302.165C345.24 302.132 345.397 302.088 345.595 302.032C346.012 301.92 346.627 301.749 347.424 301.55C349.015 301.14 351.327 300.592 354.189 299.935C359.896 298.591 367.889 296.979 376.213 293.644C380.378 291.999 384.289 290.293 387.794 288.631C388.667 288.209 389.519 287.797 390.347 287.397C391.18 286.987 392.027 286.681 392.857 286.431C394.52 285.932 396.124 285.678 397.592 285.56C399.061 285.445 400.4 285.464 401.563 285.593C402.729 285.719 403.713 285.946 404.509 286.149C405.307 286.353 405.914 286.548 406.324 286.689C406.517 286.758 406.671 286.814 406.788 286.856C406.89 286.896 406.943 286.919 406.941 286.923Z" fill="#455A64"/>
<path d="M405.709 283.834C405.701 283.875 404.996 283.746 403.849 283.623C402.701 283.498 401.108 283.405 399.351 283.493C397.594 283.585 396.018 283.842 394.89 284.083C393.762 284.324 393.073 284.523 393.061 284.483C393.056 284.467 393.223 284.4 393.529 284.294C393.835 284.185 394.287 284.052 394.85 283.909C395.975 283.621 397.563 283.333 399.338 283.24C401.113 283.15 402.722 283.274 403.871 283.445C404.445 283.53 404.908 283.617 405.223 283.693C405.54 283.768 405.713 283.817 405.709 283.834Z" fill="#455A64"/>
<path d="M315.637 290.218C315.609 290.254 314.96 289.751 313.838 289.056C312.717 288.359 311.098 287.505 309.2 286.832C307.3 286.164 305.503 285.813 304.193 285.653C302.882 285.489 302.061 285.474 302.062 285.429C302.062 285.412 302.268 285.401 302.639 285.399C303.011 285.391 303.55 285.415 304.212 285.475C305.537 285.591 307.362 285.918 309.284 286.593C311.203 287.273 312.829 288.165 313.933 288.905C314.486 289.274 314.92 289.593 315.205 289.833C315.494 290.068 315.647 290.205 315.637 290.218Z" fill="#455A64"/>
<path d="M327.394 322.047C327.394 322.047 327.457 322.068 327.577 322.117C327.704 322.17 327.879 322.244 328.109 322.34C328.581 322.53 329.263 322.854 330.179 323.206C332.004 323.93 334.701 324.922 338.16 326.06C345.08 328.321 355.03 331.202 366.934 334.201L366.8 334.273C369.019 328.113 371.467 321.318 374.043 314.168L374.113 314.326C371.24 313.147 368.215 311.905 365.143 310.644C345.369 302.505 327.6 295.192 315.508 290.216L315.491 290.209L315.479 290.196C313.458 288.057 311.6 286.173 309.857 284.652C308.114 283.132 306.512 281.958 305.144 281.101C303.784 280.231 302.661 279.682 301.91 279.297C301.533 279.121 301.244 278.986 301.042 278.892C300.847 278.8 300.75 278.746 300.75 278.746C300.75 278.746 300.854 278.784 301.052 278.87C301.257 278.959 301.549 279.087 301.931 279.254C302.689 279.624 303.821 280.161 305.193 281.023C306.572 281.87 308.187 283.037 309.944 284.552C311.7 286.068 313.573 287.949 315.601 290.08L315.572 290.06C327.672 295.018 345.453 302.304 365.238 310.41C368.311 311.672 371.335 312.914 374.207 314.095L374.318 314.141L374.278 314.253C371.694 321.401 369.238 328.194 367.013 334.351L366.978 334.448L366.879 334.423C354.973 331.403 345.03 328.49 338.116 326.19C334.662 325.033 331.969 324.02 330.151 323.273C329.238 322.911 328.56 322.576 328.094 322.374C327.867 322.271 327.693 322.191 327.569 322.134C327.452 322.079 327.394 322.047 327.394 322.047Z" fill="#455A64"/>
<path d="M385.306 209.35C385.306 209.35 392.052 213.236 393.419 217.802C394.249 220.574 400.542 256.042 401.538 263.035C402.543 270.096 400.433 275.209 397.451 277.529C394.469 279.849 385.427 282.94 385.427 282.94L372.709 287.059L369.063 277.78L381.171 260.387L379.999 248.671L385.306 209.35Z" fill="#FF725E"/>
<path d="M372.045 203.222L366.974 200.328C366.974 200.328 362.358 205.729 356.061 205.066C349.765 204.403 346.036 199.584 346.036 199.584L327.26 203.408C326 203.66 323.702 204.456 321.505 207.595C319.054 211.098 307.436 226.627 307.436 226.627H299.299C297.056 226.627 294.996 227.868 293.953 229.853C292.563 232.497 290.896 236.034 291.059 237.5C291.334 239.977 290.856 246.779 294.179 248.902C295.233 249.575 299.002 251.596 301.928 251.459C306.245 251.255 311.259 249.007 314.147 246.987C316.593 245.277 322.282 239.365 324.47 237.057L324.467 237.092L325.872 286.349L375.102 284.947L385.304 209.35C385.306 209.35 372.542 203.222 372.045 203.222Z" fill="#FF725E"/>
<path d="M324.296 216.42C324.366 216.419 324.494 222.525 324.583 230.055C324.672 237.589 324.688 243.693 324.618 243.694C324.547 243.695 324.419 237.591 324.33 230.058C324.242 222.528 324.226 216.421 324.296 216.42Z" fill="#263238"/>
<path d="M391.266 256.239C391.268 256.264 390.848 256.306 390.105 256.448C389.36 256.584 388.297 256.879 387.057 257.419C385.814 257.954 384.421 258.786 382.997 259.871C381.575 260.959 380.133 262.311 378.722 263.825C377.313 265.344 376.029 266.849 374.82 268.184C373.613 269.521 372.482 270.688 371.467 271.601C370.454 272.514 369.579 273.191 368.946 273.618C368.637 273.84 368.378 273.986 368.209 274.095C368.038 274.199 367.947 274.251 367.942 274.243C367.937 274.236 368.02 274.17 368.182 274.052C368.341 273.931 368.59 273.773 368.889 273.538C369.501 273.089 370.355 272.395 371.346 271.47C372.34 270.546 373.453 269.372 374.647 268.03C375.844 266.689 377.123 265.18 378.537 263.654C379.957 262.133 381.414 260.776 382.857 259.687C384.302 258.602 385.72 257.777 386.986 257.257C388.25 256.731 389.332 256.461 390.088 256.353C390.462 256.279 390.762 256.277 390.961 256.253C391.16 256.234 391.265 256.23 391.266 256.239Z" fill="#263238"/>
<path d="M392.38 252.903C392.386 252.948 391.635 253.052 390.461 253.377C389.289 253.699 387.704 254.291 386.108 255.238C384.515 256.191 383.24 257.302 382.398 258.18C381.554 259.057 381.105 259.668 381.068 259.641C381.055 259.63 381.156 259.471 381.354 259.189C381.547 258.906 381.858 258.516 382.269 258.058C383.085 257.14 384.362 255.988 385.98 255.021C387.6 254.059 389.221 253.485 390.417 253.204C391.015 253.062 391.506 252.974 391.848 252.939C392.189 252.899 392.377 252.886 392.38 252.903Z" fill="#263238"/>
<g opacity="0.3">
<path d="M300.754 244.256C303.36 244.967 306.49 241.217 308.857 238.87C310.088 237.65 311.368 236.348 311.822 234.674C312.196 233.292 311.951 231.8 311.413 230.473C310.874 229.146 310.492 228.286 309.68 227.106C309.898 229.129 310.396 232.23 309.716 234.772C309.148 236.893 307.804 238.581 306.379 240.181C304.87 241.876 303.086 243.654 300.754 244.256Z" fill="black"/>
</g>
<path d="M311.896 242.111C311.847 242.096 312.149 241.252 312.393 239.84C312.52 239.135 312.603 238.284 312.632 237.338C312.643 236.392 312.59 235.351 312.425 234.272C312.249 233.194 311.979 232.187 311.676 231.29C311.358 230.399 311.016 229.616 310.677 228.985C310.01 227.716 309.463 227.007 309.504 226.977C309.518 226.966 309.66 227.138 309.905 227.46C310.03 227.62 310.177 227.819 310.327 228.064C310.481 228.307 310.669 228.577 310.835 228.899C311.197 229.527 311.561 230.313 311.896 231.212C312.215 232.117 312.495 233.138 312.675 234.232C312.842 235.328 312.889 236.385 312.864 237.344C312.823 238.302 312.719 239.162 312.568 239.871C312.509 240.23 312.414 240.544 312.343 240.822C312.275 241.102 312.197 241.337 312.127 241.527C311.994 241.91 311.912 242.117 311.896 242.111Z" fill="#263238"/>
<path d="M348.086 201.488C348.12 201.554 347.543 201.889 346.939 202.431C346.33 202.968 345.931 203.502 345.869 203.461C345.811 203.429 346.132 202.806 346.77 202.242C347.406 201.674 348.062 201.427 348.086 201.488Z" fill="#263238"/>
<path d="M353.21 204.464C353.263 204.517 352.767 205.049 352.369 205.835C351.962 206.616 351.819 207.329 351.744 207.317C351.68 207.314 351.716 206.546 352.145 205.72C352.567 204.889 353.17 204.413 353.21 204.464Z" fill="#263238"/>
<path d="M361.981 207.553C361.91 207.568 361.711 206.894 361.417 206.084C361.126 205.272 360.851 204.627 360.914 204.593C360.974 204.561 361.357 205.168 361.654 205.998C361.955 206.826 362.047 207.54 361.981 207.553Z" fill="#263238"/>
<path d="M367.624 204.885C367.549 204.902 367.357 204.042 366.801 203.135C366.255 202.221 365.584 201.653 365.633 201.595C365.665 201.54 366.442 202.045 367.017 203.005C367.601 203.959 367.688 204.882 367.624 204.885Z" fill="#263238"/>
<path d="M383.835 220.835C383.904 220.844 383.07 227.572 381.973 235.861C380.876 244.153 379.93 250.865 379.861 250.856C379.792 250.847 380.625 244.12 381.722 235.829C382.82 227.54 383.765 220.826 383.835 220.835Z" fill="#263238"/>
<path d="M310.06 231.729C310.077 231.73 310.071 231.977 310.045 232.425C310.041 232.65 310.001 232.921 309.945 233.235C309.918 233.394 309.889 233.562 309.859 233.738C309.822 233.915 309.768 234.098 309.719 234.293C309.537 235.076 309.185 235.97 308.749 236.937C308.274 237.886 307.689 238.901 306.94 239.874C306.182 240.838 305.364 241.682 304.535 242.35C303.69 242.994 302.875 243.516 302.121 243.807C301.935 243.883 301.76 243.964 301.591 244.025C301.418 244.074 301.253 244.119 301.097 244.163C300.945 244.204 300.802 244.242 300.668 244.279C300.535 244.309 300.408 244.315 300.297 244.331C299.851 244.383 299.606 244.403 299.604 244.386C299.591 244.318 300.607 244.299 302.05 243.643C302.779 243.338 303.568 242.811 304.389 242.169C305.195 241.503 305.994 240.669 306.74 239.72C307.477 238.761 308.059 237.765 308.54 236.835C308.981 235.887 309.346 235.013 309.547 234.246C309.989 232.722 310.003 231.724 310.06 231.729Z" fill="#263238"/>
<g opacity="0.3">
<path d="M382.25 288.035C384.337 287.026 384.812 284.318 385.025 282.009C385.649 275.243 386.273 268.476 386.897 261.711C387.19 258.529 387.333 254.898 385.089 252.623C383.041 250.546 379.785 250.421 376.867 250.43C358.852 250.482 342.943 251.008 324.928 251.06L325.846 282.572L382.25 288.035Z" fill="black"/>
</g>
<path d="M317.165 255.941L319.083 292.491C319.158 293.9 320.335 295.004 321.762 295.003L379.983 295.105C381.413 295.104 382.592 293.994 382.661 292.582L384.883 256.653C384.956 255.162 383.895 253.177 382.384 253.147L319.898 253.152C318.34 253.122 317.084 254.404 317.165 255.941Z" fill="#E0E0E0"/>
<path d="M317.165 255.941C317.165 255.941 317.161 255.896 317.159 255.804C317.151 255.713 317.159 255.576 317.181 255.397C317.233 255.047 317.384 254.495 317.871 253.973C318.112 253.717 318.436 253.469 318.845 253.311C319.25 253.138 319.743 253.101 320.252 253.115C321.277 253.112 322.461 253.107 323.791 253.103C329.123 253.093 336.829 253.078 346.349 253.06C355.874 253.052 367.214 253.041 379.805 253.03C380.592 253.029 381.384 253.029 382.18 253.028C382.577 253.01 383.032 253.108 383.383 253.335C383.744 253.556 384.037 253.865 384.272 254.207C384.735 254.896 385.009 255.716 385.003 256.565C384.955 257.38 384.906 258.199 384.858 259.022C384.656 262.311 384.449 265.67 384.239 269.089C383.817 275.927 383.379 283.007 382.932 290.259L382.848 291.618C382.81 292.074 382.816 292.51 382.736 292.986C382.563 293.923 381.862 294.721 380.981 295.046C380.546 295.22 380.049 295.244 379.614 295.229L378.275 295.227C377.384 295.225 376.496 295.223 375.611 295.222C372.072 295.215 368.585 295.208 365.158 295.201C358.305 295.187 351.695 295.173 345.399 295.16C339.102 295.145 333.118 295.13 327.518 295.116C326.118 295.113 324.743 295.109 323.392 295.106C323.054 295.105 322.718 295.104 322.383 295.103C322.049 295.098 321.718 295.117 321.372 295.071C320.691 294.979 320.058 294.624 319.627 294.107C319.187 293.596 318.971 292.91 318.977 292.268C318.945 291.632 318.912 291.003 318.88 290.381C318.817 289.136 318.754 287.919 318.693 286.73C318.21 277.222 317.82 269.527 317.55 264.202C317.421 261.547 317.321 259.483 317.252 258.077C317.221 257.38 317.198 256.848 317.181 256.484C317.166 256.126 317.165 255.941 317.165 255.941C317.165 255.941 317.183 256.125 317.207 256.483C317.229 256.847 317.261 257.379 317.303 258.075C317.382 259.48 317.499 261.543 317.648 264.198C317.937 269.521 318.355 277.214 318.87 286.721C318.934 287.91 318.999 289.127 319.066 290.372C319.1 290.994 319.133 291.623 319.167 292.259C319.165 292.889 319.366 293.502 319.775 293.983C320.178 294.463 320.766 294.792 321.399 294.876C321.711 294.919 322.048 294.9 322.383 294.905C322.718 294.905 323.054 294.906 323.392 294.906C324.743 294.907 326.118 294.908 327.518 294.909C333.118 294.916 339.102 294.922 345.399 294.929C351.695 294.937 358.306 294.947 365.158 294.956C368.584 294.961 372.071 294.966 375.611 294.972C376.495 294.974 377.384 294.975 378.275 294.976L379.614 294.978C380.07 294.992 380.485 294.97 380.892 294.812C381.694 294.515 382.333 293.789 382.488 292.939C382.56 292.524 382.559 292.051 382.596 291.605L382.68 290.248C383.13 282.997 383.568 275.916 383.992 269.078C384.204 265.66 384.413 262.301 384.618 259.012C384.668 258.191 384.717 257.374 384.765 256.561C384.771 255.778 384.512 254.989 384.077 254.344C383.645 253.698 382.962 253.207 382.179 253.266C381.383 253.265 380.591 253.265 379.804 253.265C367.213 253.256 355.874 253.248 346.348 253.241C336.828 253.225 329.123 253.212 323.791 253.203C322.461 253.199 321.277 253.195 320.252 253.191C319.738 253.174 319.269 253.207 318.869 253.371C318.467 253.522 318.149 253.761 317.909 254.01C317.425 254.517 317.267 255.057 317.208 255.403C317.151 255.755 317.178 255.941 317.165 255.941Z" fill="#263238"/>
<path d="M354.885 273.768C354.885 275.661 353.349 277.197 351.455 277.197C349.561 277.197 348.026 275.661 348.026 273.768C348.026 271.874 349.561 270.338 351.455 270.338C353.349 270.338 354.885 271.874 354.885 273.768Z" fill="white"/>
<path d="M354.885 273.768C354.856 273.769 354.87 273.462 354.73 272.942C354.592 272.432 354.244 271.686 353.476 271.113C353.096 270.833 352.618 270.595 352.07 270.501C351.525 270.412 350.91 270.431 350.328 270.656C349.744 270.867 349.189 271.264 348.794 271.813C348.388 272.355 348.161 273.05 348.153 273.767C348.16 274.483 348.388 275.178 348.794 275.721C349.189 276.27 349.744 276.668 350.328 276.879C350.91 277.103 351.525 277.123 352.07 277.033C352.619 276.939 353.096 276.703 353.476 276.422C354.244 275.848 354.592 275.102 354.73 274.593C354.869 274.073 354.856 273.766 354.885 273.768C354.894 273.768 354.898 273.843 354.899 273.988C354.903 274.132 354.885 274.348 354.825 274.617C354.712 275.148 354.38 275.941 353.585 276.565C353.192 276.869 352.69 277.13 352.108 277.239C351.53 277.345 350.875 277.332 350.248 277.098C349.621 276.879 349.021 276.456 348.594 275.868C348.155 275.288 347.906 274.538 347.899 273.768C347.906 272.997 348.155 272.248 348.594 271.667C349.021 271.08 349.621 270.657 350.248 270.438C350.874 270.204 351.529 270.191 352.108 270.297C352.69 270.406 353.192 270.667 353.585 270.971C354.38 271.595 354.712 272.388 354.825 272.919C354.885 273.188 354.903 273.404 354.899 273.548C354.898 273.693 354.893 273.768 354.885 273.768Z" fill="#263238"/>
<path d="M319.126 259.987C319.195 259.984 319.482 266.126 319.766 273.703C320.05 281.283 320.224 287.428 320.154 287.43C320.084 287.433 319.798 281.292 319.514 273.712C319.23 266.136 319.056 259.99 319.126 259.987Z" fill="#263238"/>
<path d="M301.627 212.3C301.286 212.011 302.778 206.272 302.778 206.272C302.778 206.272 298.828 199.827 298.724 197.748C298.621 195.669 300.284 191.408 300.284 191.408L311.613 188.497C311.613 188.497 315.253 195.253 315.979 197.644C316.706 200.035 314.73 208.142 314.73 208.142L312.811 212.3C312.811 212.3 307.024 216.873 301.627 212.3Z" fill="#99655C"/>
<path d="M298.745 198.991C298.745 198.991 298.254 198.139 297.553 196.476C296.835 194.774 295.954 193.107 297.553 192.155C298.493 191.595 299.26 191.886 299.26 191.886C299.26 191.886 299.014 190.454 299.87 189.916C300.725 189.379 301.55 189.77 301.55 189.77C301.55 189.77 301.28 187.751 302.512 186.894C304.056 185.819 305.649 186.804 305.649 186.804C305.649 186.804 304.674 177.964 304.589 177.495C304.278 175.775 304.915 174.255 306.625 174.679C307.252 174.834 307.6 175.495 308.335 178.374C309.07 181.253 310.251 186.167 310.251 186.167C310.251 186.167 312.241 189.625 313.18 191.5C314.12 193.375 315.978 197.645 316.132 198.776C316.533 201.701 314.819 205.573 314.819 205.573L302.776 206.272C302.778 206.272 299.204 199.83 298.745 198.991Z" fill="#99655C"/>
<path d="M299.497 192.267C299.526 192.248 299.88 192.747 300.429 193.568C300.713 194.001 301.033 194.487 301.381 195.017C301.557 195.29 301.752 195.581 301.899 195.922C302.046 196.257 302.136 196.667 302.041 197.071C301.961 197.467 301.677 197.851 301.28 197.963C300.887 198.085 300.505 197.969 300.202 197.83C299.893 197.688 299.631 197.501 299.397 197.332C299.161 197.163 298.944 196.999 298.749 196.846C298.359 196.541 298.054 196.279 297.85 196.092C297.646 195.905 297.542 195.792 297.552 195.78C297.577 195.751 298.053 196.133 298.856 196.703C299.261 196.974 299.731 197.353 300.297 197.618C300.58 197.742 300.909 197.826 301.205 197.727C301.506 197.64 301.723 197.352 301.795 197.016C301.875 196.678 301.803 196.332 301.672 196.019C301.541 195.705 301.358 195.421 301.186 195.143C300.855 194.603 300.55 194.107 300.279 193.665C299.768 192.818 299.467 192.286 299.497 192.267Z" fill="#744A45"/>
<path d="M309.374 193.317C309.309 193.32 309.248 192.455 309.5 191.424C309.747 190.393 310.195 189.65 310.251 189.682C310.318 189.715 309.983 190.485 309.746 191.484C309.502 192.48 309.449 193.318 309.374 193.317Z" fill="#744A45"/>
<path d="M314.148 195.901C313.072 194.804 311.621 194.124 310.12 193.798C308.618 193.473 307.062 193.483 305.532 193.622C304.307 193.734 302.908 194.051 302.349 195.146C301.775 196.275 302.466 197.729 303.553 198.378C304.64 199.028 305.984 199.053 307.244 198.938C308.505 198.824 309.777 198.588 311.028 198.784" fill="#99655C"/>
<path d="M311.028 198.784C311.025 198.805 310.689 198.752 310.078 198.759C309.466 198.759 308.59 198.87 307.497 199.004C306.95 199.064 306.343 199.115 305.689 199.081C305.039 199.043 304.326 198.923 303.66 198.571C302.991 198.226 302.418 197.602 302.153 196.818C302.016 196.429 301.981 195.991 302.067 195.565C302.167 195.142 302.398 194.742 302.731 194.451C303.404 193.857 304.264 193.667 305.046 193.552C305.841 193.456 306.602 193.417 307.334 193.414C308.796 193.408 310.116 193.625 311.163 193.993C312.212 194.357 312.982 194.845 313.461 195.234C313.702 195.427 313.875 195.594 313.988 195.71C314.098 195.829 314.153 195.895 314.147 195.9C314.13 195.917 313.896 195.669 313.401 195.311C312.911 194.952 312.142 194.498 311.106 194.162C310.073 193.822 308.776 193.628 307.336 193.646C306.617 193.655 305.854 193.7 305.08 193.796C304.32 193.909 303.5 194.103 302.901 194.637C302.602 194.898 302.402 195.25 302.313 195.618C302.237 195.991 302.264 196.383 302.388 196.739C302.627 197.457 303.153 198.041 303.769 198.364C304.39 198.7 305.071 198.825 305.702 198.87C306.338 198.913 306.935 198.874 307.479 198.825C308.568 198.716 309.461 198.63 310.079 198.66C310.389 198.67 310.627 198.701 310.787 198.725C310.947 198.755 311.03 198.776 311.028 198.784Z" fill="#744A45"/>
<path d="M299.584 192.404C300.851 194.328 301.97 196.444 303.038 198.485C303.349 199.079 303.678 199.707 304.248 200.058C304.705 200.34 305.838 199.829 306.346 199.655L302.867 191.738" fill="#99655C"/>
<path d="M302.867 191.738C302.882 191.732 302.99 191.941 303.176 192.328C303.375 192.756 303.634 193.313 303.946 193.986C304.591 195.398 305.475 197.371 306.461 199.605L306.516 199.728L306.387 199.773C306.011 199.907 305.608 200.077 305.173 200.186C305 200.228 304.825 200.261 304.641 200.266C304.548 200.268 304.453 200.265 304.356 200.236C304.257 200.215 304.159 200.153 304.094 200.107C303.8 199.904 303.576 199.634 303.393 199.357C303.035 198.796 302.783 198.232 302.5 197.709C301.954 196.657 301.453 195.713 301.019 194.929C300.586 194.144 300.22 193.518 299.965 193.086C299.712 192.654 299.57 192.415 299.586 192.404C299.599 192.395 299.769 192.616 300.049 193.034C300.33 193.451 300.72 194.065 301.175 194.841C301.63 195.616 302.149 196.553 302.708 197.601C302.995 198.118 303.26 198.693 303.6 199.219C303.774 199.48 303.981 199.722 304.238 199.899C304.456 200.078 304.794 200.012 305.113 199.941C305.525 199.838 305.916 199.675 306.307 199.536L306.233 199.705C305.253 197.468 304.398 195.482 303.794 194.053C303.51 193.368 303.275 192.801 303.094 192.364C302.933 191.967 302.852 191.745 302.867 191.738Z" fill="#744A45"/>
<path d="M301.929 189.387C303.048 192.191 304.166 194.996 305.284 197.801C305.522 198.396 305.766 199.004 306.187 199.488C306.607 199.973 307.242 200.319 307.876 200.224C308.75 200.093 309.321 199.166 309.366 198.284C309.41 197.401 309.06 196.553 308.737 195.73C307.734 193.173 306.928 190.537 306.331 187.856" fill="#99655C"/>
<path d="M306.331 187.856C306.339 187.854 306.369 187.943 306.416 188.112C306.469 188.31 306.534 188.555 306.615 188.856C306.789 189.501 307.041 190.434 307.396 191.574C307.75 192.714 308.207 194.06 308.785 195.529C309.065 196.26 309.428 197.039 309.487 197.936C309.52 198.379 309.442 198.855 309.233 199.273C309.029 199.689 308.692 200.077 308.225 200.261C307.757 200.448 307.227 200.368 306.816 200.146C306.396 199.93 306.064 199.586 305.825 199.214C305.35 198.456 305.119 197.655 304.81 196.928C304.238 195.463 303.719 194.14 303.28 193.016C302.862 191.924 302.52 191.028 302.268 190.371C302.162 190.078 302.074 189.839 302.004 189.647C301.947 189.481 301.92 189.392 301.928 189.388C301.937 189.385 301.979 189.468 302.052 189.628C302.133 189.816 302.234 190.049 302.359 190.335C302.629 190.986 302.997 191.871 303.445 192.951C303.9 194.069 304.434 195.385 305.027 196.843C305.339 197.566 305.585 198.378 306.033 199.079C306.259 199.428 306.558 199.732 306.932 199.924C307.3 200.12 307.744 200.182 308.134 200.026C308.524 199.875 308.824 199.538 309.008 199.163C309.197 198.783 309.268 198.367 309.24 197.952C309.189 197.119 308.845 196.353 308.568 195.616C308 194.136 307.558 192.779 307.225 191.628C306.891 190.478 306.664 189.535 306.52 188.882C306.45 188.555 306.396 188.3 306.366 188.126C306.335 187.95 306.323 187.859 306.331 187.856Z" fill="#744A45"/>
<path d="M302.199 209.113C302.199 209.113 294.516 231.758 294.212 232.869C293.909 233.981 295.729 242.069 299.065 243.989C302.401 245.91 308.87 237.924 309.68 234.992C310.488 232.061 309.68 227.107 309.68 227.107L314.858 207.595" fill="#99655C"/>
<path d="M309.68 205.594C309.676 205.622 309.393 205.625 308.957 205.499C308.522 205.374 307.944 205.091 307.429 204.62C306.914 204.148 306.582 203.596 306.421 203.173C306.257 202.749 306.236 202.467 306.263 202.461C306.337 202.431 306.603 203.539 307.599 204.433C308.577 205.348 309.703 205.518 309.68 205.594Z" fill="#744A45"/>
</svg>
